<svg xmlns="http://www.w3.org/2000/svg" width="232" height="145" fill="none"><defs/><path fill="#fff" fill-rule="evenodd" d="M20.136 72.53c-1.742.236-3.137.837-3.157 1-.019.162 1.073 1.18 2.83 1.724 1.588.487 3.064-.253 3.152-1.005.093-.746-1.178-1.937-2.825-1.718zM18.072 76.904c-.574-1.657-1.446-2.907-1.606-2.892-.164.01-.944 1.285-1.126 3.114-.165 1.655.855 2.954 1.608 2.894.755-.06 1.667-1.54 1.124-3.116zM13.838 76.29c1.264-1.218 2.03-2.535 1.95-2.677-.082-.142-1.562-.313-3.3.291-1.57.55-2.318 2.021-1.947 2.679.373.657 2.1.862 3.297-.294zM12.907 71.544c1.445.993 2.885 1.481 3.013 1.376.122-.108-.006-1.593-.946-3.173-.851-1.43-2.438-1.872-3.01-1.375-.573.496-.428 2.23.943 3.172zM16.783 69.593c-.445 1.696-.413 3.219-.27 3.302.145.076 1.497-.55 2.665-1.97 1.056-1.285.925-2.929.267-3.298-.66-.367-2.243.356-2.662 1.966zM13.877 60.688c-1.741.23-3.135.834-3.157.995-.02.165 1.073 1.181 2.828 1.723 1.589.49 3.065-.248 3.152-1.003.094-.748-1.178-1.936-2.823-1.715zM11.812 65.06c-.575-1.66-1.443-2.911-1.607-2.895-.164.014-.941 1.287-1.122 3.113-.167 1.657.853 2.956 1.606 2.895.756-.06 1.667-1.541 1.123-3.114zM7.579 64.444c1.264-1.219 2.03-2.532 1.946-2.678-.08-.141-1.56-.31-3.296.292-1.572.55-2.318 2.02-1.948 2.679.372.657 2.1.861 3.298-.293zM6.65 59.7c1.442.99 2.883 1.48 3.01 1.373.122-.106-.006-1.59-.946-3.172-.85-1.43-2.437-1.869-3.009-1.374-.573.495-.43 2.23.944 3.173zM10.525 57.747c-.448 1.696-.414 3.22-.269 3.303.143.077 1.495-.55 2.661-1.97 1.055-1.286.93-2.93.268-3.298-.658-.367-2.242.356-2.66 1.965zM14.657 48.726c-1.997.268-3.596.958-3.623 1.147-.021.188 1.232 1.352 3.25 1.976 1.82.563 3.516-.288 3.62-1.15.102-.86-1.354-2.225-3.247-1.973z" clip-rule="evenodd"/><path fill="#fff" fill-rule="evenodd" d="M12.287 53.747c-.657-1.905-1.656-3.339-1.843-3.323-.188.015-1.078 1.475-1.29 3.574-.188 1.901.981 3.39 1.846 3.324.87-.072 1.915-1.77 1.287-3.575zM7.43 53.04c1.452-1.4 2.33-2.908 2.235-3.073-.093-.166-1.793-.356-3.783.334-1.806.631-2.662 2.319-2.237 3.072.43.756 2.41.992 3.785-.333zM6.361 47.595c1.659 1.137 3.311 1.7 3.456 1.577.142-.123-.005-1.828-1.084-3.641-.976-1.64-2.8-2.147-3.456-1.578-.654.567-.49 2.558 1.084 3.642zM10.81 45.354c-.51 1.948-.474 3.694-.307 3.788.164.092 1.714-.628 3.054-2.258 1.214-1.477 1.068-3.364.31-3.786-.76-.423-2.575.408-3.056 2.256zM20.799 38.735c-2.026-.084-3.732.322-3.787.506-.057.182.982 1.554 2.87 2.522 1.709.875 3.534.33 3.786-.506.256-.835-.95-2.44-2.87-2.522z" clip-rule="evenodd"/><path fill="#fff" fill-rule="evenodd" d="M17.576 43.295c-.319-2.001-1.057-3.596-1.248-3.612-.19-.02-1.33 1.272-1.898 3.315-.52 1.85.38 3.53 1.249 3.612.868.081 2.201-1.42 1.897-3.315zM12.889 41.748c1.681-1.133 2.814-2.474 2.749-2.652-.061-.181-1.713-.669-3.807-.329-1.897.308-3.041 1.83-2.748 2.65.291.826 2.211 1.405 3.806.331zM12.777 36.169c1.446 1.416 2.985 2.26 3.149 2.163.163-.096.313-1.81-.439-3.796-.681-1.794-2.398-2.614-3.144-2.166-.749.45-.933 2.45.434 3.799zM17.576 34.724c-.845 1.84-1.112 3.577-.966 3.697.148.12 1.809-.321 3.422-1.704 1.457-1.25 1.642-3.145.963-3.695-.675-.55-2.619-.045-3.419 1.702zM13.299 67.746c-2.237.298-4.028 1.073-4.057 1.282-.024.212 1.38 1.515 3.637 2.211 2.041.63 3.936-.32 4.05-1.287.12-.96-1.511-2.49-3.63-2.206zM10.647 73.364c-.74-2.133-1.858-3.736-2.066-3.717-.21.014-1.212 1.65-1.444 4-.213 2.13 1.098 3.798 2.067 3.718.97-.08 2.143-1.98 1.443-4zM5.206 72.573c1.626-1.566 2.61-3.252 2.504-3.44-.104-.182-2.006-.4-4.238.374-2.02.707-2.979 2.594-2.5 3.439.476.848 2.694 1.11 4.234-.373zM4.01 66.478c1.858 1.273 3.706 1.904 3.87 1.764.158-.136-.009-2.047-1.217-4.077-1.09-1.837-3.132-2.402-3.864-1.768-.736.64-.552 2.867 1.21 4.08zM8.994 63.968c-.576 2.182-.532 4.138-.347 4.242.184.101 1.92-.706 3.42-2.53 1.355-1.65 1.195-3.765.345-4.238-.847-.472-2.883.458-3.418 2.526zM24.93 29.389c-1.097.145-1.976.525-1.989.628-.013.103.675.741 1.781 1.084 1.003.31 1.93-.157 1.986-.63.058-.473-.742-1.22-1.779-1.082zM23.63 32.142c-.362-1.046-.911-1.831-1.014-1.823-.104.01-.59.812-.705 1.961-.105 1.043.536 1.86 1.012 1.82.473-.037 1.048-.969.707-1.958zM20.965 31.756c.793-.77 1.276-1.597 1.223-1.69-.048-.086-.98-.192-2.073.186-.99.347-1.461 1.272-1.228 1.686.236.415 1.324.543 2.078-.182zM20.377 28.767c.91.624 1.817.933 1.896.864.077-.066-.001-1.003-.593-1.996-.538-.9-1.538-1.178-1.898-.866-.358.31-.266 1.403.595 1.998zM22.818 27.537c-.28 1.07-.26 2.028-.169 2.079.09.05.941-.345 1.677-1.239.666-.81.583-1.846.168-2.077-.416-.233-1.413.224-1.676 1.237zM39.891 22.75c-2.597-.399-4.856-.122-4.954.104-.098.229 1.044 2.146 3.341 3.664 2.076 1.373 4.507.93 4.952-.112.448-1.038-.876-3.282-3.339-3.656zM35.083 28.164c-.123-2.627-.848-4.786-1.09-4.836-.241-.052-1.894 1.452-2.922 4.004-.935 2.31-.016 4.605 1.093 4.836 1.108.226 3.043-1.515 2.919-4.004zM29.265 25.498c2.327-1.22 3.979-2.785 3.921-3.028-.057-.238-2.113-1.102-4.858-.968-2.49.127-4.184 1.926-3.924 3.03.256 1.1 2.653 2.121 4.86.966zM29.919 18.29c1.66 2.033 3.525 3.343 3.75 3.243.222-.104.663-2.291-.024-4.956-.618-2.416-2.717-3.718-3.746-3.243-1.028.472-1.552 3.024.02 4.956zM36.31 17.116c-1.353 2.25-1.946 4.451-1.773 4.629.17.173 2.377-.158 4.652-1.708 2.059-1.401 2.567-3.822 1.772-4.627-.79-.806-3.37-.432-4.65 1.706z" clip-rule="evenodd"/><path fill="#fff" fill-rule="evenodd" d="M29.553 30.845c-1.998.268-3.598.957-3.623 1.145-.018.19 1.232 1.353 3.248 1.979 1.823.561 3.516-.29 3.62-1.151.105-.86-1.352-2.227-3.245-1.973zM27.184 35.864c-.656-1.905-1.656-3.337-1.845-3.322-.188.015-1.081 1.477-1.287 3.574-.19 1.903.98 3.392 1.844 3.324.867-.072 1.914-1.77 1.288-3.576zM22.326 35.158c1.45-1.4 2.33-2.909 2.233-3.073-.093-.163-1.79-.357-3.78.336-1.808.63-2.663 2.317-2.238 3.07.428.758 2.408.993 3.785-.333zM21.257 29.713c1.66 1.139 3.313 1.7 3.456 1.576.142-.122-.007-1.826-1.084-3.641-.979-1.639-2.797-2.145-3.455-1.577-.655.568-.489 2.558 1.083 3.642zM25.708 27.472c-.514 1.948-.474 3.695-.31 3.788.167.091 1.714-.628 3.058-2.258 1.208-1.475 1.065-3.363.306-3.786-.756-.422-2.574.41-3.054 2.256zM50.244 21.9c-2 .265-3.6.96-3.625 1.143-.02.191 1.23 1.355 3.25 1.979 1.822.561 3.514-.288 3.618-1.15.106-.86-1.354-2.225-3.243-1.971zM47.873 26.918c-.657-1.906-1.655-3.338-1.844-3.32-.188.012-1.081 1.473-1.29 3.573-.189 1.9.98 3.39 1.847 3.321.866-.07 1.914-1.77 1.287-3.574zM43.016 26.212c1.451-1.4 2.331-2.91 2.234-3.073-.094-.163-1.79-.356-3.782.334-1.808.63-2.664 2.319-2.236 3.074.424.754 2.407.99 3.784-.335zM41.947 20.767c1.659 1.14 3.312 1.698 3.456 1.576.142-.122-.005-1.827-1.084-3.64-.977-1.642-2.802-2.148-3.456-1.58-.654.568-.492 2.56 1.084 3.644zM46.394 18.526c-.51 1.948-.472 3.694-.308 3.786.166.092 1.717-.626 3.057-2.257 1.21-1.476 1.064-3.364.307-3.787-.756-.421-2.572.41-3.056 2.258zM58.492 24.83c-2.539.34-4.572 1.216-4.604 1.455-.028.24 1.565 1.719 4.128 2.51 2.316.714 4.465-.365 4.598-1.46.134-1.091-1.718-2.826-4.122-2.506zM55.48 31.207c-.835-2.422-2.103-4.242-2.341-4.22-.242.018-1.374 1.873-1.64 4.538-.24 2.416 1.246 4.308 2.346 4.22 1.102-.088 2.43-2.245 1.635-4.538z" clip-rule="evenodd"/><path fill="#fff" fill-rule="evenodd" d="M49.31 30.308c1.843-1.777 2.96-3.694 2.838-3.902-.116-.208-2.274-.454-4.806.425-2.291.8-3.383 2.944-2.84 3.901.542.96 3.06 1.262 4.808-.424zM47.951 23.39c2.11 1.447 4.207 2.162 4.392 2.003.179-.153-.008-2.319-1.377-4.624-1.243-2.085-3.559-2.73-4.39-2.008-.833.725-.625 3.253 1.375 4.63zM53.603 20.544c-.648 2.472-.602 4.695-.393 4.81.21.118 2.181-.795 3.883-2.867 1.54-1.874 1.354-4.272.393-4.808-.964-.54-3.27.517-3.883 2.865zM59.587 39.063c-2 .266-3.6.96-3.626 1.143-.021.19 1.23 1.356 3.25 1.979 1.822.563 3.514-.287 3.618-1.15.108-.86-1.353-2.223-3.242-1.971zM57.215 44.08c-.657-1.902-1.656-3.337-1.842-3.32-.188.015-1.081 1.476-1.29 3.572-.191 1.903.98 3.392 1.846 3.323.866-.07 1.913-1.77 1.286-3.575zM52.359 43.375c1.452-1.4 2.328-2.908 2.234-3.074-.093-.162-1.792-.354-3.784.336-1.805.631-2.66 2.318-2.236 3.071.427.757 2.411.992 3.786-.333zM51.29 37.928c1.658 1.14 3.312 1.701 3.457 1.581.14-.124-.007-1.83-1.085-3.642-.976-1.642-2.8-2.148-3.456-1.58-.655.572-.49 2.558 1.084 3.641zM55.739 35.688c-.51 1.948-.475 3.696-.308 3.788.164.091 1.716-.626 3.055-2.258 1.21-1.475 1.065-3.362.309-3.784-.759-.424-2.575.406-3.056 2.254zM66.772 34.323c-1.998.264-3.602.957-3.627 1.144-.02.188 1.234 1.354 3.25 1.976 1.823.564 3.515-.286 3.62-1.148.106-.862-1.353-2.226-3.243-1.972z" clip-rule="evenodd"/><path fill="#fff" fill-rule="evenodd" d="M64.4 39.338c-.658-1.905-1.656-3.336-1.844-3.319-.19.014-1.08 1.473-1.289 3.573-.192 1.9.983 3.39 1.847 3.322.865-.07 1.913-1.77 1.286-3.576zM59.542 38.634c1.452-1.402 2.332-2.908 2.235-3.074-.09-.162-1.79-.356-3.781.335-1.808.63-2.663 2.317-2.238 3.072.424.756 2.411.992 3.784-.333zM58.475 33.187c1.658 1.14 3.31 1.701 3.457 1.577.14-.12-.007-1.826-1.087-3.64-.976-1.64-2.8-2.149-3.454-1.578-.659.57-.491 2.558 1.084 3.641zM62.922 30.948c-.513 1.947-.473 3.694-.306 3.786.163.09 1.715-.628 3.057-2.259 1.208-1.474 1.061-3.362.303-3.784-.756-.42-2.572.409-3.053 2.257zM69.696 49.908c-2.308-.31-4.304-.028-4.388.175-.083.203.963 1.883 3.02 3.19 1.861 1.18 4.008.753 4.387-.178.378-.93-.832-2.895-3.019-3.187zM65.527 54.782c-.154-2.325-.832-4.226-1.044-4.265-.215-.04-1.655 1.319-2.526 3.593-.79 2.062.063 4.079 1.048 4.266.987.185 2.668-1.394 2.522-3.594zM60.328 52.517c2.04-1.12 3.482-2.534 3.426-2.747-.056-.21-1.893-.943-4.321-.779-2.203.155-3.672 1.775-3.425 2.747.243.973 2.382 1.839 4.32.779z" clip-rule="evenodd"/><path fill="#fff" fill-rule="evenodd" d="M60.792 46.12c1.502 1.775 3.174 2.905 3.374 2.809.194-.095.548-2.039-.103-4.387-.588-2.128-2.465-3.248-3.37-2.812-.905.436-1.325 2.704.1 4.39zM66.433 44.976c-1.161 2.017-1.653 3.974-1.496 4.13.157.15 2.101-.18 4.092-1.589 1.803-1.276 2.212-3.426 1.496-4.128-.716-.7-2.993-.328-4.092 1.587zM23.976 40.105c-1.741.232-3.137.836-3.157.997-.02.166 1.073 1.18 2.832 1.722 1.586.49 3.062-.25 3.151-1.002.091-.748-1.178-1.937-2.826-1.717zM21.913 44.476c-.576-1.658-1.445-2.908-1.609-2.893-.162.014-.94 1.288-1.121 3.114-.168 1.656.853 2.958 1.607 2.894.756-.062 1.668-1.54 1.123-3.115zM17.68 43.863c1.264-1.219 2.03-2.533 1.948-2.677-.084-.143-1.562-.311-3.3.292-1.57.549-2.318 2.018-1.946 2.676.374.658 2.1.862 3.297-.291zM16.747 39.12c1.444.989 2.887 1.48 3.01 1.372.127-.106-.004-1.591-.944-3.172-.851-1.431-2.437-1.871-3.009-1.374-.573.495-.427 2.228.943 3.174zM20.624 37.166c-.445 1.696-.413 3.22-.27 3.3.144.08 1.496-.549 2.664-1.968 1.056-1.285.928-2.929.266-3.298-.66-.367-2.24.357-2.66 1.966zM12.415 70.052c-1.74.232-3.135.834-3.158.997-.02.164 1.074 1.179 2.83 1.721 1.59.491 3.065-.248 3.154-1 .091-.748-1.178-1.937-2.826-1.718zM10.35 74.424c-.574-1.66-1.443-2.909-1.606-2.893-.165.011-.942 1.284-1.125 3.114-.164 1.656.856 2.955 1.61 2.895.755-.063 1.665-1.542 1.12-3.117zM6.12 73.81c1.26-1.22 2.027-2.534 1.945-2.678-.08-.141-1.56-.31-3.298.292-1.57.55-2.318 2.019-1.946 2.676.372.659 2.098.866 3.298-.29zM5.183 69.066c1.447.99 2.89 1.479 3.013 1.372.124-.107-.002-1.59-.942-3.172-.852-1.43-2.439-1.87-3.011-1.373-.573.494-.427 2.226.94 3.173zM9.063 67.112c-.444 1.697-.414 3.22-.27 3.301.142.08 1.493-.55 2.664-1.968 1.057-1.285.928-2.93.266-3.299-.658-.368-2.242.358-2.66 1.966zM73.36 64.178c-2.381.317-4.288 1.141-4.316 1.364-.027.225 1.465 1.612 3.867 2.353 2.173.67 4.186-.341 4.312-1.366.125-1.026-1.611-2.652-3.863-2.351zM70.536 70.157c-.783-2.27-1.972-3.974-2.195-3.956-.226.016-1.29 1.758-1.536 4.258-.228 2.262 1.166 4.037 2.199 3.956 1.03-.086 2.277-2.111 1.532-4.258zM64.753 69.315c1.724-1.666 2.772-3.464 2.659-3.659-.11-.195-2.132-.427-4.505.399-2.152.75-3.172 2.758-2.664 3.657.51.903 2.87 1.184 4.51-.397zM63.476 62.83c1.976 1.358 3.945 2.026 4.119 1.878.169-.144-.01-2.178-1.292-4.338-1.163-1.956-3.336-2.556-4.116-1.878-.783.678-.584 3.048 1.289 4.338zM68.775 60.16c-.608 2.322-.564 4.404-.368 4.512.196.11 2.044-.748 3.64-2.69 1.443-1.757 1.272-4.006.367-4.509-.904-.503-3.064.488-3.639 2.687zM78.519 58.644c-1.813 1.49-2.975 3.157-2.885 3.358.094.198 2.049.584 4.426-.037 2.154-.562 3.307-2.438 2.879-3.356-.421-.917-2.704-1.376-4.42.035z" clip-rule="evenodd"/><path fill="#fff" fill-rule="evenodd" d="M79.25 65.067c-1.82-1.481-3.687-2.286-3.862-2.157-.179.13-.165 2.125.917 4.33.975 2 3.05 2.755 3.864 2.155.812-.601.811-2.924-.918-4.328zM74.008 67.347c.58-2.274.523-4.305.327-4.412-.192-.105-1.993.746-3.539 2.652-1.4 1.732-1.214 3.93-.33 4.412.888.487 2.994-.496 3.542-2.652zM69.609 62.615c2.341.11 4.324-.35 4.39-.56.066-.209-1.129-1.806-3.306-2.94-1.975-1.026-4.091-.412-4.39.555-.302.968 1.082 2.836 3.306 2.945zM72.639 57.666c.689 2.242 1.8 3.95 2.018 3.939.218-.013 1.312-1.675 1.642-4.112.294-2.204-1.011-3.984-2.019-3.936-1.008.047-2.297 1.984-1.641 4.11zM69.637 74.658c-2.197-.686-4.188-.743-4.305-.558-.112.184.625 1.995 2.412 3.611 1.62 1.459 3.783 1.395 4.304.55.521-.84-.33-2.955-2.41-3.603zM64.766 78.715c.236-2.29-.106-4.252-.309-4.328-.205-.075-1.83 1.008-3.053 3.08-1.115 1.877-.62 3.981.309 4.332.93.337 2.835-.913 3.053-3.084zM60.076 75.644c2.175-.751 3.81-1.89 3.794-2.106-.017-.213-1.684-1.233-4.08-1.474-2.171-.218-3.873 1.117-3.794 2.105.079.99 2.016 2.187 4.08 1.475zM61.59 69.49c1.168 1.977 2.611 3.355 2.82 3.298.206-.059.874-1.897.629-4.293-.22-2.171-1.864-3.572-2.818-3.3-.953.276-1.74 2.416-.63 4.296z" clip-rule="evenodd"/><path fill="#fff" fill-rule="evenodd" d="M67.278 69.31c-1.468 1.772-2.27 3.6-2.144 3.774.124.176 2.077.177 4.25-.867 1.966-.944 2.723-2.969 2.143-3.772-.582-.8-2.864-.814-4.249.865zM79.77 72.765c-1.741.23-3.136.832-3.157.999-.02.164 1.073 1.177 2.83 1.721 1.586.49 3.063-.25 3.153-.998.091-.752-1.18-1.943-2.826-1.722zM77.704 77.137c-.574-1.657-1.443-2.907-1.606-2.892-.164.01-.94 1.285-1.125 3.116-.164 1.653.857 2.952 1.61 2.892.755-.063 1.665-1.541 1.12-3.116zM73.473 76.522c1.262-1.216 2.03-2.532 1.944-2.677-.078-.141-1.56-.31-3.293.293-1.573.55-2.321 2.02-1.947 2.675.37.66 2.096.865 3.296-.29z" clip-rule="evenodd"/><path fill="#fff" fill-rule="evenodd" d="M72.541 71.78c1.444.99 2.885 1.481 3.01 1.373.125-.108-.003-1.595-.942-3.175-.852-1.428-2.44-1.869-3.012-1.373-.572.496-.428 2.23.944 3.175zM76.416 69.826c-.445 1.696-.412 3.22-.268 3.302.143.077 1.496-.55 2.663-1.97 1.057-1.285.928-2.929.268-3.298-.659-.367-2.242.357-2.663 1.966zM36.665 134.853c-2.068-1.06-4.039-1.457-4.186-1.293-.141.165.279 2.09 1.779 4.006 1.359 1.73 3.52 2.036 4.185 1.288.664-.748.18-2.996-1.778-4.001zM31.124 138.054c.627-2.238.623-4.251.434-4.362-.187-.109-1.994.691-3.57 2.544-1.428 1.674-1.298 3.855-.432 4.358.867.501 2.975-.422 3.568-2.54zM26.985 134.193c2.293-.371 4.116-1.224 4.136-1.443.019-.216-1.46-1.514-3.805-2.168-2.123-.586-4.046.446-4.136 1.442-.09.997 1.63 2.521 3.805 2.169zM29.549 128.334c.823 2.168 2.021 3.785 2.241 3.762.214-.021 1.195-1.733 1.364-4.161.152-2.196-1.244-3.873-2.237-3.763-.998.106-2.148 2.099-1.368 4.162zM35.236 129.131c-1.764 1.509-2.877 3.192-2.781 3.386.097.195 2.037.531 4.38-.132 2.115-.601 3.217-2.488 2.776-3.384-.439-.897-2.705-1.304-4.375.13zM87.136 132.308c-2.204-.256-4.097.048-4.174.241-.077.193.944 1.776 2.927 2.988 1.793 1.091 3.826.647 4.17-.248.344-.888-.839-2.737-2.923-2.981zM83.25 137.017c-.186-2.206-.862-4.005-1.066-4.04-.205-.037-1.555 1.282-2.344 3.46-.717 1.978.13 3.884 1.07 4.043.943.16 2.517-1.369 2.34-3.463zM78.262 134.949c1.923-1.097 3.27-2.469 3.212-2.669-.052-.199-1.809-.867-4.125-.669-2.092.184-3.464 1.752-3.213 2.67.252.92 2.3 1.711 4.126.668zM78.594 128.857c1.463 1.661 3.074 2.708 3.26 2.616.183-.095.49-1.949-.169-4.177-.597-2.015-2.404-3.047-3.259-2.619-.852.431-1.216 2.597.168 4.18zM83.945 127.669c-1.072 1.939-1.504 3.812-1.355 3.956.153.142 1.997-.205 3.87-1.577 1.693-1.248 2.049-3.299 1.353-3.957-.694-.654-2.852-.258-3.868 1.578zM47.69 134.716c-2.067-.244-3.847.042-3.918.226-.07.182.89 1.669 2.748 2.802 1.685 1.028 3.592.607 3.917-.229.326-.832-.786-2.573-2.746-2.799zM44.042 139.14c-.176-2.076-.809-3.766-1.002-3.798-.192-.032-1.46 1.203-2.198 3.254-.674 1.853.119 3.641 1.003 3.794.885.15 2.365-1.286 2.197-3.25z" clip-rule="evenodd"/><path fill="#fff" fill-rule="evenodd" d="M39.356 137.194c1.81-1.032 3.073-2.314 3.02-2.506-.05-.188-1.703-.814-3.872-.627-1.966.172-3.255 1.644-3.018 2.505.234.868 2.156 1.608 3.87.628zM39.672 131.473c1.371 1.563 2.882 2.543 3.06 2.456.171-.087.46-1.832-.16-3.92-.562-1.892-2.258-2.861-3.058-2.46-.802.404-1.143 2.439.158 3.924zM44.696 130.36c-1.007 1.818-1.413 3.578-1.27 3.712.138.136 1.877-.19 3.631-1.48 1.59-1.172 1.924-3.099 1.271-3.714-.652-.616-2.679-.244-3.632 1.482zM57.73 128.676c-2.083.004-3.817.496-3.865.685-.05.192 1.077 1.554 3.06 2.462 1.79.821 3.64.181 3.858-.688.227-.868-1.081-2.464-3.053-2.459zM54.626 133.496c-.418-2.041-1.248-3.64-1.44-3.649-.196-.013-1.307 1.364-1.804 3.485-.451 1.92.548 3.604 1.442 3.65.895.044 2.198-1.552 1.802-3.486z" clip-rule="evenodd"/><path fill="#fff" fill-rule="evenodd" d="M49.745 132.117c1.677-1.237 2.78-2.662 2.703-2.844-.07-.18-1.785-.608-3.919-.169-1.93.403-3.04 2.016-2.705 2.844.337.833 2.336 1.343 3.922.169zM49.385 126.397c1.547 1.39 3.163 2.187 3.327 2.082.16-.108.24-1.874-.62-3.875-.776-1.816-2.576-2.579-3.325-2.084-.746.495-.849 2.555.618 3.877zM54.244 124.702c-.786 1.927-.983 3.721-.827 3.84.158.113 1.842-.415 3.434-1.903 1.443-1.345 1.547-3.298.825-3.837-.717-.531-2.69.072-3.432 1.9zM60.092 134.843c-2.083 0-3.816.496-3.864.682-.05.191 1.078 1.554 3.058 2.462 1.791.821 3.638.182 3.862-.686.224-.869-1.084-2.465-3.056-2.458zM56.988 139.659c-.418-2.039-1.247-3.639-1.442-3.647-.193-.013-1.305 1.362-1.802 3.486-.45 1.918.548 3.604 1.444 3.649.896.043 2.196-1.553 1.8-3.488zM52.11 138.28c1.673-1.234 2.775-2.66 2.7-2.841-.073-.183-1.784-.609-3.917-.169-1.934.401-3.04 2.012-2.706 2.842.338.834 2.335 1.343 3.923.168z" clip-rule="evenodd"/><path fill="#fff" fill-rule="evenodd" d="M51.745 132.56c1.55 1.392 3.167 2.192 3.33 2.084.162-.109.24-1.873-.619-3.879-.779-1.81-2.576-2.574-3.327-2.082-.746.496-.849 2.553.617 3.877zM56.606 130.867c-.788 1.924-.983 3.722-.827 3.838.156.117 1.842-.414 3.436-1.902 1.44-1.349 1.542-3.298.824-3.833-.718-.535-2.69.071-3.433 1.897zM63.272 106.009c-2.084.004-3.816.498-3.867.687-.05.191 1.076 1.552 3.061 2.46 1.79.823 3.637.183 3.861-.684.222-.869-1.084-2.465-3.055-2.463zM60.165 110.831c-.416-2.039-1.246-3.639-1.438-3.651-.197-.01-1.306 1.364-1.804 3.487-.45 1.92.547 3.607 1.443 3.651.895.044 2.199-1.555 1.799-3.487zM55.287 109.451c1.675-1.235 2.779-2.659 2.704-2.844-.073-.18-1.787-.608-3.921-.17-1.93.404-3.038 2.015-2.703 2.847.336.833 2.332 1.34 3.92.167zM54.926 103.731c1.547 1.392 3.163 2.192 3.327 2.084.16-.11.243-1.875-.619-3.878-.777-1.813-2.577-2.577-3.324-2.081-.749.492-.849 2.555.616 3.875zM59.786 102.037c-.787 1.926-.984 3.72-.827 3.837.157.115 1.84-.412 3.435-1.901 1.439-1.346 1.544-3.298.824-3.834-.718-.533-2.69.072-3.432 1.898zM74.382 135.597c-2.103-.919-4.067-1.19-4.201-1.023-.135.169.398 2.045 1.995 3.837 1.442 1.619 3.586 1.792 4.198 1.016.606-.776-.005-2.961-1.992-3.83zM69.118 139.081c.48-2.24.355-4.221.161-4.319-.19-.094-1.921.799-3.358 2.718-1.306 1.738-1.047 3.877-.163 4.318.884.442 2.903-.589 3.36-2.717zM64.808 135.533c2.236-.51 3.979-1.458 3.983-1.674.008-.214-1.531-1.404-3.876-1.905-2.127-.449-3.955.685-3.983 1.672-.032.988 1.753 2.385 3.876 1.907zM66.977 129.604c.943 2.084 2.219 3.61 2.43 3.574.213-.036 1.074-1.784 1.094-4.183.019-2.172-1.457-3.74-2.43-3.572-.974.167-1.986 2.2-1.094 4.181zM72.626 130.048c-1.646 1.592-2.64 3.314-2.534 3.5.107.188 2.039.4 4.303-.396 2.05-.717 3.021-2.642 2.533-3.5-.49-.856-2.746-1.118-4.302.396zM76.964 80.448c-2.081.003-3.814.495-3.864.686-.05.189 1.079 1.553 3.059 2.46 1.79.825 3.64.182 3.861-.684.224-.87-1.084-2.466-3.056-2.462zM73.861 85.269c-.417-2.038-1.248-3.642-1.442-3.651-.195-.01-1.307 1.367-1.802 3.487-.45 1.92.547 3.606 1.444 3.649.895.045 2.195-1.553 1.8-3.486zM68.982 83.89c1.674-1.24 2.778-2.66 2.7-2.846-.07-.178-1.784-.605-3.918-.165-1.932.399-3.039 2.012-2.703 2.843.336.832 2.333 1.34 3.921.168zM68.62 78.17c1.546 1.39 3.164 2.189 3.327 2.082.163-.11.24-1.873-.618-3.876-.78-1.813-2.576-2.577-3.327-2.084-.747.495-.85 2.556.617 3.879zM73.48 76.475c-.787 1.925-.983 3.722-.828 3.838.156.116 1.843-.412 3.433-1.903 1.442-1.345 1.546-3.298.827-3.833-.719-.535-2.69.072-3.432 1.898z" clip-rule="evenodd"/><path fill="#fff" fill-rule="evenodd" d="M69.033 87.753c-2.082.004-3.817.496-3.866.686-.048.189 1.078 1.551 3.06 2.46 1.789.823 3.638.186 3.862-.686.224-.867-1.084-2.463-3.056-2.46zM65.926 92.575c-.414-2.04-1.245-3.64-1.438-3.651-.195-.01-1.307 1.366-1.804 3.488-.45 1.917.548 3.605 1.444 3.648.894.044 2.194-1.553 1.798-3.486zM61.049 91.194c1.675-1.234 2.777-2.661 2.703-2.844-.074-.181-1.786-.608-3.918-.166-1.936.4-3.043 2.013-2.707 2.844.338.83 2.334 1.34 3.922.166zM60.686 85.475c1.549 1.39 3.165 2.19 3.329 2.08.163-.106.24-1.87-.619-3.876-.78-1.81-2.577-2.576-3.325-2.082-.75.495-.85 2.555.615 3.879zM65.546 83.78c-.786 1.926-.982 3.72-.826 3.838.157.114 1.842-.414 3.434-1.902 1.442-1.348 1.543-3.298.826-3.833-.72-.533-2.69.07-3.434 1.897zM67.61 101.961c-1.99-.617-3.792-.665-3.893-.498-.103.168.565 1.804 2.185 3.261 1.467 1.319 3.421 1.255 3.893.493.472-.761-.302-2.676-2.185-3.256zM63.213 105.638c.207-2.072-.108-3.846-.29-3.914-.183-.067-1.655.912-2.758 2.79-1.005 1.702-.553 3.604.29 3.915.84.309 2.558-.828 2.758-2.791zM58.963 102.866c1.967-.681 3.445-1.715 3.428-1.911-.016-.193-1.523-1.113-3.69-1.325-1.969-.192-3.502 1.016-3.431 1.911.073.894 1.829 1.976 3.693 1.325z" clip-rule="evenodd"/><path fill="#fff" fill-rule="evenodd" d="M60.32 97.3c1.065 1.786 2.369 3.03 2.558 2.977.187-.053.788-1.715.564-3.884-.205-1.964-1.696-3.227-2.554-2.976-.866.248-1.572 2.183-.568 3.883zM65.466 97.13c-1.325 1.603-2.048 3.258-1.931 3.415.113.16 1.879.156 3.843-.792 1.775-.855 2.456-2.69 1.929-3.415-.527-.725-2.588-.731-3.841.791zM76.294 104.655c-2.786.008-5.098.666-5.166.918-.064.253 1.442 2.07 4.087 3.286 2.395 1.099 4.864.246 5.16-.917.3-1.157-1.45-3.292-4.081-3.287zM72.145 111.097c-.554-2.726-1.664-4.863-1.921-4.875-.261-.013-1.748 1.825-2.412 4.657-.601 2.566.732 4.812 1.928 4.876 1.196.059 2.935-2.077 2.405-4.658zM65.628 109.253c2.235-1.65 3.71-3.556 3.61-3.799-.096-.24-2.386-.813-5.235-.225-2.583.538-4.061 2.69-3.612 3.801.45 1.109 3.117 1.793 5.237.223z" clip-rule="evenodd"/><path fill="#fff" fill-rule="evenodd" d="M65.145 101.611c2.066 1.859 4.226 2.924 4.447 2.783.216-.142.319-2.502-.83-5.178-1.037-2.421-3.44-3.442-4.44-2.782-1 .661-1.134 3.413.823 5.177zM71.637 99.348c-1.049 2.575-1.314 4.971-1.106 5.128.21.155 2.46-.551 4.589-2.54 1.925-1.799 2.065-4.41 1.101-5.119-.958-.717-3.592.09-4.584 2.53zM62.581 114.496c-2.082.004-3.814.495-3.864.687-.05.188 1.076 1.552 3.059 2.46 1.792.824 3.637.183 3.863-.688.222-.864-1.086-2.463-3.058-2.459zM59.476 119.318c-.417-2.04-1.247-3.64-1.439-3.651-.196-.01-1.306 1.364-1.803 3.487-.452 1.919.547 3.607 1.442 3.648.895.044 2.198-1.552 1.8-3.484zM54.597 117.936c1.675-1.234 2.78-2.661 2.704-2.842-.072-.182-1.787-.607-3.92-.167-1.932.4-3.037 2.013-2.704 2.844.336.831 2.333 1.34 3.92.165zM54.236 112.218c1.547 1.39 3.166 2.19 3.327 2.082.161-.108.244-1.873-.619-3.877-.777-1.812-2.576-2.576-3.324-2.081-.748.493-.848 2.553.616 3.876zM59.097 110.524c-.788 1.925-.985 3.72-.827 3.837.156.115 1.84-.413 3.435-1.901 1.439-1.348 1.543-3.299.823-3.834-.718-.533-2.69.071-3.43 1.898zM66.27 124.796c-2.084.003-3.814.495-3.866.684-.05.191 1.077 1.552 3.06 2.463 1.79.818 3.638.178 3.86-.69.225-.866-1.082-2.46-3.054-2.457zM63.165 129.617c-.418-2.042-1.247-3.641-1.442-3.65-.193-.014-1.306 1.361-1.801 3.485-.452 1.921.547 3.605 1.443 3.651.894.042 2.194-1.555 1.8-3.486zM58.286 128.235c1.673-1.235 2.777-2.662 2.703-2.844-.072-.182-1.786-.608-3.918-.166-1.936.403-3.042 2.012-2.706 2.842.337.834 2.333 1.344 3.92.168z" clip-rule="evenodd"/><path fill="#fff" fill-rule="evenodd" d="M57.925 122.517c1.544 1.39 3.163 2.188 3.327 2.083.162-.111.238-1.876-.619-3.877-.779-1.815-2.577-2.576-3.325-2.082-.75.495-.85 2.554.617 3.876zM62.78 120.819c-.783 1.927-.98 3.723-.823 3.84.156.118 1.84-.41 3.436-1.898 1.438-1.348 1.544-3.303.824-3.838-.72-.533-2.69.074-3.436 1.896zM87.042 60.629c-2.084.004-3.814.494-3.865.685-.05.19 1.077 1.552 3.059 2.461 1.792.824 3.638.18 3.862-.686.224-.87-1.084-2.464-3.056-2.46zM83.938 65.449c-.417-2.038-1.25-3.642-1.441-3.65-.195-.01-1.307 1.364-1.804 3.486-.45 1.92.548 3.605 1.444 3.65.896.044 2.197-1.553 1.801-3.486zM79.058 64.07c1.675-1.237 2.777-2.663 2.703-2.843-.071-.181-1.787-.608-3.919-.17-1.935.404-3.04 2.014-2.703 2.846.334.83 2.332 1.34 3.919.167zM78.697 58.351c1.547 1.39 3.162 2.187 3.327 2.082.161-.108.241-1.872-.619-3.878-.777-1.812-2.576-2.576-3.325-2.081-.75.495-.85 2.553.617 3.877zM83.554 56.653c-.784 1.927-.98 3.722-.825 3.84.157.116 1.841-.413 3.437-1.9 1.439-1.348 1.543-3.301.821-3.834-.72-.536-2.686.069-3.433 1.894zM91.169 43.77c-2.074-.203-3.847.111-3.916.294-.064.183.917 1.655 2.798 2.756 1.7.997 3.604.544 3.912-.299.308-.838-.833-2.557-2.794-2.752zM87.596 48.255c-.208-2.07-.872-3.745-1.066-3.776-.192-.03-1.437 1.228-2.142 3.29-.643 1.864.181 3.64 1.07 3.776.884.133 2.34-1.328 2.138-3.29zM82.88 46.394c1.79-1.063 3.03-2.37 2.974-2.558-.055-.187-1.715-.786-3.882-.562-1.965.206-3.226 1.701-2.975 2.562.25.86 2.186 1.568 3.884.558zM83.094 40.666c1.4 1.539 2.928 2.496 3.102 2.406.173-.09.426-1.839-.23-3.918-.589-1.882-2.304-2.822-3.098-2.406-.794.418-1.099 2.456.226 3.918zM88.1 39.467c-.978 1.837-1.354 3.604-1.208 3.737.144.13 1.873-.225 3.606-1.546 1.568-1.198 1.868-3.132 1.206-3.735-.66-.604-2.683-.199-3.604 1.544zM95.074 49.983c-2.084.001-3.816.493-3.866.684-.048.189 1.076 1.552 3.059 2.462 1.79.823 3.64.182 3.861-.686.224-.868-1.082-2.464-3.054-2.46zM91.968 54.803c-.416-2.039-1.246-3.641-1.441-3.65-.194-.011-1.305 1.366-1.802 3.486-.45 1.919.549 3.605 1.445 3.65.894.045 2.194-1.553 1.798-3.486z" clip-rule="evenodd"/><path fill="#fff" fill-rule="evenodd" d="M87.09 53.424c1.675-1.239 2.778-2.663 2.702-2.845-.072-.18-1.784-.607-3.917-.17-1.934.403-3.04 2.017-2.706 2.847.338.83 2.335 1.341 3.922.168zM86.727 47.704c1.548 1.39 3.165 2.188 3.33 2.081.16-.108.24-1.873-.62-3.874-.78-1.815-2.576-2.576-3.326-2.086-.745.495-.848 2.556.616 3.879zM91.588 46.008c-.787 1.926-.984 3.72-.827 3.838.157.116 1.84-.413 3.434-1.901 1.442-1.347 1.546-3.299.826-3.835-.717-.533-2.69.072-3.433 1.898zM99.519 30.064c-2.38-.813-4.548-.93-4.681-.734-.128.2.622 2.195 2.529 4.01 1.721 1.64 4.081 1.634 4.677.729.595-.903-.274-3.236-2.525-4.006zM94.085 34.349c.323-2.491.006-4.644-.212-4.73-.217-.09-2.028 1.044-3.426 3.273-1.266 2.014-.787 4.328.218 4.731 1.004.402 3.115-.913 3.42-3.274zM89.058 30.862c2.396-.754 4.213-1.951 4.196-2.187-.01-.23-1.797-1.395-4.404-1.728-2.367-.299-4.263 1.108-4.204 2.185.057 1.084 2.139 2.448 4.412 1.73zM90.886 24.19c1.22 2.194 2.755 3.74 2.984 3.682.225-.06 1.008-2.044.81-4.665-.174-2.377-1.93-3.953-2.977-3.681-1.049.268-1.969 2.58-.817 4.664zM97.096 24.16c-1.65 1.89-2.58 3.862-2.446 4.057.132.193 2.263.252 4.666-.824 2.17-.972 3.056-3.161 2.444-4.055-.612-.889-3.099-.972-4.664.822zM99.898 35.789c-2.083.005-3.815.496-3.864.688-.047.188 1.077 1.549 3.058 2.46 1.792.822 3.638.182 3.863-.688.224-.866-1.085-2.462-3.057-2.46z" clip-rule="evenodd"/><path fill="#fff" fill-rule="evenodd" d="M96.794 40.61c-.418-2.04-1.246-3.64-1.44-3.649-.195-.01-1.308 1.365-1.803 3.487-.452 1.918.548 3.604 1.444 3.648.895.044 2.196-1.552 1.799-3.486zM91.915 39.231c1.673-1.237 2.778-2.662 2.704-2.845-.072-.179-1.787-.608-3.92-.168-1.932.403-3.039 2.013-2.704 2.845.336.832 2.333 1.34 3.92.168zM91.553 33.511c1.547 1.39 3.166 2.19 3.33 2.082.16-.107.24-1.872-.62-3.876-.78-1.812-2.576-2.576-3.326-2.082-.747.494-.848 2.554.616 3.876zM96.413 31.817c-.786 1.926-.983 3.719-.826 3.836.154.115 1.84-.412 3.434-1.9 1.439-1.348 1.543-3.3.826-3.834-.718-.534-2.69.07-3.433 1.898zM106.967 20.177c-1.466.001-2.678.345-2.711.478-.035.134.755 1.087 2.143 1.726 1.257.576 2.55.128 2.708-.484.158-.606-.76-1.726-2.14-1.72zM104.788 23.553c-.294-1.428-.873-2.552-1.012-2.557-.133-.007-.913.958-1.264 2.445-.313 1.344.388 2.527 1.015 2.557.627.03 1.539-1.089 1.261-2.445zM101.368 22.587c1.173-.866 1.948-1.867 1.895-1.994-.051-.125-1.252-.425-2.75-.118-1.353.282-2.13 1.413-1.894 1.994.236.583 1.637.94 2.749.118zM101.114 18.575c1.084.977 2.22 1.536 2.335 1.461.113-.073.168-1.313-.434-2.714-.546-1.274-1.81-1.808-2.332-1.463-.528.348-.596 1.792.431 2.716zM104.521 17.389c-.552 1.35-.69 2.61-.582 2.69.112.082 1.293-.289 2.412-1.331 1.009-.943 1.081-2.315.577-2.69-.505-.372-1.887.051-2.407 1.331zM107.012 29.972c-2.084.003-3.812.498-3.866.687-.047.188 1.078 1.55 3.061 2.46 1.792.823 3.637.18 3.86-.687.225-.869-1.083-2.464-3.055-2.46zM103.908 34.793c-.417-2.038-1.248-3.642-1.441-3.651-.195-.01-1.307 1.368-1.801 3.487-.452 1.92.545 3.606 1.444 3.65.893.044 2.194-1.553 1.798-3.486z" clip-rule="evenodd"/><path fill="#fff" fill-rule="evenodd" d="M99.03 33.414c1.673-1.238 2.778-2.663 2.701-2.844-.07-.182-1.786-.608-3.92-.168-1.931.401-3.038 2.013-2.7 2.844.331.83 2.33 1.341 3.92.168zM98.669 27.695c1.545 1.388 3.161 2.19 3.326 2.08.16-.107.243-1.872-.618-3.876-.778-1.812-2.578-2.577-3.324-2.081-.752.493-.852 2.553.616 3.877zM103.527 25.998c-.784 1.926-.986 3.72-.828 3.839.158.116 1.84-.415 3.434-1.901 1.442-1.348 1.547-3.3.827-3.835-.72-.532-2.689.072-3.433 1.897zM122.646 13.84c-2.476.004-4.533.589-4.595.814-.056.226 1.283 1.844 3.638 2.927 2.13.977 4.328.215 4.59-.817.268-1.031-1.288-2.927-3.633-2.923zM118.956 19.573c-.495-2.427-1.479-4.33-1.712-4.342-.232-.013-1.555 1.624-2.143 4.146-.536 2.28.649 4.286 1.713 4.338 1.066.053 2.614-1.846 2.142-4.142zM113.154 17.93c1.992-1.47 3.304-3.165 3.215-3.38-.085-.214-2.125-.722-4.66-.2-2.3.478-3.612 2.393-3.216 3.38.401.991 2.773 1.597 4.661.2zM112.727 11.13c1.838 1.652 3.759 2.604 3.955 2.477.191-.125.287-2.226-.735-4.61-.928-2.154-3.068-3.062-3.954-2.474-.891.587-1.01 3.035.734 4.607zM118.503 9.117c-.934 2.29-1.17 4.422-.982 4.563.186.137 2.187-.49 4.083-2.26 1.711-1.602 1.836-3.924.98-4.56-.853-.634-3.199.085-4.081 2.257zM131.589 8.975c-2.476.005-4.532.59-4.596.815-.056.225 1.284 1.844 3.636 2.928 2.132.976 4.328.214 4.593-.82.268-1.031-1.288-2.926-3.633-2.923z" clip-rule="evenodd"/><path fill="#fff" fill-rule="evenodd" d="M127.9 14.707c-.498-2.426-1.484-4.328-1.714-4.34-.23-.014-1.553 1.624-2.141 4.145-.537 2.281.647 4.285 1.713 4.337 1.064.054 2.614-1.842 2.142-4.142zM122.098 13.066c1.992-1.47 3.304-3.167 3.213-3.381-.087-.215-2.124-.722-4.659-.2-2.301.477-3.614 2.394-3.216 3.381.402.99 2.774 1.596 4.662.2zM121.669 6.268c1.839 1.65 3.76 2.599 3.956 2.472.192-.127.286-2.224-.734-4.607-.927-2.153-3.067-3.064-3.956-2.474-.888.586-1.008 3.034.734 4.609zM127.445 4.251c-.936 2.29-1.17 4.423-.982 4.563.184.137 2.188-.488 4.084-2.259 1.71-1.603 1.836-3.925.981-4.56-.856-.633-3.2.084-4.083 2.256zM137.881 7.286c-2.017.006-3.692.48-3.741.664-.045.186 1.045 1.5 2.96 2.381 1.733.796 3.519.175 3.735-.666.217-.837-1.047-2.381-2.954-2.379zM134.878 11.95c-.403-1.972-1.204-3.521-1.394-3.53-.189-.01-1.262 1.32-1.744 3.373-.434 1.856.528 3.485 1.396 3.53.867.042 2.126-1.506 1.742-3.373z" clip-rule="evenodd"/><path fill="#fff" fill-rule="evenodd" d="M130.159 10.617c1.617-1.196 2.686-2.577 2.613-2.752-.069-.173-1.725-.588-3.791-.164-1.87.39-2.938 1.948-2.616 2.75.326.806 2.258 1.3 3.794.166zM129.811 5.084c1.495 1.344 3.059 2.115 3.218 2.014.156-.103.232-1.814-.599-3.748-.753-1.755-2.493-2.495-3.217-2.016-.724.477-.819 2.472.598 3.75zM134.509 3.444c-.761 1.862-.949 3.597-.8 3.712.153.113 1.78-.398 3.323-1.839 1.392-1.301 1.496-3.19.798-3.71-.694-.515-2.602.071-3.321 1.837zM145.155 6.32c-2.013.001-3.688.479-3.737.661-.048.184 1.042 1.5 2.958 2.379 1.735.797 3.52.179 3.734-.661.216-.84-1.047-2.384-2.955-2.38zM142.154 10.981c-.404-1.973-1.204-3.522-1.396-3.529-.187-.01-1.262 1.32-1.743 3.37-.435 1.858.529 3.487 1.396 3.531.869.043 2.127-1.504 1.743-3.372zM137.432 9.647c1.622-1.195 2.687-2.576 2.616-2.75-.072-.176-1.728-.589-3.793-.162-1.867.385-2.939 1.945-2.613 2.75.325.805 2.257 1.3 3.79.162z" clip-rule="evenodd"/><path fill="#fff" fill-rule="evenodd" d="M137.085 4.115c1.496 1.344 3.06 2.118 3.217 2.014.157-.103.232-1.812-.599-3.75-.752-1.753-2.489-2.492-3.214-2.014-.726.478-.822 2.47.596 3.75zM141.784 2.476c-.76 1.861-.951 3.597-.8 3.71.153.113 1.779-.398 3.324-1.838 1.391-1.301 1.496-3.19.797-3.71-.693-.517-2.602.071-3.321 1.838zM120.832 88.929c-1.361.001-2.495.324-2.528.448-.032.124.705 1.014 2.001 1.609 1.171.54 2.383.12 2.526-.45.148-.566-.71-1.611-1.999-1.607zM118.802 92.08c-.272-1.332-.816-2.38-.941-2.386-.128-.008-.859.895-1.182 2.282-.294 1.254.358 2.357.944 2.386.59.028 1.438-1.014 1.179-2.281zM115.609 91.18c1.094-.81 1.818-1.744 1.769-1.861-.047-.118-1.168-.399-2.565-.11-1.264.263-1.99 1.316-1.77 1.859.222.547 1.528.879 2.566.112zM115.372 87.44c1.013.906 2.072 1.427 2.177 1.36.108-.07.157-1.226-.404-2.536-.509-1.188-1.687-1.686-2.176-1.364-.488.326-.553 1.672.403 2.54zM118.551 86.328c-.515 1.258-.64 2.434-.54 2.512.104.072 1.205-.27 2.249-1.246.94-.878 1.009-2.158.537-2.508-.469-.347-1.76.048-2.246 1.242zM122.119 77.434c-2.307-.31-4.303-.028-4.387.176-.083.203.961 1.883 3.021 3.19 1.859 1.182 4.006.75 4.383-.18.379-.926-.831-2.892-3.017-3.186z" clip-rule="evenodd"/><path fill="#fff" fill-rule="evenodd" d="M117.952 82.308c-.155-2.323-.833-4.223-1.049-4.264-.212-.04-1.654 1.316-2.524 3.592-.788 2.06.064 4.08 1.048 4.268.986.184 2.67-1.394 2.525-3.596zM112.748 80.042c2.044-1.119 3.483-2.53 3.427-2.744-.054-.212-1.89-.945-4.318-.78-2.204.155-3.674 1.776-3.428 2.745.246.974 2.383 1.84 4.319.779zM113.213 73.647c1.505 1.776 3.176 2.904 3.373 2.81.198-.093.55-2.038-.1-4.389-.588-2.128-2.468-3.246-3.372-2.812-.904.433-1.324 2.703.099 4.39zM118.855 72.501c-1.164 2.02-1.653 3.977-1.496 4.13.158.153 2.103-.175 4.095-1.586 1.8-1.277 2.209-3.427 1.492-4.128-.713-.701-2.991-.328-4.091 1.584zM169.859 45.44c-2.305-.31-4.302-.027-4.384.174-.084.206.96 1.883 3.018 3.191 1.86 1.183 4.006.75 4.385-.18.38-.927-.831-2.893-3.019-3.185zM165.691 50.313c-.153-2.324-.83-4.225-1.044-4.264-.216-.04-1.654 1.318-2.525 3.594-.792 2.06.06 4.078 1.048 4.264.984.187 2.669-1.39 2.521-3.593zM160.492 48.047c2.041-1.118 3.48-2.531 3.427-2.743-.056-.21-1.891-.945-4.322-.779-2.202.154-3.672 1.772-3.424 2.746.244.972 2.382 1.838 4.319.776zM160.956 41.653c1.501 1.775 3.174 2.904 3.374 2.81.195-.095.55-2.042-.102-4.39-.588-2.126-2.467-3.246-3.37-2.81-.905.433-1.325 2.704.098 4.39zM166.598 40.509c-1.163 2.017-1.654 3.973-1.499 4.129.157.15 2.104-.179 4.097-1.588 1.8-1.277 2.211-3.427 1.494-4.128-.718-.7-2.994-.328-4.092 1.587z" clip-rule="evenodd"/><path fill="#fff" fill-rule="evenodd" d="M165.569 53.791c-2.309-.308-4.305-.026-4.389.175-.083.207.961 1.884 3.02 3.192 1.861 1.183 4.006.752 4.386-.18.379-.927-.83-2.892-3.017-3.187zM161.398 58.666c-.153-2.322-.83-4.225-1.042-4.264-.216-.041-1.655 1.316-2.527 3.594-.792 2.061.063 4.077 1.047 4.265.989.184 2.67-1.39 2.522-3.595zM156.201 56.4c2.041-1.117 3.48-2.531 3.422-2.745-.053-.209-1.886-.941-4.318-.777-2.204.153-3.675 1.773-3.424 2.744.242.973 2.381 1.84 4.32.779zM156.663 50.005c1.502 1.774 3.174 2.905 3.374 2.81.194-.094.55-2.038-.101-4.387-.588-2.13-2.468-3.248-3.371-2.813-.906.435-1.325 2.704.098 4.39zM162.303 48.862c-1.161 2.016-1.65 3.974-1.496 4.129.158.15 2.106-.179 4.096-1.59 1.8-1.275 2.21-3.423 1.495-4.126-.717-.7-2.995-.33-4.095 1.587zM170.714 60.484c-2.052-1.104-4.019-1.544-4.168-1.383-.15.162.236 2.099 1.7 4.05 1.325 1.762 3.488 2.113 4.168 1.377.681-.735.242-3-1.7-4.044zM165.094 63.575c.674-2.23.71-4.247.524-4.357-.188-.115-2.012.65-3.627 2.472-1.469 1.65-1.38 3.838-.525 4.361.86.52 2.989-.361 3.628-2.476z" clip-rule="evenodd"/><path fill="#fff" fill-rule="evenodd" d="M161.026 59.623c2.304-.325 4.149-1.144 4.175-1.361.022-.216-1.438-1.55-3.77-2.25-2.118-.635-4.064.365-4.174 1.36-.114.998 1.581 2.56 3.769 2.251zM163.714 53.8c.781 2.191 1.946 3.838 2.166 3.82.216-.02 1.234-1.716 1.451-4.144.2-2.198-1.163-3.908-2.163-3.817-1 .087-2.194 2.061-1.454 4.141zM169.396 54.718c-1.795 1.476-2.945 3.138-2.857 3.338.096.194 2.033.573 4.393-.043 2.137-.561 3.276-2.43 2.852-3.337-.42-.91-2.685-1.362-4.388.042zM122.88 51.093c-2.05-1.105-4.02-1.544-4.165-1.384-.151.164.233 2.099 1.697 4.051 1.326 1.761 3.488 2.112 4.167 1.376.684-.735.244-3-1.699-4.043zM117.262 54.185c.674-2.228.71-4.248.522-4.36-.186-.114-2.012.65-3.628 2.473-1.467 1.65-1.379 3.839-.522 4.361.858.52 2.99-.36 3.628-2.474zM113.192 50.233c2.305-.328 4.151-1.144 4.173-1.362.026-.218-1.436-1.55-3.768-2.253-2.116-.633-4.065.365-4.174 1.364-.111.997 1.581 2.56 3.769 2.25zM115.88 44.408c.78 2.192 1.946 3.838 2.169 3.82.213-.018 1.231-1.716 1.449-4.142.2-2.2-1.166-3.908-2.165-3.82-.999.088-2.193 2.061-1.453 4.142zM121.563 45.326c-1.796 1.476-2.947 3.14-2.856 3.34.093.192 2.032.571 4.392-.046 2.136-.559 3.274-2.427 2.854-3.336-.424-.91-2.689-1.362-4.39.042zM171.824 22.24c-1.472-1.809-3.117-2.967-3.318-2.878-.202.095-.588 2.03.014 4.396.551 2.133 2.411 3.287 3.323 2.87.908-.417 1.372-2.678-.019-4.389zM165.448 22.937c1.477-1.8 2.287-3.648 2.157-3.824-.129-.175-2.108-.172-4.3.892-1.988.96-2.748 3.016-2.156 3.825.591.81 2.9.815 4.299-.893zM163.207 17.726c2.255.584 4.275.538 4.376.346.107-.191-.731-1.982-2.615-3.524-1.713-1.4-3.896-1.223-4.38-.347-.482.88.482 2.973 2.619 3.525zM167.925 13.382c-.119 2.322.325 4.29.536 4.358.205.064 1.796-1.108 2.93-3.27 1.027-1.952.424-4.053-.533-4.354-.959-.304-2.819 1.061-2.933 3.266zM172.819 16.411c-2.227.675-3.924 1.764-3.917 1.985.01.215 1.656 1.308 4.074 1.644 2.186.302 3.954-.984 3.911-1.985-.04-1.003-1.956-2.287-4.068-1.644zM160.888 73.345c-2.051-1.103-4.02-1.542-4.168-1.382-.148.162.239 2.1 1.701 4.051 1.326 1.764 3.487 2.113 4.167 1.375.681-.732.244-2.999-1.7-4.044zM155.269 76.438c.674-2.228.711-4.247.523-4.359-.185-.116-2.012.65-3.628 2.473-1.465 1.652-1.38 3.838-.521 4.363.857.517 2.989-.363 3.626-2.477zM151.199 72.487c2.307-.327 4.151-1.146 4.175-1.363.021-.217-1.436-1.55-3.769-2.25-2.115-.634-4.062.366-4.174 1.36-.112.998 1.582 2.56 3.768 2.253zM153.887 66.665c.782 2.19 1.949 3.836 2.17 3.817.214-.018 1.231-1.713 1.451-4.141.197-2.2-1.167-3.91-2.167-3.82-1 .087-2.193 2.061-1.454 4.144zM159.57 67.58c-1.796 1.476-2.946 3.14-2.854 3.338.094.194 2.032.574 4.39-.044 2.135-.559 3.278-2.427 2.855-3.335-.425-.91-2.687-1.361-4.391.041zM125.457 134.412c-2.052-1.107-4.017-1.542-4.169-1.383-.146.163.24 2.101 1.702 4.049 1.327 1.762 3.488 2.115 4.17 1.379.681-.736.241-3.001-1.703-4.045zM119.839 137.504c.674-2.229.71-4.245.528-4.361-.19-.111-2.016.654-3.632 2.474-1.467 1.65-1.38 3.839-.524 4.36.858.522 2.99-.358 3.628-2.473zM115.77 133.551c2.305-.327 4.149-1.143 4.175-1.361.022-.215-1.436-1.548-3.77-2.25-2.118-.633-4.061.366-4.174 1.36-.112.998 1.581 2.559 3.769 2.251zM118.46 127.731c.782 2.19 1.949 3.834 2.164 3.817.217-.017 1.234-1.716 1.452-4.141.201-2.203-1.162-3.91-2.164-3.819-.999.085-2.191 2.061-1.452 4.143zM124.141 128.649c-1.798 1.473-2.946 3.134-2.855 3.336.095.193 2.031.573 4.391-.044 2.136-.563 3.276-2.431 2.853-3.336-.424-.908-2.688-1.362-4.389.044z" clip-rule="evenodd"/><path fill="#fff" fill-rule="evenodd" d="M129.063 130.123c-2.051-1.103-4.019-1.542-4.17-1.382-.148.162.236 2.099 1.703 4.051 1.325 1.761 3.485 2.115 4.165 1.375.686-.735.243-2.998-1.698-4.044zM123.443 133.215c.674-2.228.709-4.245.525-4.359-.188-.114-2.011.651-3.631 2.474-1.466 1.652-1.378 3.838-.52 4.36.856.521 2.988-.36 3.626-2.475zM119.374 129.263c2.306-.325 4.15-1.141 4.173-1.361.023-.216-1.435-1.549-3.768-2.251-2.116-.633-4.064.366-4.176 1.36-.111.998 1.583 2.56 3.771 2.252zM122.063 123.443c.78 2.189 1.946 3.836 2.168 3.816.216-.017 1.23-1.712 1.45-4.141.199-2.2-1.165-3.908-2.165-3.819-1 .087-2.195 2.061-1.453 4.144zM127.746 124.358c-1.8 1.478-2.948 3.139-2.856 3.339.092.193 2.032.573 4.392-.045 2.133-.559 3.273-2.427 2.853-3.335-.425-.909-2.685-1.363-4.389.041zM136.784 136.3c-2.051-1.107-4.017-1.546-4.168-1.386-.148.167.236 2.102 1.703 4.052 1.325 1.76 3.486 2.115 4.166 1.378.682-.735.243-3.002-1.701-4.044zM131.165 139.391c.675-2.231.711-4.248.526-4.357-.188-.115-2.012.648-3.628 2.472-1.468 1.649-1.382 3.838-.523 4.36.856.52 2.988-.36 3.625-2.475z" clip-rule="evenodd"/><path fill="#fff" fill-rule="evenodd" d="M127.096 135.439c2.307-.327 4.151-1.144 4.174-1.363.024-.217-1.434-1.549-3.768-2.249-2.118-.633-4.062.364-4.175 1.361-.111.998 1.583 2.56 3.769 2.251zM129.784 129.617c.783 2.19 1.951 3.836 2.171 3.819.213-.021 1.23-1.716 1.449-4.143.199-2.201-1.165-3.909-2.164-3.82-1.001.087-2.193 2.063-1.456 4.144zM135.467 130.533c-1.798 1.477-2.946 3.14-2.854 3.338.092.194 2.032.575 4.389-.042 2.137-.559 3.277-2.43 2.856-3.339-.425-.909-2.687-1.36-4.391.043zM142.651 121.853c-2.051-1.105-4.016-1.543-4.168-1.384-.148.163.237 2.103 1.703 4.052 1.326 1.761 3.485 2.115 4.168 1.376.68-.733.241-2.999-1.703-4.044z" clip-rule="evenodd"/><path fill="#fff" fill-rule="evenodd" d="M137.034 124.946c.673-2.232.711-4.248.525-4.36-.188-.112-2.014.65-3.63 2.476-1.468 1.646-1.379 3.836-.523 4.358.859.52 2.989-.361 3.628-2.474zM132.965 120.992c2.305-.325 4.149-1.141 4.173-1.361.024-.216-1.436-1.549-3.768-2.249-2.119-.635-4.063.364-4.175 1.36-.113.997 1.582 2.561 3.77 2.25zM135.652 115.172c.782 2.189 1.948 3.836 2.166 3.819.218-.02 1.236-1.715 1.453-4.144.197-2.2-1.164-3.908-2.165-3.819-.999.088-2.194 2.063-1.454 4.144zM141.336 116.087c-1.797 1.476-2.947 3.139-2.857 3.339.094.193 2.032.573 4.39-.043 2.136-.561 3.276-2.429 2.855-3.337-.423-.909-2.687-1.363-4.388.041z" clip-rule="evenodd"/><path fill="#fff" fill-rule="evenodd" d="M148.384 113.966c-2.052-1.105-4.019-1.542-4.169-1.382-.148.162.237 2.1 1.701 4.048 1.327 1.764 3.488 2.117 4.168 1.377.681-.733.241-3-1.7-4.043zM142.763 117.056c.676-2.228.711-4.246.527-4.358-.188-.114-2.014.649-3.628 2.474-1.471 1.65-1.382 3.836-.523 4.359.857.52 2.989-.36 3.624-2.475zM138.695 113.104c2.307-.324 4.154-1.142 4.175-1.361.023-.217-1.436-1.549-3.769-2.251-2.116-.633-4.063.368-4.172 1.362-.114.998 1.578 2.56 3.766 2.25zM141.383 107.283c.781 2.189 1.95 3.836 2.169 3.818.216-.02 1.232-1.714 1.452-4.142.197-2.199-1.167-3.907-2.167-3.82-1 .088-2.192 2.064-1.454 4.144zM147.068 108.198c-1.8 1.48-2.948 3.14-2.856 3.339.092.193 2.03.577 4.389-.043 2.136-.561 3.279-2.425 2.856-3.337-.425-.907-2.687-1.363-4.389.041z" clip-rule="evenodd"/><path fill="#fff" fill-rule="evenodd" d="M149.798 107.065c-1.557-1.73-3.261-2.805-3.456-2.706-.196.102-.487 2.058.235 4.388.654 2.104 2.569 3.165 3.461 2.7.888-.46 1.237-2.743-.24-4.382zM143.468 108.084c1.384-1.872 2.098-3.759 1.962-3.927-.137-.172-2.112-.067-4.25 1.104-1.938 1.06-2.592 3.148-1.963 3.929.633.78 2.939.667 4.251-1.106zM140.969 102.99c2.281.471 4.293.321 4.389.125.092-.194-.829-1.942-2.791-3.388-1.781-1.31-3.948-1.026-4.39-.128-.44.902.628 2.946 2.792 3.391zM145.464 98.414c-.006 2.326.538 4.267.752 4.328.212.054 1.737-1.2 2.762-3.41.927-2.004.222-4.075-.752-4.327-.968-.253-2.758 1.203-2.762 3.41zM150.5 101.194c-2.188.784-3.829 1.96-3.812 2.178.021.218 1.723 1.226 4.152 1.441 2.197.191 3.903-1.183 3.808-2.18-.092-.997-2.068-2.185-4.148-1.439zM156.551 93.839c-2.051-1.107-4.016-1.541-4.166-1.384-.149.164.235 2.101 1.7 4.05 1.326 1.762 3.487 2.117 4.168 1.375.682-.732.242-2.998-1.702-4.041z" clip-rule="evenodd"/><path fill="#fff" fill-rule="evenodd" d="M150.932 96.931c.674-2.23.712-4.25.526-4.36-.188-.113-2.012.652-3.628 2.474-1.468 1.647-1.379 3.84-.523 4.358.857.521 2.988-.357 3.625-2.472zM146.866 92.978c2.304-.326 4.147-1.144 4.171-1.361.024-.219-1.435-1.548-3.768-2.248-2.118-.635-4.062.364-4.175 1.359-.113.997 1.583 2.56 3.772 2.25zM149.551 87.158c.782 2.19 1.95 3.833 2.17 3.816.214-.016 1.232-1.714 1.448-4.14.2-2.202-1.164-3.91-2.162-3.819-1.002.087-2.194 2.06-1.456 4.143zM155.236 88.073c-1.798 1.476-2.948 3.139-2.859 3.336.095.196 2.033.578 4.395-.041 2.132-.561 3.274-2.428 2.852-3.339-.423-.908-2.688-1.361-4.388.044zM190.353 134.412c-2.051-1.107-4.02-1.542-4.166-1.383-.152.163.235 2.101 1.699 4.049 1.324 1.762 3.487 2.115 4.167 1.379.682-.736.242-3.001-1.7-4.045zM184.733 137.504c.676-2.229.711-4.245.525-4.361-.188-.111-2.01.654-3.629 2.474-1.467 1.65-1.379 3.839-.52 4.36.856.522 2.988-.358 3.624-2.473zM180.665 133.551c2.306-.327 4.15-1.143 4.172-1.361.026-.215-1.434-1.548-3.768-2.25-2.117-.633-4.064.366-4.174 1.36-.112.998 1.582 2.559 3.77 2.251zM183.353 127.731c.78 2.19 1.946 3.834 2.169 3.817.213-.017 1.231-1.716 1.451-4.141.197-2.203-1.168-3.91-2.166-3.819-1 .085-2.196 2.061-1.454 4.143zM189.035 128.649c-1.798 1.473-2.946 3.134-2.856 3.336.094.193 2.035.573 4.392-.044 2.135-.563 3.275-2.431 2.855-3.336-.425-.908-2.687-1.362-4.391.044zM171.624 29.099c-2.054-1.107-4.019-1.543-4.168-1.384-.15.16.237 2.1 1.7 4.05 1.326 1.76 3.488 2.115 4.166 1.376.683-.732.243-2.998-1.698-4.042zM166.005 32.191c.675-2.23.71-4.25.523-4.36-.187-.113-2.012.65-3.627 2.473-1.469 1.651-1.38 3.84-.522 4.36.856.52 2.988-.36 3.626-2.473zM161.936 28.236c2.305-.323 4.149-1.14 4.171-1.36.025-.217-1.434-1.549-3.77-2.25-2.113-.634-4.06.365-4.172 1.361-.112.998 1.584 2.562 3.771 2.25zM164.624 22.416c.78 2.19 1.946 3.835 2.169 3.818.212-.018 1.231-1.715 1.451-4.142.194-2.201-1.168-3.908-2.167-3.818-1 .086-2.195 2.061-1.453 4.142zM170.306 23.333c-1.799 1.475-2.949 3.139-2.857 3.337.094.195 2.033.572 4.393-.042 2.133-.562 3.275-2.43 2.852-3.339-.423-.907-2.684-1.36-4.388.044zM157.004 103.938c-2.053-1.107-4.021-1.542-4.168-1.383-.149.163.236 2.1 1.701 4.048 1.326 1.764 3.486 2.117 4.167 1.38.681-.736.24-2.999-1.7-4.045zM151.384 107.03c.675-2.23.709-4.248.523-4.358-.186-.114-2.011.65-3.627 2.473-1.467 1.649-1.379 3.839-.521 4.357.857.523 2.986-.357 3.625-2.472z" clip-rule="evenodd"/><path fill="#fff" fill-rule="evenodd" d="M147.315 103.077c2.307-.327 4.151-1.144 4.175-1.361.021-.215-1.439-1.548-3.768-2.247-2.116-.636-4.066.363-4.176 1.357-.112 1 1.581 2.562 3.769 2.251zM150.001 97.255c.783 2.193 1.95 3.836 2.171 3.818.213-.016 1.231-1.713 1.451-4.14.197-2.204-1.167-3.908-2.166-3.819-1.001.088-2.194 2.06-1.456 4.141zM155.685 98.175c-1.797 1.473-2.948 3.137-2.856 3.336.096.193 2.033.572 4.393-.044 2.135-.559 3.275-2.427 2.854-3.336-.423-.908-2.687-1.362-4.391.044zM150.964 124.263c-2.051-1.106-4.019-1.541-4.167-1.382-.151.162.235 2.1 1.7 4.048 1.324 1.761 3.488 2.116 4.167 1.38.681-.735.244-3-1.7-4.046zM145.345 127.357c.676-2.231.709-4.247.524-4.36-.188-.113-2.015.649-3.628 2.472-1.467 1.651-1.381 3.839-.523 4.361.856.52 2.988-.361 3.627-2.473zM141.275 123.4c2.305-.323 4.15-1.141 4.174-1.359.023-.216-1.436-1.548-3.769-2.249-2.119-.633-4.063.365-4.175 1.36-.11.997 1.584 2.559 3.77 2.248zM143.965 117.582c.78 2.19 1.946 3.835 2.166 3.818.214-.019 1.231-1.715 1.451-4.142.197-2.202-1.165-3.908-2.165-3.818-1.002.088-2.194 2.061-1.452 4.142zM149.648 118.499c-1.798 1.476-2.949 3.137-2.86 3.339.098.193 2.035.573 4.395-.046 2.132-.56 3.276-2.426 2.852-3.334-.424-.91-2.684-1.363-4.387.041zM116.583 68.677c-2.016.001-3.691.477-3.738.66-.049.186 1.043 1.501 2.956 2.382 1.735.796 3.523.175 3.736-.668.216-.836-1.049-2.381-2.954-2.374zM113.581 73.34c-.405-1.974-1.208-3.523-1.394-3.531-.187-.012-1.263 1.32-1.744 3.372-.438 1.856.528 3.487 1.396 3.53.865.044 2.124-1.504 1.742-3.371zM108.86 72.005c1.619-1.196 2.687-2.578 2.616-2.752-.072-.175-1.728-.588-3.792-.164-1.869.39-2.941 1.95-2.616 2.753.324.804 2.256 1.296 3.792.163zM108.512 66.471c1.494 1.344 3.059 2.117 3.218 2.015.156-.104.232-1.812-.598-3.75-.756-1.752-2.494-2.493-3.217-2.016-.725.479-.82 2.472.597 3.751zM113.212 64.832c-.76 1.861-.954 3.6-.802 3.712.154.112 1.78-.399 3.324-1.839 1.394-1.3 1.495-3.19.798-3.708-.694-.517-2.603.07-3.32 1.835zM121.628 59.691c-2.016.001-3.692.477-3.738.663-.049.184 1.04 1.497 2.956 2.378 1.734.798 3.523.178 3.735-.664.217-.837-1.048-2.382-2.953-2.377z" clip-rule="evenodd"/><path fill="#fff" fill-rule="evenodd" d="M118.626 64.353c-.405-1.972-1.205-3.523-1.396-3.531-.188-.01-1.262 1.321-1.744 3.373-.436 1.856.53 3.486 1.396 3.53.868.044 2.126-1.503 1.744-3.372zM113.904 63.02c1.616-1.197 2.687-2.578 2.614-2.753-.071-.173-1.727-.588-3.791-.162-1.871.388-2.94 1.946-2.616 2.75.325.806 2.257 1.299 3.793.164zM113.554 57.487c1.496 1.344 3.061 2.117 3.219 2.012.156-.102.233-1.812-.6-3.748-.752-1.752-2.491-2.492-3.214-2.015-.725.477-.821 2.47.595 3.75zM118.257 55.846c-.76 1.863-.952 3.6-.803 3.713.155.111 1.781-.398 3.327-1.84 1.39-1.301 1.493-3.192.794-3.709-.694-.516-2.602.07-3.318 1.836zM130.243 37.472c-2.014.003-3.69.478-3.737.66-.047.186 1.041 1.503 2.957 2.382 1.734.794 3.523.176 3.736-.666.216-.838-1.048-2.382-2.956-2.376zM127.243 42.134c-.408-1.975-1.208-3.522-1.397-3.53-.187-.012-1.261 1.32-1.741 3.371-.435 1.856.528 3.487 1.394 3.53.867.045 2.126-1.502 1.744-3.371zM122.523 40.8c1.618-1.197 2.686-2.577 2.612-2.75-.069-.178-1.725-.59-3.792-.164-1.869.386-2.938 1.948-2.613 2.752.327.804 2.255 1.296 3.793.161zM122.175 35.267c1.496 1.344 3.058 2.117 3.216 2.014.157-.102.233-1.812-.598-3.75-.753-1.752-2.493-2.492-3.217-2.014-.721.478-.819 2.47.599 3.75zM126.874 33.626c-.76 1.863-.952 3.601-.803 3.713.155.112 1.781-.4 3.324-1.838 1.392-1.3 1.495-3.191.797-3.71-.694-.518-2.602.07-3.318 1.835zM136.083 31.306c-2.014.002-3.689.478-3.74.661-.045.185 1.043 1.501 2.959 2.381 1.735.796 3.523.178 3.737-.665.216-.837-1.05-2.381-2.956-2.377z" clip-rule="evenodd"/><path fill="#fff" fill-rule="evenodd" d="M133.081 35.968c-.404-1.973-1.207-3.524-1.395-3.529-.187-.012-1.264 1.32-1.744 3.37-.435 1.857.531 3.486 1.396 3.529.867.045 2.125-1.502 1.743-3.37zM128.361 34.634c1.618-1.196 2.686-2.576 2.613-2.75-.071-.176-1.727-.588-3.792-.165-1.869.388-2.937 1.948-2.615 2.752.326.805 2.258 1.297 3.794.163zM128.012 29.1c1.496 1.344 3.06 2.118 3.218 2.016.156-.103.232-1.812-.601-3.75-.751-1.753-2.491-2.493-3.215-2.015-.722.477-.82 2.47.598 3.749zM132.712 27.46c-.757 1.865-.952 3.6-.804 3.714.158.112 1.784-.401 3.326-1.839 1.393-1.301 1.494-3.192.798-3.71-.696-.516-2.604.072-3.32 1.836zM144.699 25.03c-2.016.004-3.689.478-3.74.662-.045.184 1.043 1.502 2.959 2.38 1.735.796 3.523.176 3.735-.664.217-.84-1.048-2.382-2.954-2.378zM141.698 29.692c-.405-1.974-1.208-3.521-1.396-3.53-.188-.012-1.263 1.32-1.743 3.373-.437 1.855.53 3.487 1.395 3.528.868.044 2.125-1.503 1.744-3.37z" clip-rule="evenodd"/><path fill="#fff" fill-rule="evenodd" d="M136.977 28.356c1.618-1.196 2.685-2.576 2.613-2.749-.069-.175-1.727-.59-3.791-.161-1.868.386-2.94 1.944-2.614 2.75.324.803 2.256 1.296 3.792.16zM136.626 22.826c1.496 1.344 3.062 2.115 3.219 2.012.155-.104.233-1.812-.597-3.748-.755-1.754-2.494-2.493-3.215-2.014-.725.477-.823 2.47.593 3.75zM141.328 21.184c-.76 1.863-.953 3.6-.804 3.712.156.114 1.783-.397 3.325-1.835 1.394-1.305 1.496-3.194.799-3.711-.696-.516-2.603.07-3.32 1.834z" clip-rule="evenodd"/><path fill="#fff" fill-rule="evenodd" d="M136.977 28.356c-2.014.004-3.691.48-3.74.664-.048.186 1.044 1.5 2.958 2.38 1.735.795 3.523.176 3.735-.665.217-.841-1.048-2.38-2.953-2.379zM133.974 33.02c-.404-1.974-1.204-3.523-1.395-3.53-.188-.01-1.261 1.319-1.744 3.372-.436 1.856.53 3.487 1.398 3.53.866.043 2.124-1.503 1.741-3.373zM129.253 31.686c1.622-1.196 2.688-2.575 2.614-2.75-.07-.177-1.726-.589-3.792-.163-1.868.386-2.937 1.948-2.614 2.749.325.805 2.257 1.299 3.792.164zM128.905 26.152c1.495 1.344 3.061 2.119 3.219 2.013.154-.101.23-1.809-.602-3.748-.75-1.753-2.489-2.492-3.214-2.013-.726.479-.82 2.47.597 3.748zM133.606 24.514c-.76 1.863-.952 3.599-.802 3.712.155.112 1.78-.4 3.322-1.837 1.394-1.302 1.494-3.194.798-3.711-.694-.517-2.601.07-3.318 1.836zM154.682 22.066c-2.018.003-3.69.477-3.742.661-.046.184 1.046 1.502 2.962 2.38 1.734.795 3.522.176 3.735-.664.217-.84-1.048-2.381-2.955-2.377zM151.678 26.727c-.402-1.973-1.206-3.52-1.393-3.53-.188-.012-1.264 1.321-1.744 3.372-.435 1.855.531 3.486 1.395 3.53.868.044 2.125-1.503 1.742-3.372zM146.96 25.393c1.617-1.195 2.686-2.575 2.614-2.75-.07-.173-1.728-.59-3.792-.162-1.87.385-2.938 1.945-2.616 2.75.326.803 2.258 1.296 3.794.162zM146.611 19.862c1.496 1.344 3.061 2.116 3.218 2.012.155-.103.234-1.81-.6-3.747-.752-1.755-2.492-2.495-3.216-2.016-.725.48-.82 2.47.598 3.75zM151.309 18.222c-.759 1.862-.95 3.599-.8 3.71.156.113 1.782-.398 3.324-1.836 1.393-1.303 1.494-3.194.797-3.71-.695-.518-2.601.07-3.321 1.836zM161.547 17.78c-2.015.003-3.692.48-3.737.663-.05.183 1.04 1.5 2.956 2.382 1.733.794 3.522.173 3.734-.667.218-.837-1.048-2.381-2.953-2.377z" clip-rule="evenodd"/><path fill="#fff" fill-rule="evenodd" d="M158.546 22.442c-.406-1.973-1.207-3.522-1.395-3.529-.188-.012-1.265 1.32-1.744 3.375-.437 1.854.529 3.485 1.396 3.526.865.044 2.124-1.504 1.743-3.372zM153.824 21.109c1.619-1.196 2.687-2.576 2.614-2.75-.071-.174-1.728-.59-3.791-.163-1.871.389-2.94 1.945-2.615 2.75.324.803 2.256 1.299 3.792.163zM153.474 15.576c1.496 1.344 3.061 2.115 3.217 2.014.156-.104.235-1.81-.598-3.748-.752-1.755-2.491-2.495-3.212-2.015-.726.479-.823 2.47.593 3.75zM158.176 13.938c-.76 1.862-.954 3.598-.803 3.708.155.114 1.781-.396 3.327-1.834 1.39-1.304 1.493-3.192.796-3.71-.695-.516-2.604.068-3.32 1.836zM120.187 82.114c-2.018.002-3.69.476-3.742.658-.047.187 1.046 1.502 2.961 2.383 1.733.795 3.52.175 3.733-.667.218-.837-1.048-2.382-2.952-2.374zM117.183 86.774c-.404-1.972-1.204-3.523-1.393-3.53-.188-.012-1.263 1.32-1.744 3.371-.435 1.855.529 3.485 1.394 3.53.868.045 2.127-1.5 1.743-3.371zM112.463 85.44c1.62-1.196 2.687-2.576 2.613-2.753-.07-.173-1.725-.587-3.79-.161-1.87.39-2.939 1.946-2.615 2.752.323.804 2.255 1.296 3.792.162zM112.115 79.907c1.496 1.344 3.06 2.118 3.218 2.016.156-.104.232-1.811-.6-3.751-.751-1.753-2.492-2.493-3.215-2.015-.725.479-.821 2.47.597 3.75zM116.813 78.266c-.76 1.862-.949 3.6-.801 3.715.155.11 1.783-.4 3.325-1.84 1.392-1.302 1.494-3.19.799-3.709-.697-.518-2.601.07-3.323 1.834zM181.185 14.354c-2.015.002-3.688.478-3.74.662-.044.184 1.045 1.5 2.961 2.38 1.735.798 3.522.175 3.736-.665.215-.84-1.05-2.381-2.957-2.377zM178.184 19.015c-.402-1.972-1.207-3.521-1.394-3.53-.189-.01-1.262 1.32-1.745 3.373-.436 1.856.531 3.486 1.396 3.53.867.043 2.125-1.505 1.743-3.373zM173.464 17.682c1.618-1.196 2.686-2.577 2.616-2.75-.072-.174-1.728-.591-3.791-.164-1.871.387-2.94 1.948-2.62 2.75.328.804 2.259 1.3 3.795.164zM173.116 12.15c1.493 1.343 3.059 2.115 3.216 2.011.157-.101.233-1.809-.597-3.746-.754-1.755-2.494-2.495-3.216-2.015-.726.479-.823 2.47.597 3.75zM177.815 10.511c-.76 1.862-.953 3.598-.801 3.711.153.113 1.78-.4 3.322-1.84 1.396-1.299 1.495-3.19.799-3.708-.696-.516-2.601.07-3.32 1.837zM189.352 18.661c-2.014.004-3.69.477-3.738.661-.046.186 1.043 1.503 2.96 2.38 1.732.798 3.52.178 3.735-.664.216-.838-1.049-2.382-2.957-2.377zM186.352 23.321c-.406-1.972-1.206-3.518-1.396-3.528-.188-.01-1.263 1.322-1.743 3.372-.435 1.856.531 3.488 1.395 3.53.869.042 2.125-1.503 1.744-3.374z" clip-rule="evenodd"/><path fill="#fff" fill-rule="evenodd" d="M181.63 21.988c1.62-1.195 2.69-2.575 2.614-2.75-.071-.174-1.726-.589-3.791-.162-1.868.387-2.94 1.947-2.615 2.75.327.805 2.258 1.298 3.792.162zM181.283 16.455c1.496 1.344 3.058 2.119 3.217 2.015.156-.103.232-1.813-.599-3.748-.754-1.755-2.49-2.493-3.216-2.017-.724.478-.82 2.472.598 3.75zM185.982 14.816c-.76 1.861-.951 3.599-.802 3.713.155.112 1.783-.4 3.324-1.838 1.394-1.303 1.495-3.192.798-3.711-.696-.516-2.603.07-3.32 1.836zM197.809 10.601c-2.016.003-3.69.482-3.74.664-.048.183 1.044 1.5 2.957 2.38 1.737.795 3.524.175 3.737-.665.216-.84-1.05-2.383-2.954-2.379zM194.806 15.264c-.405-1.975-1.205-3.523-1.395-3.53-.188-.01-1.264 1.32-1.744 3.371-.434 1.858.53 3.49 1.398 3.53.866.045 2.124-1.502 1.741-3.371z" clip-rule="evenodd"/><path fill="#fff" fill-rule="evenodd" d="M190.086 13.93c1.62-1.195 2.685-2.577 2.613-2.751-.072-.175-1.725-.588-3.792-.163-1.868.39-2.937 1.947-2.614 2.75.325.806 2.257 1.3 3.793.163zM189.734 8.398c1.499 1.344 3.062 2.117 3.22 2.012.156-.1.232-1.81-.6-3.75-.75-1.751-2.489-2.49-3.212-2.013-.725.48-.824 2.471.592 3.751zM194.437 6.759c-.76 1.861-.952 3.598-.801 3.712.155.11 1.78-.399 3.323-1.838 1.393-1.302 1.494-3.194.798-3.709-.694-.517-2.602.067-3.32 1.835zM201.725 20.026c-2.017.004-3.693.477-3.741.661-.047.185 1.043 1.503 2.961 2.381 1.731.795 3.52.176 3.734-.664.217-.84-1.046-2.381-2.954-2.378zM198.72 24.688c-.401-1.974-1.203-3.522-1.392-3.529-.189-.012-1.264 1.319-1.744 3.37-.436 1.857.529 3.487 1.396 3.53.865.045 2.124-1.503 1.74-3.37zM194.001 23.354c1.619-1.196 2.69-2.576 2.616-2.75-.072-.177-1.729-.59-3.792-.162-1.869.385-2.94 1.946-2.614 2.75.324.803 2.257 1.296 3.79.162zM193.654 17.821c1.494 1.344 3.058 2.118 3.217 2.014.153-.103.233-1.811-.597-3.75-.754-1.752-2.495-2.492-3.216-2.014-.724.48-.822 2.47.596 3.75zM198.352 16.182c-.76 1.864-.952 3.6-.8 3.712.152.11 1.782-.4 3.324-1.837 1.393-1.303 1.494-3.194.797-3.711-.693-.517-2.603.07-3.321 1.836zM208.999 17.191c-2.015.004-3.69.48-3.739.663-.045.184 1.044 1.5 2.959 2.381 1.734.795 3.522.176 3.736-.665.217-.839-1.05-2.382-2.956-2.379z" clip-rule="evenodd"/><path fill="#fff" fill-rule="evenodd" d="M205.996 21.855c-.403-1.972-1.205-3.524-1.393-3.532-.188-.01-1.264 1.321-1.744 3.375-.436 1.854.529 3.485 1.397 3.53.865.042 2.124-1.505 1.74-3.373zM201.277 20.522c1.619-1.198 2.687-2.578 2.614-2.752-.07-.175-1.726-.59-3.792-.164-1.867.39-2.94 1.948-2.615 2.75.325.804 2.257 1.3 3.793.166zM200.927 14.988c1.496 1.345 3.061 2.117 3.217 2.013.158-.101.234-1.812-.597-3.746-.753-1.756-2.492-2.495-3.215-2.018-.724.479-.822 2.47.595 3.75zM205.629 13.349c-.76 1.86-.953 3.597-.8 3.712.152.113 1.779-.4 3.321-1.84 1.394-1.3 1.496-3.194.799-3.708-.696-.516-2.603.069-3.32 1.836zM218.645 15.467c-2.014.003-3.688.479-3.738.661-.046.184 1.043 1.503 2.96 2.382 1.734.794 3.519.176 3.736-.666.214-.838-1.049-2.38-2.958-2.377zM215.645 20.129c-.404-1.974-1.207-3.522-1.396-3.53-.187-.012-1.262 1.322-1.743 3.37-.436 1.857.531 3.489 1.395 3.532.868.045 2.125-1.503 1.744-3.372zM210.923 18.794c1.62-1.195 2.69-2.575 2.616-2.75-.069-.176-1.726-.589-3.793-.162-1.868.385-2.936 1.946-2.615 2.75.327.804 2.256 1.298 3.792.162zM210.575 13.263c1.495 1.344 3.059 2.116 3.218 2.014.157-.104.232-1.812-.598-3.75-.754-1.754-2.494-2.492-3.217-2.015-.723.48-.82 2.47.597 3.75zM215.273 11.625c-.758 1.861-.949 3.597-.797 3.709.151.113 1.777-.397 3.321-1.837 1.394-1.302 1.494-3.192.798-3.708-.694-.52-2.602.068-3.322 1.836zM225.922 22.066c-2.016.003-3.691.477-3.74.661-.044.184 1.045 1.502 2.96 2.38 1.733.795 3.521.176 3.736-.664.216-.84-1.049-2.381-2.956-2.377zM222.921 26.727c-.404-1.973-1.207-3.52-1.396-3.53-.188-.012-1.264 1.321-1.743 3.372-.436 1.855.531 3.486 1.395 3.53.869.044 2.125-1.503 1.744-3.372zM218.199 25.393c1.619-1.195 2.688-2.575 2.615-2.75-.071-.173-1.727-.59-3.792-.162-1.869.385-2.939 1.945-2.613 2.75.325.803 2.254 1.296 3.79.162z" clip-rule="evenodd"/><path fill="#fff" fill-rule="evenodd" d="M217.852 19.862c1.494 1.344 3.058 2.116 3.217 2.012.155-.103.233-1.81-.599-3.747-.752-1.755-2.493-2.495-3.216-2.016-.724.48-.821 2.47.598 3.75zM222.551 18.222c-.76 1.862-.951 3.599-.802 3.71.155.113 1.782-.398 3.323-1.836 1.393-1.303 1.496-3.194.799-3.71-.695-.518-2.603.07-3.32 1.836zM222.561 27.308c-2.014.003-3.689.48-3.737.663-.048.184 1.041 1.499 2.957 2.38 1.736.796 3.522.175 3.735-.665.217-.84-1.048-2.383-2.955-2.378zM219.559 31.971c-.404-1.975-1.203-3.523-1.395-3.53-.188-.013-1.263 1.32-1.743 3.373-.436 1.854.53 3.485 1.396 3.526.87.047 2.126-1.501 1.742-3.369zM214.839 30.635c1.621-1.196 2.688-2.576 2.613-2.75-.069-.174-1.727-.587-3.791-.162-1.866.39-2.938 1.947-2.613 2.75.324.803 2.256 1.298 3.791.162zM214.49 25.104c1.496 1.344 3.061 2.117 3.22 2.012.154-.102.229-1.81-.602-3.748-.752-1.754-2.489-2.494-3.213-2.015-.725.48-.823 2.472.595 3.75z" clip-rule="evenodd"/><path fill="#fff" fill-rule="evenodd" d="M219.19 23.463c-.76 1.863-.952 3.6-.8 3.713.153.11 1.779-.398 3.323-1.837 1.393-1.304 1.496-3.193.797-3.71-.693-.515-2.603.069-3.32 1.834zM228.294 32.041c-2.017.004-3.692.479-3.742.663-.044.184 1.045 1.501 2.961 2.38 1.733.797 3.521.177 3.735-.665.218-.838-1.047-2.382-2.954-2.378zM225.289 36.704c-.401-1.972-1.201-3.52-1.392-3.532-.189-.008-1.263 1.323-1.745 3.375-.435 1.856.532 3.485 1.397 3.529.865.043 2.125-1.503 1.74-3.372zM220.572 35.37c1.618-1.195 2.686-2.575 2.614-2.751-.072-.174-1.728-.588-3.792-.163-1.872.39-2.938 1.948-2.617 2.75.325.805 2.257 1.3 3.795.165z" clip-rule="evenodd"/><path fill="#fff" fill-rule="evenodd" d="M220.223 29.837c1.494 1.344 3.06 2.119 3.217 2.016.156-.104.233-1.814-.6-3.75-.749-1.754-2.492-2.494-3.213-2.016-.726.48-.823 2.471.596 3.75zM224.922 28.198c-.76 1.86-.952 3.598-.801 3.713.154.112 1.781-.4 3.324-1.839 1.392-1.302 1.494-3.19.798-3.71-.696-.516-2.602.069-3.321 1.836z" clip-rule="evenodd"/><path fill="#fff" fill-rule="evenodd" d="M227.483 22.802c-2.013.002-3.691.478-3.736.661-.045.185 1.041 1.501 2.959 2.383 1.73.793 3.52.174 3.734-.667.216-.839-1.049-2.381-2.957-2.377zM224.483 27.464c-.405-1.972-1.205-3.522-1.397-3.53-.187-.012-1.262 1.32-1.74 3.373-.436 1.855.528 3.485 1.394 3.528.868.045 2.127-1.503 1.743-3.37zM219.763 26.129c1.617-1.195 2.685-2.576 2.615-2.75-.07-.174-1.728-.59-3.791-.162-1.871.389-2.941 1.945-2.616 2.75.325.804 2.257 1.298 3.792.162zM219.414 20.599c1.496 1.344 3.059 2.114 3.217 2.012.156-.102.232-1.81-.598-3.748-.752-1.755-2.494-2.494-3.216-2.016-.723.48-.82 2.472.597 3.752zM224.113 18.955c-.758 1.864-.95 3.602-.8 3.716.152.111 1.78-.4 3.324-1.84 1.392-1.3 1.494-3.192.798-3.708-.698-.517-2.604.068-3.322 1.832zM158.874 77.545c-2.014 0-3.69.476-3.738.66-.049.185 1.043 1.5 2.958 2.38 1.733.796 3.521.174 3.737-.664.213-.84-1.051-2.382-2.957-2.376zM155.871 82.207c-.404-1.974-1.207-3.525-1.395-3.53-.185-.011-1.262 1.32-1.744 3.372-.436 1.854.53 3.485 1.4 3.526.863.047 2.123-1.5 1.739-3.368zM151.151 80.87c1.62-1.195 2.687-2.576 2.613-2.75-.066-.174-1.724-.586-3.79-.162-1.868.388-2.94 1.947-2.615 2.75.327.805 2.257 1.3 3.792.162zM150.803 75.338c1.494 1.344 3.059 2.118 3.216 2.016.156-.103.234-1.815-.597-3.751-.755-1.753-2.492-2.49-3.216-2.015-.724.478-.82 2.47.597 3.75zM155.503 73.7c-.76 1.86-.954 3.599-.8 3.712.152.112 1.778-.401 3.324-1.839 1.393-1.303 1.493-3.193.796-3.711-.692-.516-2.603.07-3.32 1.838zM169.069 66.962c-2.016.001-3.691.477-3.74.659-.045.186 1.044 1.502 2.961 2.384 1.732.793 3.518.174 3.735-.666.215-.84-1.048-2.381-2.956-2.377zM166.066 71.623c-.405-1.973-1.205-3.521-1.394-3.529-.188-.012-1.263 1.32-1.743 3.372-.435 1.855.529 3.487 1.393 3.53.868.04 2.128-1.505 1.744-3.373zM161.348 70.289c1.618-1.196 2.686-2.576 2.613-2.751-.069-.173-1.725-.588-3.793-.161-1.868.386-2.939 1.945-2.612 2.75.324.803 2.254 1.298 3.792.162zM160.997 64.757c1.498 1.344 3.059 2.117 3.219 2.014.156-.104.233-1.812-.597-3.75-.755-1.753-2.496-2.493-3.219-2.014-.723.477-.82 2.47.597 3.75zM165.695 63.117c-.76 1.863-.949 3.599-.798 3.712.152.112 1.781-.397 3.324-1.84 1.392-1.3 1.493-3.19.797-3.708-.695-.517-2.604.07-3.323 1.836zM145.711 129.729c-2.013.003-3.689.478-3.737.663-.047.183 1.042 1.499 2.96 2.379 1.732.796 3.52.177 3.733-.666.217-.837-1.048-2.381-2.956-2.376zM142.711 134.391c-.405-1.973-1.205-3.523-1.396-3.528-.188-.015-1.263 1.317-1.743 3.371-.434 1.856.531 3.488 1.395 3.528.869.044 2.125-1.502 1.744-3.371zM137.99 133.056c1.618-1.196 2.688-2.577 2.616-2.75-.074-.175-1.728-.588-3.794-.163-1.87.389-2.938 1.945-2.616 2.752.328.803 2.258 1.299 3.794.161zM137.642 127.524c1.496 1.344 3.059 2.116 3.217 2.013.156-.104.232-1.811-.598-3.748-.752-1.753-2.492-2.495-3.216-2.015-.724.479-.82 2.474.597 3.75zM142.341 125.884c-.76 1.862-.95 3.6-.801 3.711.155.113 1.781-.396 3.323-1.835 1.393-1.304 1.496-3.194.798-3.713-.696-.515-2.602.072-3.32 1.837zM178.516 70.713c-2.018.003-3.691.48-3.742.664-.045.182 1.046 1.499 2.962 2.379 1.733.796 3.518.173 3.734-.664.215-.841-1.048-2.381-2.954-2.379zM175.512 75.377c-.404-1.974-1.206-3.523-1.394-3.532-.188-.012-1.264 1.32-1.744 3.373-.434 1.856.532 3.485 1.395 3.53.868.043 2.125-1.505 1.743-3.371zM170.792 74.043c1.618-1.198 2.689-2.578 2.614-2.751-.072-.175-1.726-.59-3.792-.164-1.869.387-2.937 1.945-2.614 2.75.325.806 2.257 1.3 3.792.165z" clip-rule="evenodd"/><path fill="#fff" fill-rule="evenodd" d="M170.444 68.509c1.496 1.344 3.059 2.116 3.219 2.013.154-.101.232-1.81-.6-3.748-.754-1.753-2.492-2.495-3.216-2.015-.724.479-.82 2.471.597 3.75zM175.142 66.87c-.759 1.863-.949 3.598-.8 3.711.153.114 1.783-.398 3.324-1.838 1.393-1.303 1.493-3.192.796-3.708-.695-.518-2.603.068-3.32 1.836zM185.862 70.644c-2.008-.184-3.72.137-3.785.313-.064.18.9 1.594 2.728 2.646 1.65.953 3.486.5 3.78-.317.292-.817-.826-2.47-2.723-2.642zM182.441 75.008c-.221-2.001-.876-3.616-1.061-3.642-.188-.027-1.381 1.198-2.049 3.197-.606 1.81.204 3.522 1.065 3.644.857.123 2.255-1.303 2.045-3.199zM177.863 73.243c1.726-1.037 2.914-2.313 2.859-2.496-.053-.179-1.665-.745-3.763-.51-1.896.214-3.106 1.666-2.854 2.498.248.83 2.124 1.499 3.758.508z" clip-rule="evenodd"/><path fill="#fff" fill-rule="evenodd" d="M178.026 67.704c1.364 1.476 2.853 2.39 3.02 2.303.167-.088.397-1.783-.252-3.788-.587-1.818-2.249-2.714-3.015-2.303-.765.408-1.046 2.383.247 3.788zM182.859 66.505c-.929 1.787-1.281 3.496-1.14 3.624.14.125 1.808-.234 3.478-1.524 1.509-1.17 1.782-3.041 1.134-3.621-.642-.576-2.594-.171-3.472 1.52zM124.241 47.047c-2.016.004-3.689.48-3.741.662-.046.184 1.044 1.5 2.96 2.38 1.734.796 3.521.178 3.736-.665.216-.84-1.05-2.381-2.955-2.377zM121.24 51.708c-.406-1.972-1.206-3.521-1.396-3.53-.188-.01-1.264 1.322-1.743 3.373-.437 1.856.527 3.486 1.396 3.529.865.044 2.123-1.503 1.743-3.372zM116.516 50.375c1.62-1.195 2.688-2.578 2.614-2.751-.068-.175-1.724-.588-3.79-.163-1.869.39-2.938 1.948-2.616 2.751.324.805 2.258 1.297 3.792.163zM116.167 44.842c1.498 1.344 3.062 2.117 3.222 2.013.154-.101.23-1.81-.603-3.749-.749-1.753-2.491-2.49-3.213-2.013-.726.478-.823 2.47.594 3.749zM120.87 43.204c-.762 1.861-.954 3.597-.802 3.71.152.114 1.78-.398 3.323-1.837 1.392-1.301 1.495-3.194.799-3.709-.695-.519-2.603.07-3.32 1.836zM193.861 72.876c-1.924-.595-3.668-.639-3.768-.476-.099.159.549 1.74 2.12 3.15 1.418 1.273 3.309 1.214 3.764.473.454-.738-.294-2.584-2.116-3.147zM189.609 76.438c.198-2.006-.105-3.724-.284-3.784-.176-.07-1.598.884-2.664 2.701-.968 1.641-.532 3.488.286 3.784.812.299 2.473-.804 2.662-2.701zM185.497 73.76c1.902-.66 3.331-1.66 3.314-1.85-.014-.186-1.475-1.073-3.572-1.28-1.9-.185-3.384.986-3.315 1.85.073.864 1.769 1.908 3.573 1.28z" clip-rule="evenodd"/><path fill="#fff" fill-rule="evenodd" d="M186.806 68.373c1.031 1.73 2.293 2.931 2.475 2.879.182-.053.761-1.659.544-3.757-.199-1.898-1.64-3.12-2.475-2.879-.835.241-1.516 2.116-.544 3.757zM191.779 68.204c-1.278 1.552-1.974 3.153-1.863 3.307.112.153 1.819.148 3.719-.768 1.716-.831 2.372-2.607 1.862-3.307-.51-.699-2.505-.705-3.718.768zM201.119 72.802c-2.016.004-3.691.48-3.74.661-.047.185 1.042 1.504 2.958 2.384 1.734.793 3.52.173 3.736-.667.216-.84-1.049-2.384-2.954-2.378zM198.116 77.466c-.405-1.976-1.205-3.522-1.395-3.533-.188-.01-1.264 1.321-1.742 3.375-.436 1.854.528 3.486 1.396 3.528.866.046 2.121-1.503 1.741-3.37zM193.396 76.13c1.62-1.194 2.685-2.574 2.612-2.751-.071-.174-1.727-.587-3.791-.163-1.866.39-2.94 1.948-2.613 2.752.324.804 2.255 1.297 3.792.163z" clip-rule="evenodd"/><path fill="#fff" fill-rule="evenodd" d="M193.046 70.599c1.497 1.344 3.06 2.114 3.217 2.013.157-.104.235-1.81-.597-3.75-.754-1.753-2.494-2.493-3.216-2.014-.724.479-.822 2.472.596 3.75zM197.745 68.955c-.76 1.866-.95 3.603-.8 3.716.153.11 1.781-.4 3.325-1.838 1.392-1.303 1.492-3.192.795-3.708-.692-.518-2.6.066-3.32 1.83zM205.639 65.277c-2.016.001-3.689.48-3.738.663-.046.182 1.044 1.5 2.958 2.38 1.735.794 3.52.174 3.738-.667.214-.839-1.052-2.38-2.958-2.376z" clip-rule="evenodd"/><path fill="#fff" fill-rule="evenodd" d="M202.639 69.94c-.405-1.974-1.208-3.524-1.396-3.53-.188-.01-1.261 1.32-1.742 3.372-.436 1.855.528 3.486 1.394 3.528.867.044 2.123-1.5 1.744-3.37zM197.917 68.605c1.621-1.195 2.688-2.576 2.616-2.75-.071-.175-1.726-.587-3.792-.165-1.87.39-2.939 1.947-2.616 2.752.325.806 2.257 1.3 3.792.163zM197.569 63.071c1.496 1.344 3.057 2.119 3.219 2.015.157-.101.232-1.81-.599-3.748-.755-1.755-2.493-2.493-3.216-2.016-.724.479-.821 2.47.596 3.75zM202.268 61.433c-.761 1.862-.952 3.599-.8 3.714.154.108 1.78-.402 3.323-1.84 1.395-1.302 1.493-3.191.799-3.708-.695-.518-2.603.066-3.322 1.834zM203.195 88.805c-1.96-.464-3.7-.385-3.79-.217-.088.166.668 1.7 2.33 2.998 1.503 1.172 3.386.982 3.787.212.405-.765-.469-2.557-2.327-2.993zM199.201 92.647c.062-2.012-.363-3.702-.543-3.754-.181-.055-1.535.992-2.475 2.881-.853 1.704-.29 3.512.546 3.752.833.244 2.413-.97 2.472-2.879zM194.915 90.262c1.851-.79 3.206-1.887 3.179-2.072-.029-.185-1.545-.97-3.651-1.032-1.91-.055-3.31 1.217-3.18 2.072.128.857 1.894 1.783 3.652 1.032zM195.85 84.798c1.146 1.654 2.491 2.767 2.667 2.702.177-.064.644-1.71.281-3.786-.328-1.88-1.852-3-2.664-2.702-.814.298-1.368 2.214-.284 3.786zM200.802 84.288c-1.169 1.635-1.756 3.281-1.636 3.425.124.147 1.827.024 3.659-1.021 1.657-.945 2.189-2.764 1.63-3.427-.558-.661-2.546-.53-3.653 1.023z" clip-rule="evenodd"/><path fill="#fff" fill-rule="evenodd" d="M204.836 81.56c-2.016.003-3.688.48-3.74.663-.045.184 1.045 1.502 2.959 2.379 1.736.795 3.522.177 3.738-.665.214-.838-1.052-2.38-2.957-2.377zM201.835 86.224c-.404-1.974-1.208-3.525-1.394-3.53-.188-.011-1.264 1.32-1.745 3.369-.437 1.857.529 3.487 1.396 3.532.867.044 2.124-1.503 1.743-3.37zM197.113 84.888c1.62-1.196 2.687-2.576 2.615-2.75-.071-.172-1.725-.588-3.792-.163-1.868.39-2.939 1.947-2.616 2.75.325.807 2.257 1.3 3.793.163zM196.766 79.358c1.493 1.344 3.06 2.115 3.217 2.012.156-.101.232-1.813-.599-3.748-.752-1.754-2.492-2.493-3.216-2.014-.725.476-.82 2.466.598 3.75zM201.465 77.715c-.76 1.861-.951 3.6-.802 3.713.155.112 1.78-.398 3.323-1.837 1.395-1.304 1.495-3.192.8-3.712-.696-.513-2.601.072-3.321 1.836zM206.81 70.071c-2.016.003-3.691.479-3.74.662-.047.185 1.044 1.5 2.957 2.38 1.736.796 3.522.177 3.738-.664.216-.842-1.048-2.383-2.955-2.378z" clip-rule="evenodd"/><path fill="#fff" fill-rule="evenodd" d="M203.807 74.733c-.401-1.974-1.205-3.521-1.393-3.53-.189-.012-1.264 1.318-1.744 3.373-.436 1.856.528 3.488 1.395 3.528.868.045 2.124-1.5 1.742-3.37zM199.087 73.4c1.618-1.198 2.687-2.578 2.615-2.751-.071-.175-1.728-.591-3.791-.163-1.87.387-2.941 1.945-2.617 2.75.325.802 2.257 1.3 3.793.163zM198.738 67.867c1.496 1.344 3.059 2.117 3.22 2.012.155-.102.23-1.812-.6-3.748-.754-1.752-2.493-2.493-3.216-2.015-.724.479-.821 2.47.596 3.75zM203.436 66.226c-.76 1.863-.949 3.6-.797 3.713.149.111 1.78-.4 3.32-1.837 1.394-1.305 1.494-3.193.798-3.71-.692-.518-2.601.069-3.321 1.834zM176.299 25.381c-2.016.007-3.69.48-3.738.664-.048.184 1.041 1.501 2.957 2.379 1.733.797 3.523.177 3.735-.664.217-.839-1.047-2.382-2.954-2.379zM173.296 30.045c-.406-1.973-1.206-3.521-1.395-3.53-.188-.011-1.261 1.32-1.741 3.372-.438 1.857.529 3.488 1.394 3.529.867.044 2.126-1.501 1.742-3.37zM168.578 28.71c1.619-1.194 2.685-2.574 2.612-2.75-.071-.173-1.727-.588-3.793-.163-1.866.388-2.938 1.947-2.612 2.752.325.804 2.256 1.298 3.793.162zM168.228 23.18c1.495 1.343 3.06 2.115 3.217 2.013.158-.103.234-1.812-.597-3.75-.753-1.752-2.493-2.493-3.217-2.014-.723.476-.82 2.472.597 3.75zM172.927 21.539c-.759 1.862-.952 3.597-.8 3.713.153.11 1.78-.399 3.323-1.84 1.393-1.301 1.494-3.192.797-3.71-.696-.515-2.603.071-3.32 1.837zM152.987 132.133c-2.015.003-3.688.483-3.739.663-.048.186 1.044 1.498 2.959 2.381 1.735.793 3.52.175 3.736-.667.215-.837-1.048-2.38-2.956-2.377zM149.987 136.795c-.407-1.972-1.208-3.522-1.395-3.528-.186-.011-1.262 1.32-1.744 3.372-.436 1.856.528 3.488 1.396 3.529.866.044 2.122-1.503 1.743-3.373zM145.266 135.464c1.62-1.196 2.686-2.576 2.613-2.752-.069-.173-1.724-.588-3.789-.164-1.871.388-2.943 1.948-2.618 2.752.326.805 2.255 1.297 3.794.164zM144.917 129.931c1.496 1.34 3.06 2.115 3.218 2.011.158-.1.231-1.809-.6-3.747-.753-1.753-2.492-2.493-3.216-2.014-.722.476-.82 2.469.598 3.75zM149.616 128.291c-.761 1.862-.951 3.598-.801 3.713.153.109 1.781-.4 3.324-1.839 1.394-1.301 1.493-3.193.798-3.709-.694-.517-2.602.069-3.321 1.835zM163.54 129.442c-2.017.002-3.689.478-3.74.661-.045.185 1.044 1.501 2.96 2.381 1.735.796 3.519.178 3.736-.664.214-.838-1.049-2.384-2.956-2.378zM160.539 134.104c-.405-1.973-1.207-3.522-1.395-3.529-.188-.012-1.264 1.319-1.744 3.369-.436 1.858.528 3.487 1.395 3.531.868.045 2.125-1.503 1.744-3.371z" clip-rule="evenodd"/><path fill="#fff" fill-rule="evenodd" d="M155.819 132.771c1.62-1.199 2.687-2.579 2.611-2.751-.068-.177-1.726-.589-3.788-.164-1.87.387-2.942 1.946-2.616 2.75.325.805 2.254 1.298 3.793.165zM155.469 127.237c1.496 1.344 3.058 2.118 3.217 2.015.157-.103.232-1.812-.599-3.749-.752-1.752-2.49-2.494-3.214-2.016-.724.477-.822 2.47.596 3.75zM160.168 125.597c-.761 1.862-.951 3.6-.799 3.712.152.113 1.78-.4 3.323-1.839 1.392-1.3 1.493-3.192.797-3.709-.693-.516-2.601.072-3.321 1.836zM166.431 136.054c-2.016.002-3.691.478-3.74.664-.048.184 1.044 1.498 2.959 2.378 1.736.798 3.52.178 3.736-.664.216-.838-1.048-2.384-2.955-2.378zM163.428 140.716c-.402-1.972-1.205-3.522-1.393-3.529-.187-.009-1.261 1.321-1.744 3.371-.437 1.857.528 3.486 1.396 3.528.867.048 2.121-1.499 1.741-3.37zM158.708 139.383c1.619-1.196 2.687-2.576 2.615-2.751-.072-.176-1.728-.589-3.791-.165-1.87.389-2.94 1.948-2.616 2.752.324.807 2.256 1.3 3.792.164z" clip-rule="evenodd"/><path fill="#fff" fill-rule="evenodd" d="M158.359 133.849c1.495 1.344 3.06 2.119 3.219 2.016.156-.102.231-1.814-.597-3.752-.755-1.749-2.494-2.489-3.216-2.014-.726.48-.823 2.47.594 3.75zM163.057 132.21c-.76 1.861-.949 3.599-.8 3.713.154.112 1.782-.401 3.326-1.838 1.392-1.303 1.492-3.195.796-3.711-.694-.517-2.602.071-3.322 1.836zM170.346 129.045c-2.013.002-3.689.48-3.737.664-.048.184 1.043 1.5 2.959 2.38 1.733.796 3.52.177 3.733-.666.216-.841-1.047-2.382-2.955-2.378z" clip-rule="evenodd"/><path fill="#fff" fill-rule="evenodd" d="M167.345 133.707c-.405-1.972-1.207-3.521-1.397-3.529-.186-.011-1.263 1.32-1.74 3.371-.438 1.856.529 3.489 1.393 3.532.869.042 2.128-1.504 1.744-3.374zM162.624 132.375c1.62-1.196 2.688-2.576 2.614-2.75-.07-.175-1.726-.59-3.792-.164-1.868.389-2.938 1.946-2.614 2.749.326.805 2.258 1.301 3.792.165zM162.276 126.843c1.495 1.344 3.059 2.116 3.217 2.01.156-.1.232-1.812-.598-3.745-.755-1.755-2.491-2.495-3.216-2.016-.723.479-.82 2.468.597 3.751zM166.975 125.205c-.76 1.86-.95 3.594-.798 3.708.152.113 1.777-.396 3.322-1.838 1.394-1.302 1.494-3.193.796-3.71-.696-.515-2.602.07-3.32 1.84zM181.444 130.508c-2.013.001-3.689.479-3.739.661-.044.184 1.044 1.502 2.96 2.382 1.735.794 3.522.174 3.736-.667.216-.839-1.049-2.38-2.957-2.376zM178.441 135.171c-.402-1.972-1.204-3.526-1.393-3.531-.188-.011-1.264 1.319-1.744 3.373-.435 1.855.531 3.487 1.395 3.527.869.045 2.128-1.501 1.742-3.369zM173.721 133.835c1.622-1.195 2.69-2.575 2.616-2.751-.07-.173-1.728-.586-3.793-.162-1.867.389-2.937 1.948-2.615 2.752.327.802 2.258 1.297 3.792.161zM173.374 128.301c1.496 1.348 3.06 2.119 3.217 2.016.156-.101.233-1.811-.597-3.749-.754-1.752-2.492-2.492-3.218-2.015-.721.477-.82 2.471.598 3.748zM178.073 126.664c-.76 1.862-.953 3.598-.797 3.712.15.112 1.778-.398 3.32-1.837 1.394-1.301 1.494-3.195.798-3.709-.694-.518-2.601.066-3.321 1.834z" clip-rule="evenodd"/><path fill="#fff" fill-rule="evenodd" d="M170.828 134.923c-2.016.002-3.691.478-3.74.66-.048.187 1.043 1.502 2.959 2.382 1.734.796 3.52.177 3.736-.664.216-.839-1.051-2.383-2.955-2.378zM167.825 139.585c-.405-1.972-1.205-3.523-1.394-3.531-.188-.01-1.263 1.32-1.744 3.374-.436 1.854.529 3.485 1.397 3.529.865.045 2.121-1.503 1.741-3.372zM163.105 138.252c1.622-1.196 2.686-2.576 2.611-2.751-.069-.176-1.724-.587-3.788-.163-1.869.388-2.94 1.947-2.616 2.75.325.805 2.257 1.298 3.793.164zM162.755 132.718c1.496 1.345 3.06 2.118 3.219 2.013.156-.101.232-1.812-.6-3.749-.751-1.75-2.491-2.491-3.215-2.012-.725.476-.821 2.468.596 3.748zM167.456 131.077c-.76 1.863-.954 3.6-.802 3.715.154.112 1.78-.402 3.324-1.842 1.394-1.3 1.494-3.189.798-3.709-.694-.515-2.602.072-3.32 1.836zM193.549 135.313c-2.014.004-3.689.481-3.738.664-.046.181 1.045 1.498 2.958 2.381 1.736.793 3.523.173 3.739-.667.215-.84-1.051-2.381-2.959-2.378zM190.549 139.974c-.404-1.972-1.206-3.522-1.394-3.528-.187-.01-1.263 1.323-1.744 3.372-.436 1.856.53 3.487 1.396 3.53.866.042 2.124-1.503 1.742-3.374zM185.828 138.641c1.62-1.195 2.685-2.579 2.615-2.751-.07-.173-1.726-.588-3.791-.161-1.871.389-2.94 1.947-2.616 2.749.325.807 2.256 1.299 3.792.163zM185.479 133.108c1.496 1.347 3.06 2.118 3.219 2.015.156-.103.232-1.811-.597-3.749-.755-1.754-2.492-2.494-3.218-2.014-.721.478-.821 2.47.596 3.748zM190.18 131.469c-.76 1.863-.952 3.6-.8 3.713.15.112 1.78-.4 3.321-1.838 1.393-1.3 1.496-3.192.799-3.71-.695-.516-2.602.07-3.32 1.835zM200.057 132.87c-2.016.004-3.692.48-3.74.664-.046.181 1.043 1.5 2.959 2.381 1.733.794 3.521.175 3.737-.668.215-.837-1.052-2.38-2.956-2.377z" clip-rule="evenodd"/><path fill="#fff" fill-rule="evenodd" d="M197.053 137.534c-.402-1.972-1.205-3.524-1.393-3.529-.188-.01-1.264 1.32-1.744 3.369-.436 1.859.528 3.488 1.397 3.529.866.043 2.124-1.502 1.74-3.369zM192.335 136.198c1.618-1.195 2.686-2.575 2.614-2.751-.07-.173-1.728-.588-3.793-.162-1.868.389-2.94 1.949-2.615 2.75.324.806 2.258 1.302 3.794.163zM191.984 130.667c1.496 1.344 3.059 2.116 3.218 2.012.157-.1.233-1.811-.598-3.748-.753-1.752-2.493-2.493-3.214-2.015-.724.48-.823 2.471.594 3.751zM196.684 129.026c-.76 1.863-.954 3.6-.798 3.715.15.111 1.779-.401 3.322-1.84 1.393-1.301 1.493-3.193.798-3.709-.694-.518-2.602.068-3.322 1.834zM208.012 129.783c-2.016.001-3.691.478-3.74.661-.046.184 1.042 1.501 2.958 2.381 1.735.795 3.523.175 3.738-.666.216-.839-1.05-2.379-2.956-2.376zM205.01 134.446c-.406-1.974-1.206-3.524-1.396-3.531-.188-.011-1.264 1.321-1.742 3.373-.436 1.856.528 3.487 1.396 3.527.865.045 2.124-1.501 1.742-3.369z" clip-rule="evenodd"/><path fill="#fff" fill-rule="evenodd" d="M200.289 133.108c1.62-1.193 2.685-2.574 2.613-2.749-.07-.172-1.725-.587-3.79-.163-1.87.39-2.939 1.948-2.615 2.752.324.806 2.256 1.298 3.792.16zM199.939 127.577c1.497 1.344 3.061 2.119 3.22 2.015.157-.102.233-1.811-.602-3.748-.75-1.754-2.49-2.494-3.214-2.016-.723.477-.82 2.47.596 3.749zM204.641 125.939c-.762 1.861-.954 3.597-.802 3.713.152.11 1.783-.401 3.323-1.838 1.393-1.302 1.493-3.195.799-3.71-.694-.517-2.602.068-3.32 1.835zM221.138 116.357c-2.359-.513-4.437-.384-4.541-.185-.106.206.832 2.024 2.849 3.544 1.825 1.376 4.071 1.108 4.54.178.467-.926-.617-3.057-2.848-3.537zM216.432 121.042c.032-2.412-.51-4.427-.728-4.487-.214-.06-1.817 1.222-2.9 3.5-.988 2.059-.273 4.214.726 4.484 1.002.272 2.872-1.213 2.902-3.497zM211.253 118.274c2.197-.984 3.804-2.327 3.76-2.551-.035-.221-1.867-1.129-4.392-1.159-2.284-.026-3.935 1.523-3.762 2.547.174 1.024 2.307 2.095 4.394 1.163zM212.26 111.711c1.407 1.955 3.035 3.259 3.251 3.18.208-.08.732-2.06.26-4.54-.433-2.242-2.28-3.553-3.249-3.177-.968.371-1.591 2.677-.262 4.537zM218.178 110.996c-1.368 1.986-2.036 3.967-1.886 4.139.148.167 2.185-.011 4.357-1.3 1.961-1.167 2.565-3.352 1.883-4.133-.682-.784-3.06-.587-4.354 1.294zM216.276 124.995c-2.016.004-3.691.481-3.741.661-.047.186 1.042 1.503 2.958 2.383 1.736.795 3.522.175 3.738-.664.217-.843-1.05-2.384-2.955-2.38zM213.272 129.659c-.404-1.973-1.207-3.523-1.393-3.532-.188-.011-1.264 1.32-1.744 3.373-.435 1.856.53 3.487 1.394 3.528.866.048 2.126-1.502 1.743-3.369z" clip-rule="evenodd"/><path fill="#fff" fill-rule="evenodd" d="M208.555 128.323c1.616-1.196 2.685-2.574 2.613-2.75-.072-.174-1.728-.588-3.793-.162-1.868.388-2.938 1.946-2.615 2.75.325.805 2.255 1.297 3.795.162zM208.204 122.792c1.496 1.344 3.062 2.115 3.218 2.012.156-.101.233-1.811-.599-3.748-.753-1.753-2.492-2.493-3.216-2.015-.725.479-.823 2.471.597 3.751zM212.902 121.151c-.76 1.863-.949 3.6-.8 3.714.154.109 1.783-.4 3.323-1.84 1.393-1.304 1.495-3.192.799-3.707-.695-.519-2.602.068-3.322 1.833zM150.271 113.628c-2.016.005-3.691.479-3.74.663-.046.185 1.044 1.501 2.958 2.38 1.735.796 3.52.177 3.736-.664.218-.839-1.048-2.384-2.954-2.379zM147.267 118.291c-.401-1.972-1.201-3.523-1.393-3.528-.188-.012-1.263 1.318-1.744 3.373-.435 1.855.53 3.484 1.397 3.528.864.043 2.124-1.504 1.74-3.373zM142.548 116.957c1.62-1.198 2.688-2.577 2.615-2.75-.074-.172-1.728-.588-3.794-.163-1.869.389-2.937 1.944-2.614 2.749.325.806 2.257 1.299 3.793.164zM142.199 111.426c1.496 1.343 3.062 2.116 3.218 2.013.156-.104.234-1.81-.599-3.75-.753-1.752-2.492-2.494-3.216-2.014-.724.476-.821 2.472.597 3.751zM146.898 109.783c-.76 1.865-.95 3.6-.802 3.712.156.113 1.782-.396 3.326-1.835 1.392-1.304 1.494-3.193.799-3.712-.696-.513-2.604.071-3.323 1.835zM164.297 43.599c-2.015.002-3.689.476-3.74.66-.045.185 1.044 1.504 2.96 2.382 1.735.795 3.523.176 3.736-.666.216-.838-1.049-2.382-2.956-2.376zM161.294 48.26c-.405-1.973-1.205-3.521-1.394-3.53-.187-.011-1.262 1.32-1.744 3.371-.435 1.856.53 3.488 1.398 3.531.866.045 2.124-1.503 1.74-3.372zM156.575 46.925c1.62-1.196 2.686-2.576 2.614-2.75-.071-.175-1.726-.588-3.794-.163-1.865.387-2.937 1.947-2.614 2.752.326.803 2.257 1.297 3.794.161zM156.225 41.393c1.496 1.344 3.062 2.117 3.219 2.014.157-.102.233-1.81-.6-3.749-.752-1.753-2.491-2.492-3.216-2.016-.723.48-.82 2.472.597 3.75zM160.927 39.754c-.76 1.86-.953 3.6-.801 3.712.153.113 1.78-.4 3.321-1.838 1.395-1.301 1.496-3.193.797-3.71-.693-.518-2.6.069-3.317 1.836zM197.277 129.905c-2.016.002-3.689.479-3.738.662-.047.184 1.044 1.501 2.958 2.381 1.735.796 3.52.177 3.736-.667.215-.838-1.049-2.381-2.956-2.376zM194.276 134.568c-.405-1.975-1.205-3.523-1.396-3.529-.187-.012-1.264 1.318-1.743 3.369-.437 1.856.527 3.487 1.396 3.531.868.044 2.123-1.503 1.743-3.371zM189.555 133.233c1.62-1.197 2.686-2.577 2.614-2.75-.07-.176-1.726-.591-3.792-.167-1.866.389-2.94 1.949-2.613 2.756.324.801 2.255 1.297 3.791.161zM189.206 127.699c1.494 1.346 3.06 2.119 3.218 2.015.156-.104.232-1.811-.598-3.748-.752-1.752-2.491-2.495-3.216-2.015-.723.479-.822 2.47.596 3.748zM193.906 126.06c-.761 1.863-.953 3.599-.801 3.712.153.113 1.78-.4 3.323-1.839 1.394-1.3 1.494-3.189.797-3.708-.693-.518-2.599.07-3.319 1.835zM82.137 68.936c-2.016.004-3.688.48-3.738.663-.048.184 1.041 1.5 2.957 2.38 1.736.794 3.521.176 3.737-.666.215-.837-1.05-2.381-2.956-2.377zM79.136 73.597c-.405-1.973-1.208-3.52-1.396-3.53-.186-.011-1.262 1.322-1.742 3.372-.438 1.86.529 3.49 1.395 3.533.866.041 2.124-1.503 1.743-3.375zM74.415 72.263c1.62-1.195 2.686-2.575 2.612-2.75-.07-.173-1.726-.589-3.79-.161-1.868.388-2.938 1.945-2.614 2.75.325.803 2.256 1.298 3.792.16zM74.064 66.731c1.496 1.344 3.062 2.118 3.22 2.014.156-.103.231-1.812-.6-3.748-.75-1.754-2.489-2.494-3.214-2.015-.726.477-.822 2.47.594 3.75zM78.765 65.092c-.76 1.863-.95 3.599-.8 3.71.155.113 1.78-.397 3.323-1.835 1.393-1.303 1.494-3.194.797-3.711-.693-.515-2.601.07-3.32 1.836z" clip-rule="evenodd"/></svg>