<svg xmlns="http://www.w3.org/2000/svg" width="300" height="300" fill="none"><defs/><path fill="#111" d="M300 0H0v300h300V0z"/><path fill="#202020" d="M300 91.897c-.359-.334-.828-.555-1.297-.776-.224-.106-.448-.212-.66-.33a9.85 9.85 0 01-.205.716c-.164.52-.328 1.04-.281 1.54.358 3.956.858 7.923 2.443 11.514v-5.477c-.334-1.665-.555-3.398-.763-5.195.267.127.521.262.763.403v-2.395z"/><path fill="#202020" fill-rule="evenodd" d="M300 115.582a199.847 199.847 0 00-2.945-3.504l-.661-.775a28.39 28.39 0 00-1.438-1.529c-.491-.496-.983-.993-1.435-1.524-.302-.354-.424-.923-.479-1.411-.041-.383-.039-.773-.037-1.163.003-.554.005-1.106-.115-1.631-1.379-5.992-3.552-11.649-7.763-16.257-1.274-1.395-2.957-2.472-4.602-3.444-.548-.325-1.902-.154-2.273.297-.503.611-.796 1.858-.519 2.574 1.419 3.645 3.012 7.223 4.633 10.784.297.652.741 1.238 1.184 1.824.203.267.405.535.594.809l-.219.29c-.127-.054-.258-.103-.388-.152-.285-.107-.569-.215-.826-.37-.883-.53-1.771-1.054-2.659-1.578-2.523-1.488-5.047-2.975-7.456-4.631-.948-.652-1.646-1.686-2.334-2.706-.226-.334-.451-.667-.683-.985-.496-.679-.957-1.388-1.418-2.096-.816-1.252-1.63-2.502-2.63-3.584-3.416-3.688-7.694-6.12-12.598-7.224-1.66-.376-3.503-.253-5.217-.018-1.781.245-2.171 1.789-1.079 3.25 4.293 5.76 10.029 9.709 16.414 12.694 2.196 1.027 4.634 1.947 7.246 1.65.326-.036.708.151 1.018.321.631.347 1.263.69 1.895 1.035 2.093 1.14 4.187 2.279 6.227 3.506.791.475 1.522 1.045 2.254 1.616.617.482 1.235.963 1.889 1.388.546.355 1.15.617 1.755.879.416.18.833.36 1.231.571.665.352 1.339.742 1.89 1.247 4.147 3.81 8.119 7.796 11.544 12.277v-2.43zm-8.98-11.255c.002.259.004.527.022.802-4.605-2.515-11.546-13.818-11.613-18.865 1.629.18 2.844 1.144 3.892 2.153 4.113 3.943 5.919 9.147 7.548 14.414.142.458.146.959.151 1.496zm-33.972-16.192c-1.702-1.15-3.415-2.34-4.88-3.763-1.035-1.004-1.928-2.153-2.842-3.329-.406-.522-.816-1.05-1.245-1.573 1.332-.8 2.654-1.008 3.988-.711 5.115 1.136 9.444 3.77 12.994 7.525 1.217 1.286 2.079 2.929 2.927 4.546.177.338.354.676.534 1.009.523.971.063 1.48-1.045 1.225l-.542-.123c-1.36-.308-2.745-.622-3.971-1.23-2.06-1.02-4.009-2.285-5.918-3.576z" clip-rule="evenodd"/><path fill="#202020" fill-rule="evenodd" d="M300 122.883c-1.772-.573-3.542-1.157-5.264-1.854a9.775 9.775 0 01-2.882-1.842c-1.442-1.328-2.296-3.042-3.151-4.758a38.638 38.638 0 00-1.078-2.059c-2.864-4.981-6.908-8.861-11.567-12.118-.677-.473-1.928-.849-2.539-.538-.91.465-.618 1.433-.36 2.291.043.14.084.277.119.409.914 3.427 3.261 5.897 5.727 8.217 1.851 1.74 3.768 3.408 5.685 5.075 1.006.875 2.012 1.75 3.008 2.636.084.075.107.217.136.393.015.093.032.195.06.301a6.721 6.721 0 00-.343-.003c-.206.003-.379.005-.534-.046-1.265-.412-2.528-.83-3.791-1.248-1.817-.602-3.634-1.204-5.457-1.786-.3-.095-.6-.193-.9-.291-1.376-.45-2.759-.901-4.173-1.13-3.983-.641-6.945-2.917-9.458-5.805-1.419-1.631-2.741-3.347-4.063-5.064a147.636 147.636 0 00-2.923-3.714c-.367-.447-.732-.896-1.097-1.346-2.683-3.306-5.379-6.628-9.04-8.92-2.622-1.641-5.437-2.99-8.234-4.33l-.224-.107c-1.386-.665-2.329.01-2.059 1.508.251 1.377.7 2.881 1.537 3.957 2.378 3.058 4.812 6.117 7.575 8.815 2.741 2.676 6.366 4.031 9.989 5.215 2.393.78 4.598 1.857 6.097 4.001.092.131.166.276.278.496.063.123.137.269.233.449-.33-.032-.633-.056-.916-.079-.552-.044-1.032-.082-1.506-.161-6.168-1.029-12.332-2.072-18.498-3.115l-.214-.036c-.204-.035-.411-.063-.619-.092-.56-.077-1.122-.155-1.632-.357-.587-.233-1.242-.641-1.556-1.159l-.668-1.11c-2.058-3.426-4.117-6.853-6.95-9.717-5.021-5.073-10.508-9.487-17.493-11.595-.101-.03-.204-.064-.31-.097-.944-.3-2.062-.656-2.662.313-.212.346.853 1.657 1.523 2.345 3.271 3.355 6.59 6.662 9.91 9.97l.499.496c3.252 3.244 7.079 5.676 11.11 7.822.41.218.788.499 1.165.78.178.133.356.265.537.391l-.084.569c-.393.032-.786.068-1.179.105-.904.085-1.808.169-2.713.19-.793.018-1.588-.025-2.384-.069-.423-.023-.846-.046-1.269-.06-.049-.001-.101-.005-.154-.008-.236-.014-.497-.029-.634.085-1.265 1.051-2.681.955-4.098.858-.549-.038-1.098-.075-1.639-.046-1.616.09-3.232.2-4.841.377-1.525.169-3.045.379-4.566.588-.49.068-.98.136-1.47.202-.883.118-1.566.098-1.712-1.097-.085-.681-.471-1.396-.906-1.949-.563-.715-1.116-1.44-1.668-2.164-2.621-3.436-5.242-6.873-8.957-9.3-.561-.365-1.117-.74-1.674-1.114-2.724-1.835-5.446-3.668-8.709-4.504-.069-.017-.137-.036-.206-.054-.327-.088-.657-.176-.986-.179-1.135-.007-1.779.978-1.113 1.879 1.773 2.396 3.569 4.787 5.526 7.032 3.5 4.012 7.734 7.131 12.476 9.531.702.356 1.475.569 2.25.783.451.125.903.25 1.342.403.269.095.515.256.762.417.113.074.226.148.342.216-.007.153-.016.306-.025.457-.543.088-1.085.191-1.627.294-1.195.227-2.39.454-3.593.522-5.367.302-10.519 1.651-15.67 3.001l-1.291.337c-.948.246-1.861.703-2.732 1.174-.891.481-1.799.939-2.709 1.397-2.365 1.192-4.732 2.385-6.788 3.979-1.648 1.276-3.374 1.567-5.128 1.862-.583.098-1.168.197-1.755.332-3.177.729-4.967-.57-6.733-3.21-2.509-3.749-5.334-7.289-8.155-10.825a734.17 734.17 0 01-1.933-2.429c-1.259-1.591-1.938-1.449-2.986.287-1.536 2.546-1.157 5.042.396 7.373 1.79 2.688 4.175 4.829 6.749 6.759.155.116.296.25.507.45.121.115.265.252.449.42-.248.015-.459.037-.645.056-.336.035-.589.061-.831.022-3.728-.601-7.228-1.82-10.49-3.766a714.02 714.02 0 00-6.486-3.81c-3.505-2.043-7.01-4.086-10.457-6.223-2.537-1.573-5.222-2.152-8.091-2.285-.858-.039-1.945-.034-2.081 1.009-.081.629.385 1.545.899 1.998 2.839 2.511 5.717 4.982 8.682 7.34 3.2 2.546 7.083 3.262 11.017 3.685 1.617.174 3.248.255 4.876.337l1.076.055c1.269.067 1.97.392 2.541 1.231a933.14 933.14 0 01-2.605 1.818c-2.043 1.423-4.086 2.846-6.1 4.31-.919.67-1.793 1.407-2.666 2.144-.505.426-1.01.852-1.524 1.265-.994.8-1.437 2.001-.996 3.005.321.729 1.456 1.377 2.323 1.538 4.001.746 7.913.2 11.29-2.092 2.496-1.694 4.22-4.18 4.968-7.206a9.35 9.35 0 00.161-.884c.036-.24.073-.48.123-.717.248-1.177.838-1.576 2.126-1.293 3.13.691 6.278 1.335 9.454 1.743 1.142.147 2.32.028 3.496-.091.498-.05.996-.1 1.491-.13.389-.024.776-.069 1.164-.115.184-.021.368-.043.553-.062l.092.675c-.173.124-.347.245-.522.367-.376.262-.753.524-1.108.812-.625.508-1.251 1.016-1.878 1.523-2.246 1.82-4.493 3.641-6.702 5.506-3.854 3.256-8.289 5.241-13.21 6.17-2.743.517-5.496.973-8.255 1.388-.52.079-1.201-.007-1.616-.293a167.561 167.561 0 01-3.458-2.481c-1.72-1.257-3.439-2.513-5.226-3.666-4.142-2.673-8.565-4.822-13.395-5.985-2.436-.587-4.9-.937-7.267.357-1.114.609-1.418 1.484-.993 2.661.373 1.037.935 1.843 1.849 2.52 5.395 4 11.348 6.589 18.048 7.382 1.598.189 3.188.446 4.829.982-.378.122-.754.252-1.13.382-.813.281-1.626.562-2.459.762-4.212 1.008-8.131 2.766-12.05 4.525-2.114.948-4.227 1.897-6.386 2.727-3.636 1.398-7.024 3.479-10.392 5.548-.826.507-1.65 1.013-2.478 1.509a56.433 56.433 0 00-7.255 5.176c-1.055.884-1.936 1.977-2.818 3.07a45.817 45.817 0 01-1.286 1.548c-.337.382-.685.755-1.032 1.128-.476.51-.951 1.02-1.4 1.552-.812.965-.661 1.615.547 2 .98.312 2.033.572 3.049.564 5.005-.047 9.309-1.578 12.085-6.085.285-.464.58-.923.875-1.383.775-1.21 1.55-2.42 2.163-3.708.544-1.144.777-2.455 1.003-3.727l.054-.306c.332-1.847 1.465-2.95 3.092-3.629 4.19-1.752 8.391-3.481 12.595-5.201a343.903 343.903 0 014.778-1.9l1.352-.53a1.78 1.78 0 01.401-.088c.068-.01.136-.02.202-.033l.296.325c-.37.55-.729 1.107-1.089 1.665-.798 1.237-1.596 2.474-2.502 3.625-3.486 4.432-5.477 9.389-5.658 15.045-.015.494.004.996.054 1.489.118 1.109.905 1.675 1.978 1.391 3.072-.808 5.443-2.252 6.967-5.373.162-.331.325-.661.489-.991 1.447-2.921 2.866-5.784 2.896-9.146l.002-.275c.015-1.579.029-3.175-.215-4.72l-.021-.133c-.197-1.234-.381-2.385.396-3.463.29-.398.667-.877 1.095-1.004.759-.223 1.54-.368 2.322-.513.414-.077.829-.154 1.241-.243 1.197-.258 2.393-.52 3.59-.782 2.057-.45 4.115-.901 6.177-1.332.422-.088.857-.117 1.292-.146.328-.023.657-.045.98-.092 7.111-1.032 13.116-4.288 18.33-9.134.364-.337.762-.637 1.161-.934.056-.041.134-.051.3-.074.111-.015.261-.035.47-.073-.284.71-.558 1.402-.828 2.082-.642 1.617-1.254 3.159-1.887 4.693-.379.918-.787 1.826-1.195 2.734-1.371 3.055-2.742 6.108-3.03 9.554-.069.843-.572 1.893-1.222 2.404-4.239 3.332-7.05 7.467-8.189 12.811-.145.685-.302 1.369-.458 2.053-.763 3.334-1.525 6.666-1.006 10.087.189 1.24.833 2.413 1.476 3.584.276.504.552 1.007.792 1.515l.076.166c.151.335.324.72.582.817.575.214 1.339.428 1.842.213.467-.201.822-.718 1.153-1.202.064-.093.127-.185.19-.273 3.196-4.49 5.525-9.369 6.218-14.879.175-1.391.054-2.826-.067-4.249-.027-.328-.055-.655-.079-.981-.334-4.507-.461-9.002.49-13.459.056-.261.207-.503.368-.759.078-.125.159-.254.232-.391.399.697.772 1.391 1.14 2.074.82 1.523 1.611 2.992 2.587 4.324 1.005 1.372 2.207 2.599 3.409 3.825.471.48.941.96 1.4 1.449.173.183.443.3.69.385 1.885.653 2.067.508 2.538-1.446.822-3.416 1.521-6.877.082-10.238-1.039-2.426-2.398-4.725-3.745-7.005l-.073-.123c-.435-.736-.955-1.422-1.475-2.108-.491-.649-.982-1.297-1.402-1.988-.347-.57-.506-1.453-.347-2.094 1.152-4.614 4.078-7.943 7.93-10.546.209-.141.452-.228.696-.315.226-.08.452-.161.651-.285.463-.29.935-.625 1.269-1.044 1.072-1.351 2.469-2.136 4.126-2.714-.059.467-.127.918-.192 1.358-.141.943-.274 1.835-.304 2.729-.067 2.014-.022 4.036.057 6.05.033.888.992 1.36 1.84.887 3.348-1.867 6.253-4.26 8.445-7.44 1.07-1.557.519-3.105-.027-4.638l-.095-.267a9.772 9.772 0 00-.55-1.228c-.913-1.792-.967-1.999.946-2.458 2.707-.649 5.45-1.148 8.193-1.647.891-.163 1.781-.325 2.671-.492.177-.034.368.012.624.074.141.034.302.072.491.105-.131.178-.248.34-.356.489-.218.301-.402.554-.593.802-.932 1.218-1.877 2.427-2.822 3.636-2.184 2.796-4.368 5.591-6.398 8.494-2.054 2.937-3.82 6.105-5.451 9.304-.682 1.337-1.168 2.773-1.654 4.212-.293.866-.586 1.733-.922 2.579a8.954 8.954 0 01-1.346 2.292c-2.928 3.609-4.86 7.684-5.726 12.238-.069.365-.144.733-.219 1.103-.359 1.765-.724 3.563-.546 5.287.194 1.874.823 3.708 1.449 5.533.188.55.377 1.1.553 1.65.224.693.901 1.008 1.482.333.374-.434.768-.86 1.162-1.287 1.144-1.237 2.294-2.481 2.989-3.935.728-1.522.845-3.378.957-5.159.016-.262.033-.522.051-.779.265-3.691.422-7.396.488-11.096.05-2.723.463-5.318 1.301-7.934 1.189-3.715 2.672-7.267 4.616-10.634.193-.334.493-.606.793-.878.136-.125.273-.249.4-.379l.4.195c.01.362.018.725.025 1.087.018.824.035 1.647.077 2.469.116 2.298.719 4.415 2.167 6.274a286.83 286.83 0 015.373 7.152c.21.287.366.615.522.943.177.371.354.741.607 1.05.228.278.587.448.946.618.16.076.32.152.469.237.065-.139.147-.278.229-.417.179-.301.357-.602.363-.907.141-7.805-.743-15.417-4.603-22.388-.284-.512-.739-.924-1.197-1.34a9.335 9.335 0 01-.848-.839c-.205-.24-.366-.84-.226-1.006 2.382-2.817 4.779-5.623 7.267-8.348.479-.523 1.266-.811 1.982-1.072l.134-.049c2.631-.964 5.36-1.33 8.497-1.354-.333.411-.633.793-.916 1.154-.546.695-1.027 1.308-1.55 1.882-3.281 3.593-4.099 8.029-4.365 12.65-.051.929.503 1.634 1.419 1.276 2.455-.954 4.889-1.99 7.241-3.171 1.789-.899 2.605-2.699 3.385-4.417l.122-.268c.265-.583.566-1.154.867-1.725.827-1.571 1.656-3.146 1.759-4.998a20.1 20.1 0 01.039-.547c.038-.492.077-.984.032-1.467-.09-.963.38-1.323 1.234-1.381.451-.028.903-.042 1.354-.053l4.371-.102c3.44-.078 6.88-.157 10.319-.264.236-.007.472-.028.709-.049.955-.085 1.924-.171 2.925.626l-.851.391c-.634.292-1.219.562-1.805.825-4.027 1.82-7.561 4.355-10.04 8.008-.989 1.458-1.647 3.143-2.304 4.823a68.21 68.21 0 01-.715 1.782c-.398.939.223 1.281 1.057 1.42 2.113.359 4.19.116 6.088-.786a74.492 74.492 0 006.857-3.745c1.964-1.204 2.903-3.285 3.785-5.3.59-1.347 1.089-2.734 1.587-4.12.23-.638.459-1.276.697-1.91.276-.737.769-1.039 1.582-.883 1.341.26 2.684.509 4.027.757 2.429.449 4.857.897 7.27 1.417 1.831.394 3.634.918 5.437 1.442.575.166 1.15.333 1.725.496.312.088.605.241.898.394.133.07.267.139.402.203l.043.211.044.211c-.362.172-.723.35-1.083.527-.807.397-1.613.794-2.442 1.135-2.555 1.05-4.981 2.269-7.126 4.074-2.947 2.48-4.331 5.576-4.203 9.389.069 1.998.922 2.675 2.793 1.954.557-.215 1.124-.42 1.692-.627 2.069-.751 4.158-1.51 5.9-2.741 3.457-2.44 6.493-5.435 6.87-10.135.134-1.697.645-1.923 2.354-1.713 3.435.424 6.644 1.547 9.859 2.8 2.09.813 4.252 1.442 6.414 2.072.994.289 1.987.578 2.974.885.217.068.427.16.718.286.174.076.376.164.625.267-.271.126-.492.241-.684.341-.339.177-.586.305-.849.36-3.69.753-5.597 3.574-7.485 6.368l-.246.363c-.604.892.111 1.599.969 1.822 3.155.824 6.34 1.029 9.486-.031 2.183-.735 3.575-3.1 3.545-5.841-.023-2.033.131-2.138 2.044-1.599 1.164.328 2.318.681 3.465 1.055v-1.76zm-24.381-20.588c-.198 2.81 8.133 11.978 11.85 12.91-2.263-4.722-7.737-11.641-11.85-12.91zm8.765 24.094c.081-.062.163-.124.234-.193 1.674-1.617 3.781-2.102 5.974-2.606a45.606 45.606 0 001.866-.457c.016.222.017.429.018.623.002.376.004.7.117.977 1.165 2.854-.642 4.53-2.72 4.8-1.634.212-3.317.143-4.97.053-.477-.026-.945-.23-1.412-.433a9.897 9.897 0 00-.64-.262c.105-.195.209-.391.312-.587.278-.526.556-1.052.86-1.563.082-.139.221-.245.361-.352zm-138.239-20.686a230.641 230.641 0 016.882 8.513c.781 1.014 1.465 2.101 2.15 3.189.307.488.615.976.931 1.458l-.231.219-.076.072c-.101-.036-.206-.065-.312-.095-.222-.062-.445-.124-.625-.248-.506-.349-1.018-.693-1.529-1.036-1.471-.988-2.943-1.976-4.295-3.109-1.003-.84-1.863-1.849-2.723-2.858a59.85 59.85 0 00-1.039-1.198c-1.125-1.251-1.216-2.785-.968-4.316.216-1.329.984-1.596 1.835-.591zm35.453 9.022c1.436.518 2.888 3.911 2.089 5.293-.612 1.057-1.39 2.019-2.168 2.981-.34.42-.68.841-1.006 1.269l-.19-.149-.125.105a3.715 3.715 0 01-.297.237c-.461.32-.923.635-1.386.95l-.509.348c-1.128.768-1.728.59-1.915-.799-.134-.986-.072-2.004-.011-3.012l.035-.594c.157-3.013 1.72-5.115 4.348-6.47.326-.169.812-.276 1.135-.159zm-63.409-6.793a284.637 284.637 0 00-2.235-1.879c-.175-.145-.314-.333-.453-.52a6.5 6.5 0 00-.198-.258l.069-.139.205-.408c.587.16 1.189.29 1.792.419 1.323.285 2.646.57 3.802 1.175 3.36 1.76 6.632 3.687 9.903 5.613 1.019.599 2.038 1.199 3.059 1.794.471.274.904.61 1.337.947.196.153.392.305.592.452-.935.299-1.728.317-2.519.276-3.359-.175-6.69-.649-9.458-2.696-2.031-1.504-3.964-3.14-5.896-4.776zm66.391-18.967c2.287 5.057 12.93 15.031 18.504 14.774-3.1-6.596-14.37-14.86-18.504-14.774zm27.217-4.705c5.494.528 18.692 11.338 20.714 17.347-7.959-3.215-13.321-9.16-18.835-15.272-.623-.69-1.248-1.384-1.879-2.075zm-35.122 62.657c.303-.499.605-.999.891-1.507.107-.19.376-.289.646-.388.126-.046.252-.092.362-.148l.178.088.268.133c-.077 1.292-.156 2.583-.234 3.875a1049.39 1049.39 0 00-.58 10.039c-.132 2.546-1.432 4.572-2.799 6.564-.133.194-1.061.16-1.096.056l-.192-.566c-.488-1.441-.979-2.89-1.273-4.376-.37-1.871.155-3.614.681-5.359.278-.924.557-1.849.702-2.793.327-2.12 1.386-3.869 2.446-5.618zm16.658-21.588c1.763 2.68 2.5 5.75 3.039 8.843.3 1.721.472 3.466.644 5.21.077.775.153 1.55.241 2.323l-.43.151a13.762 13.762 0 00-.364-.317c-.272-.232-.544-.463-.768-.734a49.176 49.176 0 01-1.298-1.667c-.802-1.06-1.604-2.12-2.546-3.036-3.171-3.076-2.917-9.968-1.632-13.112.092-.223.881-.445.981-.335.766.844 1.506 1.725 2.133 2.674zm-97.535 29.058c-.053 5.011-2.856 8.424-5.91 11.509-2.45 2.475-5.778 2.48-9.21 2.485l-.734.002c3.94-6.416 9.509-10.441 15.854-13.996zm34.217-24.548c.242-.452.483-.904.843-1.222.764-.675 1.595-1.275 2.427-1.874.335-.242.671-.484 1.002-.731l-.138-.21c.661-.424 1.317-.855 1.974-1.286 1.67-1.097 3.339-2.193 5.076-3.171.772-.436 1.782-.5 2.733-.561l.376-.025c.271-.018.813.554.844.889.305 3.37-3.159 8.106-6.454 8.881-2.357.553-4.729 1.101-7.169.624-.44-.085-.858-.275-1.276-.464a13.148 13.148 0 00-.575-.25c.12-.192.229-.396.337-.6zm-12.125 20.319a84.318 84.318 0 001.945-2.889c.163-.256.43-.445.737-.663.156-.111.322-.229.49-.367.882 3.57 1.081 6.863-.153 10.063-.433 1.124-.994 2.197-1.555 3.271a56.01 56.01 0 00-.928 1.829c-.89 1.865-2.433 2.947-4.292 3.667-1.001.386-1.669.069-1.634-1.031.041-1.34.154-2.695.415-4.008.749-3.775 2.863-6.824 4.975-9.872zm119.774-63.013c-.129 5.04 11.248 15.799 19.11 15.953-5.177-7.028-10.561-13.33-19.11-15.953zm23.463 29.729c.852-.372 1.703-.743 2.537-1.149.369-.179.816-.199 1.275-.219.218-.01.439-.02.656-.047-.093 2.626-.617 4.859-2.133 6.771-2.832 3.569-6.776 5.246-10.995 6.441-.849.241-1.408-.064-1.405-1.068.011-2.741 1.189-4.892 3.167-6.73 2.014-1.87 4.456-2.935 6.898-3.999zm-55.287 6.321c-1.063.382-1.343-.035-1.296-1.09.217-4.813 2.69-8.439 6.082-11.711.141-.105.286-.225.435-.348.36-.299.748-.621 1.193-.823.311-.141.662-.196 1.012-.25.365-.057.729-.113 1.047-.267 1.389-.676 1.851-.533 2.018 1.019.089.813.106 1.751-.21 2.473-1.145 2.617-2.41 5.183-3.713 7.727-.287.562-.834 1.143-1.401 1.385-1.205.512-2.447.941-3.689 1.369-.494.17-.987.341-1.478.516zm-40.973 31.755c-2.88-2.118-4.722-4.959-6.492-8.067-2.305-4.048-.787-7.211 1.212-10.873 2.792 3.268 5.372 6.5 6.602 10.468.897 2.887 1.228 5.972-.556 8.875a6.976 6.976 0 00-.28-.136c-.183-.087-.345-.163-.486-.267zm76.121-43.702c-1.102 3.773-2.731 7.208-6.353 9.271-2.94 1.674-5.938 3.143-9.644 2.959a6.283 6.283 0 00-.02-.51c-.021-.31-.039-.579.054-.8 1.393-3.295 3.147-6.318 6.226-8.385l.519-.35c2.36-1.595 4.701-3.178 7.657-3.564 1.598-.209 1.971-.024 1.561 1.379zm-126.832 17.86c3.13 1.517 6.197 3.18 9.202 4.937 1.088.636 2.087 1.428 3.11 2.24.467.37.939.744 1.427 1.11-.137.094-.229.166-.295.217-.096.073-.137.105-.179.105-8.544.049-16.311-2.338-23.165-7.485-.502-.377-.999-1.26-.895-1.79.084-.434 1.037-.89 1.661-.993 3.225-.542 6.274.271 9.134 1.659zm39.085 35.793c-.691 4.701-2.23 9.183-5.168 13.051-.25.331-.494.664-.778 1.051-.189.257-.395.539-.632.859-.267-.436-.547-.856-.82-1.267-1.086-1.632-2.087-3.137-1.941-5.034.216-2.825.672-5.635 1.127-8.438l.145-.897c.711-4.415 2.617-8.192 6.222-10.975.214-.165.491-.249.768-.332.127-.038.255-.077.376-.123.019.121.04.241.062.362.046.255.092.51.108.767.04.667.072 1.334.103 2.001.028.579.055 1.158.088 1.737.043.762.127 1.53.212 2.298.182 1.667.365 3.334.128 4.94z" clip-rule="evenodd"/><path fill="#202020" d="M300 134.212a32.073 32.073 0 00-2.364-.9c-2.854-.965-4.811.357-4.716 3.37.018.551.418 1.177.809 1.618a23.127 23.127 0 006.271 4.998v-2.125c-1.786-1.211-3.461-2.604-5.107-4.002-.405-.346-.479-1.328-.347-1.939.054-.251 1.081-.446 1.636-.39.45.046.885.22 1.322.394.236.094.473.189.712.263.613.191 1.208.408 1.784.652v-1.939z"/><path fill="#202020" fill-rule="evenodd" d="M300 144.325c-.691-.213-1.382-.425-2.074-.636-3.207-.983-6.414-1.965-9.59-3.041-4.639-1.575-9.349-2.761-14.25-3.048a4.872 4.872 0 00-2.107.364c-2.632 1.119-2.954 3.191-.854 5.149 2.559 2.384 5.73 3.343 9.08 3.874 4.469.71 8.972.881 13.199-.885 1.861-.778 3.369-.425 5.072-.026l.146.034c.458.107.917.21 1.378.31v-2.095zm-23.877-4.975c3.149.551 6.313 1.104 9.375 1.988 1.662.478 3.25 1.21 4.839 1.942.705.325 1.41.65 2.122.953l-.027.279-.025.253c-.393.097-.785.203-1.176.31-.846.23-1.691.46-2.552.589-4.291.646-8.482-.071-12.511-1.456-1.197-.411-2.255-1.273-3.292-2.119-.268-.218-.535-.436-.802-.644-.589-.456-.463-1.037.168-1.583 1.117-.966 2.419-.768 3.617-.558l.264.046z" clip-rule="evenodd"/><path fill="#202020" d="M300 150.904c-.822.387-1.638.785-2.455 1.183-.412.2-.824.401-1.237.6l-.67.321c-1.075.514-2.152 1.029-3.183 1.619-1.762 1.009-1.738 2.222.075 3.172 2.506 1.313 4.996 1.296 7.47.697v-1.708c-1.778.403-3.579.418-5.39-.155-.206-.065-.383-.224-.561-.383-.083-.074-.166-.149-.253-.214.062-.069.12-.146.178-.223.125-.165.25-.33.415-.42 1.622-.866 3.25-1.723 4.899-2.536.236-.117.474-.231.712-.342v-1.611z"/><path fill="#202020" fill-rule="evenodd" d="M191.253 300c.264-.342.514-.694.764-1.046.247-.349.495-.698.756-1.037.181-.238.397-.449.611-.659.094-.093.188-.185.279-.279a5.09 5.09 0 00-.054-.396c-.052-.329-.11-.694-.041-1.034.279-1.362.093-1.609-1.309-1.766-3.049-.343-5.909.208-8.586 1.697a966.973 966.973 0 00-4.708 2.633l-2.059 1.155c.148-.446.284-.911.421-1.383.31-1.065.631-2.166 1.136-3.175 1.352-2.694 2.018-5.502 1.985-8.486l-.006-.56c-.039-3.743-.079-7.491-1.156-11.132l-.028-.095c-.143-.485-.287-.976-.504-1.428-.686-1.425-2.314-1.716-3.292-.474-.706.895-1.331 1.964-1.627 3.053-1.457 5.36-1.469 10.81-.602 16.258.273 1.719.758 3.43 1.374 5.06.427 1.127.204 2.133-.134 3.094h5.985c.146-.141.291-.284.434-.428.211-.212.407-.446.603-.678.367-.437.732-.872 1.191-1.162.7-.443 1.467-.78 2.235-1.116.385-.169.77-.338 1.147-.52 1.572-.765 3.162-1.288 4.971-.477-.501 1.516-1.522 3.03-2.824 4.381h3.038zm-14.652-25.836l.646.195c1.941 6.867 2.652 13.691-.778 20.378l-.252.031-.17.022a22.905 22.905 0 00-.297-.818c-.224-.592-.447-1.184-.557-1.797-.956-5.377-.815-10.744.382-16.07.105-.469.381-.9.656-1.33.129-.203.258-.405.37-.611zM167.802 300c-.477-1.654-1.034-3.286-1.59-4.917-.299-.877-.598-1.753-.884-2.632a37.592 37.592 0 01-.395-1.329c-.243-.858-.486-1.715-.844-2.523-.225-.507-.624-.935-1.024-1.363-.197-.211-.394-.422-.571-.643a4.076 4.076 0 00-.144-.169c-.17-.196-.352-.403-.351-.601.018-2.056-.992-3.717-1.982-5.344-.243-.401-.486-.799-.711-1.201-1.938-3.45-4.051-6.835-6.431-9.99-1.353-1.794-2.366-3.368-2.117-5.741.127-1.2-.018-2.429-.167-3.695-.067-.575-.136-1.157-.18-1.747.122.026.228.044.323.061.177.032.316.056.447.105 2.152.797 4.161.47 6.094-.696 2.572-1.549 4.847-3.444 6.765-5.755 1.393-1.676 1.101-3.523.372-5.332-.119-.297-.875-.596-1.222-.496l-.332.095c-1.182.34-2.4.69-3.419 1.326-2.063 1.289-4.063 2.68-6.063 4.072-.665.463-1.33.925-1.997 1.384a9.865 9.865 0 00-.803.641c-.158.134-.334.283-.538.451a72.594 72.594 0 00-.118-1.511c-.09-1.052-.174-2.042-.15-3.029.091-3.907-.821-7.604-2.459-11.086-1.173-2.491-2.488-4.917-3.802-7.342-.461-.852-.923-1.705-1.379-2.56-.184-.344-.494-.645-.802-.898-1.437-1.191-3.134-.625-3.212 1.235-.061 1.485.06 3.182.728 4.455.208.395.415.792.623 1.19 1.61 3.085 3.246 6.219 5.475 8.81 2.914 3.385 3.298 7.124 3.416 11.174.056 1.946.212 3.89.367 5.833.07.878.14 1.756.201 2.634.013.186.024.372.037.603l.029.493a9.08 9.08 0 00-.34-.189c-.178-.096-.313-.169-.423-.269-1.056-.954-2.109-1.91-3.162-2.866-1.68-1.526-3.36-3.052-5.05-4.566a8.47 8.47 0 01-.102-.092c-.504-.453-1.047-.942-1.658-1.14-1.953-.639-3.35-1.983-4.748-3.329-.445-.428-.891-.857-1.354-1.263-.097-.084-.193-.173-.289-.261-.303-.281-.609-.564-.967-.733-1.711-.812-1.675-2.263-1.64-3.648.011-.413.021-.82-.015-1.203-.535-5.692-1.758-11.195-4.042-16.43-1.298-2.973-2.89-5.796-5.269-8.08-.082-.078-.163-.16-.245-.242-.6-.601-1.239-1.242-2.18-.81-1.1.508-1.925 1.408-2.022 2.694-.052.706.05 1.443.204 2.139 1.382 6.222 3.963 11.937 7.393 17.286.463.722.918 1.451 1.367 2.18.025.041.03.094.041.217.008.083.018.199.04.366a68.472 68.472 0 00-1.127-.73c-.774-.494-1.494-.953-2.159-1.481-2.889-2.282-5.767-4.581-8.58-6.955-2.299-1.944-3.064-4.719-3.828-7.492l-.02-.074a400.753 400.753 0 00-3.221-11.011c-.4-1.299-.278-1.383 1.068-1.437 4.017-.16 7.993-.517 11.289-3.286.904-.76 1.868-1.447 2.831-2.136.544-.388 1.088-.776 1.621-1.177.32-.242.603-.551.847-.87l.029-.038c.769-1.005 1.528-1.996.613-3.362-1.056-1.575-2.371-2.4-3.987-1.833a36.037 36.037 0 00-6.122 2.808c-1.645.955-3.212 2.043-4.779 3.132-.695.483-1.39.966-2.092 1.437-.163.109-.331.21-.545.338-.108.065-.229.137-.366.221-.008-.726-.025-1.437-.042-2.136-.038-1.523-.074-2.993-.003-4.459.261-5.256-.038-10.429-1.436-15.544-.653-2.396-1.579-4.501-3.675-5.919-1.858-1.254-3.05-.919-4.231.999-1.53 2.484-1.613 4.966-.712 7.763.923 2.86 1.692 5.771 2.46 8.681.439 1.658.877 3.317 1.344 4.966.3 1.066.648 2.119.995 3.171.329.995.657 1.99.946 2.996.173.599.259 1.223.346 1.848a22.514 22.514 0 00.205 1.284c.061.353.132.759.354.935 1.255.986 1.652 2.342 2.024 3.81.281 1.123.655 2.221 1.029 3.32.259.76.518 1.521.746 2.291.202.683.342 1.386.502 2.194.078.393.16.811.258 1.265-.238-.112-.445-.198-.627-.274-.327-.136-.574-.239-.78-.395-.913-.697-1.828-1.39-2.744-2.083-2.673-2.024-5.347-4.048-7.943-6.166-3.134-2.554-5.63-5.704-7.703-9.179l-.382-.638a102.321 102.321 0 01-1.941-3.332c-.171-.31-.308-.886-.146-1.095 1.255-1.618 1.275-3.519 1.293-5.368.002-.199.004-.398.008-.595.066-3.589-.67-7.064-1.964-10.432-.675-1.763-1.202-3.589-1.705-5.412-.842-3.044-2.736-5.382-5.119-7.273-.83-.658-2.188-.892-3.295-.865-.617.015-1.495.841-1.77 1.506-1.2 2.876-.754 5.815.377 8.568 1.549 3.77 3.276 7.47 5.078 11.125 1.01 2.048 2.116 4.047 3.223 6.045.55.995 1.1 1.989 1.64 2.989.09.167.144.354.229.642.05.17.11.375.193.632a15.417 15.417 0 00-.65-.335c-.34-.168-.594-.293-.795-.478-.955-.873-1.918-1.738-2.881-2.604-2.623-2.357-5.247-4.715-7.717-7.225-2.488-2.526-4.187-5.676-5.52-8.984-.194-.48-.39-.958-.587-1.437-.554-1.352-1.11-2.704-1.598-4.079-.128-.363.072-1.123.362-1.298 1.097-.655 1.414-1.644 1.35-2.763-.225-3.947-.789-7.794-2.006-11.626-.928-2.924-2.223-5.652-3.518-8.381a159.535 159.535 0 01-1.577-3.39l-.002-.005c-.316-.705-.719-1.605-1.611-1.231-.478.199-.761 1.092-.942 1.726-.318 1.111-.531 2.256-.708 3.399-.043.272-.09.546-.136.82-.182 1.067-.365 2.144-.32 3.206.172 3.954.853 7.802 3.131 11.183.33.488.668.972 1.007 1.455.722 1.03 1.445 2.061 2.077 3.145.304.52.449 1.131.594 1.743.072.305.145.611.237.905a633.72 633.72 0 001.443 4.552l-.209.149-.126.089c-.227-.232-.459-.461-.69-.69-.505-.499-1.009-.998-1.474-1.53a1119.24 1119.24 0 01-4.008-4.627c-1.974-2.288-3.948-4.576-5.95-6.84-1.932-2.183-4.334-3.787-6.903-5.129-.509-.267-1.145-.564-1.664-.484-1.568.24-2.402-.657-3.198-1.734-.316-.428-.637-.853-.957-1.277a68.42 68.42 0 01-1.937-2.652c-.195-.284-.217-.877-.052-1.183.886-1.653 1.794-3.294 2.703-4.936.852-1.54 1.705-3.081 2.54-4.631 1.655-3.077 2.434-6.456 2.26-9.876-.098-1.891-.788-3.774-1.46-5.611-.103-.279-.205-.558-.304-.835-.382-1.068-1.203-.995-1.839.212-.378.717-.763 1.432-1.148 2.147-1.43 2.655-2.864 5.316-3.947 8.107-.768 1.981-1.188 4.095-1.609 6.21-.188.95-.377 1.899-.597 2.837-.065.279-.14.558-.214.836l-.111.423c-.137.06-.273.12-.41.182a34.874 34.874 0 00-.721-.997c-.532-.718-1.064-1.436-1.465-2.221a251.797 251.797 0 01-2.54-5.182c-.82-1.705-1.639-3.41-2.496-5.096-.63-1.242-1.364-2.431-2.098-3.619-.26-.421-.52-.842-.776-1.265-.635-1.057-.528-1.937.355-2.86a97.93 97.93 0 011.166-1.189c1.35-1.363 2.708-2.732 3.744-4.307 2.797-4.248 2.81-8.961 1.644-13.78-.137-.566-.328-1.124-.52-1.682-.502-1.461-1.006-2.929-.546-4.575.089-.318-.444-1.158-.675-1.153-.905.022-1.962.05-2.669.518-.867.573-1.601 1.503-2.11 2.433-1.497 2.746-2.985 5.515-4.21 8.39-.392.921-.436 1.999-.48 3.066-.015.358-.03.715-.058 1.065-.035.43.017.867.069 1.304.023.195.046.39.062.584l-.773.145a27.632 27.632 0 00-.51-.818c-.376-.589-.752-1.179-1.02-1.815-1.829-4.321-3.604-8.668-5.378-13.012l-.075-.183c-.449-1.1-.882-2.206-1.316-3.311-.452-1.152-.904-2.304-1.373-3.449-1.259-3.075-3.589-5.308-5.91-7.533-.22-.21-.44-.42-.657-.63A1.958 1.958 0 000 91.897v2.394c2.183 1.275 3.376 3.096 4.365 4.965 1.06 2.003 1.914 4.116 2.767 6.227.237.585.474 1.17.715 1.753.422 1.021.793 2.064 1.163 3.107.173.486.345.972.523 1.456-3.508-1.454-6.088-3.861-7.695-7.081C.953 102.941.397 101.06 0 99.084v5.477a18.418 18.418 0 001.824 3.231c1.476 2.082 3.583 3.815 5.668 5.34 2.695 1.967 4.793 4.244 5.996 7.385.542 1.413 1.174 2.792 1.806 4.171.38.828.76 1.656 1.12 2.492.197.458.345.938.52 1.508.088.289.184.602.298.947-.26-.091-.489-.166-.696-.235-.398-.131-.716-.235-1.018-.374a997.274 997.274 0 01-8.82-4.115c-.353-.168-.77-.413-.93-.733-1.555-3.135-3.588-5.919-5.768-8.596v2.43c.12.157.239.314.357.472.773 1.029 1.43 2.142 2.089 3.255.3.509.601 1.019.913 1.52l-.216.345c-.211-.036-.424-.063-.637-.091-.47-.062-.939-.123-1.382-.267l-.613-.198-.511-.165v1.76c4.808 1.568 9.475 3.513 14.094 5.583.784.351 1.57.7 2.408 1.072l1.271.565.2.768.446 1.73c-.527-.246-1.032-.495-1.525-.738-1.09-.537-2.12-1.044-3.196-1.423-1.642-.578-3.362-.97-5.076-1.3-1.143-.221-2.336-.267-3.503-.238-.503.012-1.182.29-1.434.674-.198.302-.035 1.116.259 1.425 3.815 4.017 8.23 7.029 13.882 7.701.606.072 1.291-.302 1.927-.649.133-.072.265-.144.392-.21.79-.41 1.169-.401 1.858.404 1.924 2.249 3.113 4.871 4.304 7.499l.37.813c.161.354.17.779.179 1.203.004.195.008.39.026.578-.164-.01-.33-.012-.495-.015-.36-.005-.718-.01-1.06-.09a968.14 968.14 0 01-5.836-1.413c-1.43-.35-2.86-.699-4.292-1.044a8.853 8.853 0 01-.273-.07c-.41-.108-.844-.223-1.193-.113-1.509.477-2.117-.149-2.355-1.568-.602-3.575-3.166-5.836-5.669-8.044l-.065-.057c-1.678-1.482-3.596-2.595-5.644-3.474v1.939c3.124 1.322 5.72 3.41 7.878 6.09.405.503.68 1.111.954 1.719.128.283.256.566.397.839l-.036.045-.292.369c-.174-.034-.353-.057-.531-.08-.385-.05-.77-.1-1.107-.254-.487-.223-.977-.441-1.468-.659-1.65-.732-3.304-1.467-4.822-2.413a29.89 29.89 0 01-.973-.634v2.125c.137.075.274.148.413.22.195.102.379.227.629.399.143.098.308.211.51.343-.184.046-.338.099-.47.144-.229.079-.391.134-.524.093L0 144.325v2.095c1.553.337 3.13.638 4.77.951.902.172 1.823.348 2.771.536-.626.231-1.225.444-1.803.65-1.227.437-2.36.84-3.463 1.316-.765.33-1.522.676-2.275 1.031v1.611c3.313-1.552 6.788-2.618 10.427-3.069.757-.094 1.537.001 2.317.097.359.044.717.088 1.073.113l.041.355.024.195c-.467.319-.926.647-1.386.976-1.865 1.332-3.728 2.662-6 3.352-.979.296-1.934.667-2.89 1.039-.711.276-1.423.553-2.145.799-.485.165-.972.305-1.461.416v1.708c1.001-.242 2-.579 2.995-.962.494-.19.995-.366 1.497-.543 1.198-.421 2.396-.843 3.49-1.451 2.598-1.443 5.088-3.083 7.56-4.734 1.187-.792 2.315-.858 3.584-.351l.13.052c.625.251 1.274.511 1.93.577 2.898.292 5.482 1.441 7.979 2.826.572.316 1.145.754 1.52 1.278a442.28 442.28 0 014.112 5.865c.585.844 1.17 1.688 1.758 2.531.266.38.542.752.89 1.22.181.245.383.516.613.829l-.74-.247c-.54-.181-.961-.322-1.384-.462-7.032-2.336-14.2-3.658-21.58-2.238-1.573.303-3.08 1.468-4.38 2.525-1.295 1.048-.677 3.189 1.097 4.137.905.482 1.901.837 2.896 1.101 4.767 1.271 9.554 2.517 14.557 1.891 2.773-.347 5.545-.766 8.27-1.368.698-.154 1.335-.582 2.031-1.051.336-.226.686-.461 1.063-.679.14.214.29.433.443.657.34.498.7 1.021.997 1.576 1.609 3 4.046 5.206 6.877 6.949 3.858 2.375 7.796 4.623 11.745 6.845 2.225 1.251 4.395 3.405 5.044 5.518-.269-.098-.522-.183-.762-.263-.48-.161-.91-.304-1.31-.502-5.912-2.92-12.157-4.797-18.613-6.027-2.229-.425-4.3.334-6.314 1.072l-.15.055c-1.41.515-1.557 3.403-.21 4.064a76.506 76.506 0 007.436 3.174c5.684 2.078 11.644 2.44 17.599 2.801a593.02 593.02 0 012.025.126c.374.026.799.056 1.067-.117 1.388-.892 2.138-.077 2.838.951.519.761 1.26 1.054 2.047 1.364.199.078.4.158.602.246 1.457.639 2.732 1.831 3.895 2.981a460.176 460.176 0 0110.325 10.539c1.418 1.495 2.636 3.178 3.9 5.049l-1.183-.432c-.645-.235-1.289-.47-1.932-.707l-3.798-1.41c-2.359-.877-4.718-1.753-7.077-2.626a13.07 13.07 0 00-.397-.137c-.759-.252-1.508-.501-1.733-1.485-.034-.148-.212-.268-.386-.384a3.22 3.22 0 01-.186-.132c-.364-.286-.746-.556-1.128-.826-.825-.582-1.649-1.164-2.287-1.907-2.628-3.059-5.4-5.946-8.781-8.16-.913-.599-2.04-1.15-3.083-1.176-.825-.019-1.875.622-2.448 1.29-.618.722-.486 1.74.224 2.601 1.553 1.888 3.51 3.192 5.667 4.274 1.43.717 2.84 1.471 4.252 2.225.636.34 1.272.68 1.91 1.016l-.09.358-1.103-.124c-.793-.089-1.587-.179-2.38-.262-6.54-.691-13.058-.801-19.526.682-2.243.514-4.09 1.585-5.565 3.346-1.17 1.402-.546 3.232 1.445 3.467 1.71.203 3.51.031 5.22-.268 1.117-.197 2.207-.541 3.298-.885.673-.212 1.347-.425 2.028-.603 1.761-.461 3.247-1.367 4.488-2.659 1.377-1.433 2.92-1.971 4.97-1.797 4.824.408 9.46 1.614 14.105 2.821l1.14.296c.182.047.351.148.595.293.139.083.302.18.504.289l-.723.347c-.459.22-.844.406-1.234.586-2.52 1.161-4.883 2.546-6.655 4.749-.805.997-.59 2.413.414 3.208 2.646 2.103 5.576 1.63 8.362.622 2.773-1.004 5.645-4.163 6.958-7.114 8.25 3.239 15.886 7.437 22.376 13.552l-.11.364a22.159 22.159 0 00-.773-.118c-.564-.08-1.128-.159-1.661-.33-3.42-1.095-6.905-1.776-10.504-1.802-2.182-.017-4.046.745-5.594 2.308-.671.675-.75 1.349-.363 2.201.94 2.08 2.52 3.434 4.706 3.91 3.795.825 7.634 1.414 11.483.363 1.102-.301 2.185-.672 3.268-1.043.685-.235 1.371-.47 2.061-.687.301-.093.761-.148.967.014 1.067.836 2.119 1.692 3.171 2.548.96.782 1.92 1.563 2.892 2.33.863.681 1.75 1.334 2.637 1.987.594.437 1.189.875 1.776 1.321a335.347 335.347 0 014.242 3.282 785.437 785.437 0 015.458 4.334c.2.159.356.372.436.909a64.232 64.232 0 01-.875-.166c-.627-.12-1.254-.241-1.885-.333a671.634 671.634 0 00-8.574-1.198c-.314-.043-.646.017-.971.075l-.239.041c-1.227.196-2.523.73-2.643 1.948-.1 1.016.383 2.397 1.102 3.137 2.879 2.967 6.456 4.041 10.643 4.006 3.839-.032 7.532-.585 11.233-1.411.266-.059.655.022.868.188.575.451 1.156.894 1.737 1.337 2.977 2.27 5.95 4.536 8.013 7.816.433.686 1.03 1.265 1.629 1.846.548.532 1.098 1.065 1.523 1.682 1.622 2.355 3.153 4.774 4.684 7.193.442.698.884 1.396 1.328 2.093a285.644 285.644 0 013.785 6.082c.164.276.24.607.315.937.036.156.071.312.116.462-.18.09-.361.179-.54.272a76.117 76.117 0 00-.45-.543 31.858 31.858 0 01-.944-1.167c-3.322-4.378-7.801-7.15-12.737-9.34-1.421-.63-2.821-1.447-3.995-2.453-2.982-2.556-6.485-4.119-9.99-5.682-.718-.32-1.436-.64-2.149-.969-.994-.459-2.04-.808-3.085-1.156-.28-.093-.56-.187-.838-.282-1.085-.369-2.226-.738-3.102.39-.907 1.166-1.039 2.499-.44 3.828.94 2.088 2.464 3.858 4.49 4.727 3.392 1.455 6.952 2.542 10.49 3.621.931.284 2.088.154 3.064-.093 4.028-1.021 7.276.371 10.48 2.731 2.691 1.985 4.944 4.341 7.13 6.803 3.276 3.69 5.339 7.921 6.713 12.459h2.194zM63.829 202.923l.383.337c.38.334.69.747 1 1.16.143.19.285.38.435.562l-.23.366c-.199-.095-.399-.187-.598-.279a15.922 15.922 0 01-1.266-.625c-.353-.202-.708-.402-1.062-.602-1.522-.861-3.045-1.722-4.508-2.676-.714-.465-1.636-1.262-1.006-2.188.22-.326 1.697-.212 2.259.187 1.613 1.137 3.107 2.451 4.593 3.758zm76.04 26.272c1.718.679 7.073 11.37 6.642 13.15l-.205-.274c-2.94-3.927-5.793-7.739-6.437-12.876zM7.185 132.809l.156-.259c4.599.224 8.556 2.068 12.226 5.04-.754 1.198-1.66 1.122-2.62.916-2.814-.609-5.32-1.885-7.631-3.557-.546-.395-1.051-.847-1.556-1.3-.234-.209-.469-.419-.707-.623l.132-.217zm33.292 81.039c-.183-.096-.372-.195-.568-.276 1.824-2.59 10.47-4.806 14.191-3.741-.206.185-.392.377-.57.561-.362.373-.69.712-1.09.896-3.451 1.584-7.004 2.877-10.861 2.943-.358.005-.719-.183-1.102-.383zm121.096 37.601c-1.855 2.12-3.989 3.894-6.664 4.869-1.512.553-2.915.051-3.853-1.229.325-.266.644-.543.964-.821.697-.605 1.396-1.212 2.165-1.711a136.904 136.904 0 017.056-4.246c.259-.146.643-.072 1.028.002.178.034.357.069.524.081a11.74 11.74 0 00-.063.533c-.043.416-.086.832-.23 1.208-.178.458-.532.863-.868 1.247a3.54 3.54 0 00-.059.067zm-91.564-32.533c.73-.627 1.463-1.259 2.269-1.771 2.814-1.79 5.813-2.831 9.359-1.854-.14.152-.295.29-.443.421-.298.263-.564.499-.602.766-.248 1.783-1.499 2.693-2.755 3.608-.155.113-.31.226-.464.341-2.315 1.726-4.874 1.622-7.447.83-1.172-.359-1.25-1.2-.305-2.008.13-.11.259-.221.388-.333zm50.301-11.735c-2.671 2.191-5.357 4.395-8.955 4.947-1.01.155-2.041.171-3.072.187-.468.007-.936.015-1.402.035-.039-.156-.076-.316-.114-.473.052-.065.099-.136.147-.206.097-.145.194-.29.327-.385.775-.55 1.548-1.105 2.32-1.66 2.332-1.674 4.663-3.349 7.075-4.895 1.04-.667 2.452-.858 3.725-1.01.521-.061 1.359.427 1.613.901.193.362-.13 1.313-.521 1.629-.382.307-.762.618-1.143.93zm1.031 44.363c4.007.27 7.804 1.493 11.58 2.752.507.169.958.509 1.408.849.208.157.416.314.629.454-.057.233-.116.467-.175.701-.773.069-1.546.152-2.319.234-1.743.186-3.486.372-5.233.409-3.22.07-6.407-.279-9.027-2.479-.537-.451-1.079-.988-1.385-1.601-.296-.593-.176-1.318.74-1.347 1.26-.038 2.525-.058 3.782.028zm7.365 16.374c3.208 1.582 6.411 3.177 9.567 4.857l.144.076c1.345.714 2.746 1.457 3.42 3.273-.353.037-.703.103-1.044.168-.72.137-1.403.267-2.003.098-3.08-.868-6.148-1.842-9.127-3.01-2.084-.815-3.748-2.29-4.576-4.486-.399-1.059.257-2.028 1.213-1.793.821.204 1.652.446 2.406.817zm-86.037-97.381c-.713-1.08-1.472-2.23-.942-3.695 3.076-.07 12.752 8.943 15.717 14.702-.213-.039-.405-.062-.578-.083-.322-.039-.58-.07-.794-.183-5.014-2.665-9.984-5.414-13.165-10.377l-.238-.364zm61.046 60.591l.312.102c.635.207 1.242.494 1.849.781.272.128.543.257.817.378.028.18.054.361.079.54-.232.114-.46.24-.688.365-.498.274-.996.548-1.528.701-3.244.93-6.556 1.235-9.897.66a48.088 48.088 0 00-.378-.064c-1.72-.29-3.451-.581-4.856-1.824-1.122-.994-1.122-2.34.2-2.911.969-.42 2.047-.716 3.098-.794 3.837-.286 7.422.892 10.992 2.066zm-46.576-75.693c-4.035 4.543.274 16.923 5.814 20.646 1.287-5.361-3.391-16.587-5.814-20.646zm65.991 71.785c1.951 4.116 3.552 8.383 3.863 13.021.053.797.245 1.586.436 2.374.088.365.176.729.251 1.094-.112.065-.225.127-.335.189a4.3 4.3 0 00-.194-.187c-.141-.129-.281-.259-.373-.416a227.138 227.138 0 00-1.97-3.275c-1.627-2.67-3.255-5.341-4.59-8.15-1.057-2.222-1.684-4.653-2.309-7.076-.186-.72-.371-1.439-.568-2.152-.091-.329.104-.736.3-1.145.09-.189.181-.378.243-.56.156.077.328.142.5.207.377.141.755.283.957.555.285.381.578.759.871 1.138 1.085 1.402 2.176 2.813 2.918 4.383zm-85.41-89.457c.396-.756.792-1.511 1.169-2.274.168-.342.456-.624.79-.952.172-.168.357-.349.543-.556 1.605 3.769 1.574 7.299.297 10.621-1.088 2.823-2.484 5.529-3.878 8.232-.396.767-.791 1.534-1.18 2.303-.213.421-.949.889-1.344.815-.403-.076-.798-.749-.99-1.242-.169-.434-.128-.993-.045-1.473.108-.633.246-1.261.385-1.89.118-.539.237-1.077.336-1.619a59.92 59.92 0 00.31-1.886c.095-.62.19-1.241.304-1.858.55-2.972 1.927-5.598 3.303-8.221zm12.384 49.267c2.592.737 5.183 1.475 7.712 2.385 1.668.599 3.258 1.416 4.848 2.232.71.366 1.422.731 2.14 1.077l-.211.577c-.466-.002-.932.001-1.397.004-1.003.005-2.007.011-3.008-.029-6.443-.254-12.729-1.304-18.7-3.834-.6-.256-1.146-.637-1.705-1.027-.268-.187-.539-.377-.82-.555.312-.255.588-.512.847-.752.52-.484.97-.903 1.503-1.12 1.97-.805 3.98-.357 5.94.221.948.279 1.9.55 2.851.821zm54.041 20.114l-.003.139c-.012.501-.151.999-.289 1.497-.063.226-.126.453-.177.679l-.386.052a3.858 3.858 0 00-.163-.23c-.124-.168-.248-.335-.302-.522a695.388 695.388 0 01-1.185-4.219 611.037 611.037 0 00-1.352-4.806c-.37-1.292-.753-2.58-1.136-3.868-.649-2.186-1.299-4.372-1.885-6.574-.5-1.873-.865-3.852.606-5.518.305-.344 1.122-.687 1.399-.522.853.505 1.868 1.109 2.268 1.941 1.748 3.635 2.609 7.537 2.684 11.57.067 3.46-.006 6.923-.079 10.381zm-21.847-19.575c.767 2.788 1.447 5.612 1.948 8.46.307 1.744.227 3.564-1.291 5.453-.55-1.027-1.09-2.029-1.622-3.013-1.217-2.255-2.385-4.421-3.514-6.607-1.065-2.061-2.12-4.139-2.982-6.29-1.003-2.497-1.776-5.089-1.634-7.842.09-1.752.662-2.149 2.325-1.506 2.297.885 3.647 2.762 4.55 4.905a51.89 51.89 0 012.22 6.44zm-66.041-23.681c5.648-.575 11.235.087 16.667 1.708 1.238.37 2.41.955 3.584 1.541.536.267 1.071.534 1.613.781l-.004.027c-.032.192-.064.387-.094.579a9.649 9.649 0 00-.52.269c-.374.204-.748.407-1.147.486-.81.16-1.618.337-2.427.514-3.538.776-7.09 1.554-10.736.884-3.413-.626-6.776-1.547-10.128-2.464a79.64 79.64 0 00-.463-.127c-1.397-.381-1.707-1.688-.602-2.363 1.315-.803 2.784-1.685 4.257-1.835zm3.244-48.645c.836-1.787 1.69-3.578 2.725-5.249.103-.165.201-.339.301-.514.531-.935 1.1-1.937 2.523-2.197.08.26.156.522.23.782.169.583.335 1.162.551 1.721 1.534 3.976 2.08 8.012 1.16 12.244-.624 2.87-2.475 4.815-4.466 6.727-1.13 1.082-1.609 1.07-2.37-.29-1.884-3.365-2.036-6.977-1.393-10.67.153-.869.37-1.761.74-2.554z" clip-rule="evenodd"/><path fill="#202020" fill-rule="evenodd" d="M155.444 300l-.108-.208c-.402-.785-.797-1.574-1.192-2.363-1.233-2.465-2.468-4.932-3.919-7.261-1.073-1.725-2.592-3.193-4.08-4.632l-.47-.456c-.407-.395-1.626-.544-2.016-.233-.647.516-1.251 1.485-1.277 2.282-.023.743.261 1.496.544 2.246.105.28.211.56.3.838.092.291.218.57.344.849.056.123.111.246.164.37l-.244.27c-.136-.09-.278-.174-.42-.258-.31-.183-.619-.367-.864-.614-.831-.842-1.648-1.698-2.466-2.554-1.391-1.458-2.783-2.916-4.243-4.301-2.213-2.098-4.585-4.018-7.52-5.107-1.872-.695-3.129-.052-2.877 1.875.189 1.454.835 2.922 1.569 4.22 1.719 3.044 4.516 4.835 7.712 6.049a541.64 541.64 0 004.246 1.585c.981.363 1.962.726 2.942 1.093.125.047.241.119.448.246.123.075.278.171.485.292-.296.068-.547.124-.768.173-.381.084-.676.149-.967.229-.556.155-1.125.284-1.694.414-1.32.301-2.641.602-3.797 1.214-1.546.818-1.977 2.133-1.627 3.742h2.088a2.897 2.897 0 01-.076-.441c-.092-.972.219-1.528 1.164-1.998 2.681-1.335 5.491-1.12 8.299-.902 1.296.099 2.135.94 2.508 2.272-.63.211-1.242.426-1.845.637-.417.147-.829.292-1.239.432h10.896zm-7.906-10.446c1.021 1.43 2.043 2.86 2.95 4.357.416.685.696 1.454.976 2.222.126.344.251.689.389 1.026l-.277.229c-.1-.057-.208-.107-.315-.157-.235-.11-.471-.22-.627-.398-.325-.373-.653-.743-.981-1.114-1.215-1.373-2.431-2.748-3.511-4.222-.593-.81-.96-1.793-1.322-2.765a51.74 51.74 0 00-.288-.757c-.067-.173.027-.41.121-.646.043-.108.086-.216.114-.317.095.033.197.058.299.083.223.054.446.109.595.243.492.444.963.933 1.346 1.472l.531.744zm-20.606-9.136c-.664 4.394 8.119 10.304 12.756 10.428-.832-1.947-10.095-10.795-12.756-10.428zM135.737 0c.222.873.833 1.457 1.691 1.46 1.447.004 2.931-.228 4.336-.598A39.914 39.914 0 00144.548 0h10.896c1.245 2.369 2.791 4.303 5.507 5.277 1.212.435 2.323 1.151 3.435 1.868.525.339 1.051.678 1.588.987.273.156.56.287.837.414.129.059.257.117.38.176.064-.092.119-.16.161-.214.067-.084.103-.129.097-.167a111.75 111.75 0 00-.441-2.508 55.226 55.226 0 00-1.4-5.833h2.194l.075.264c.577 2.043 1.063 4.11 1.558 6.216.22.936.442 1.88.674 2.831.118-.097.225-.172.318-.238.164-.115.283-.198.333-.312.278-.624.561-1.246.844-1.868.855-1.878 1.71-3.757 2.416-5.689.063-.174.131-.349.199-.524.086-.225.173-.451.254-.68h5.985c-.189.183-.38.364-.571.545-.663.63-1.326 1.26-1.908 1.957-.323.388-.503.895-.686 1.407-.084.235-.168.47-.266.697 3.077 1.054 7.985-1.283 11.188-4.606h3.038c-.047.062-.095.123-.143.183-1.891 2.379-4.397 3.942-7.004 5.424-3.139 1.789-6.473 1.963-10.103 1.704-.031.045-.073.1-.121.163-.133.174-.313.41-.439.67-.409.838-.632 1.747-.855 2.656-.343 1.4-.686 2.799-1.708 3.936-.078.088-.087.261-.084.394.02.613.038 1.226.056 1.839.058 1.937.116 3.874.228 5.807.021.37.181.731.391 1.206.115.258.244.55.374.894 1.933-4.085 4.843-6.667 8.316-8.73 1.648-.98 2.524-.784 2.47 1.155-.07 2.439-.351 4.959-1.083 7.275-.792 2.502-1.743 4.953-2.694 7.404-.663 1.707-1.325 3.414-1.934 5.138-.841 2.383-1.409 4.8-.472 7.393.9 2.497 1.713 5.026 2.525 7.555.483 1.505.967 3.01 1.469 4.51.342 1.018.788 2.004 1.232 2.985l.092.203c.277.612.571 1.217.865 1.822.328.674.655 1.349.96 2.033.342.768.409 1.565-.634 1.84-.933.247-1.485-.145-1.798-1.125-.64-2.014-1.376-3.999-2.137-5.97-.759-1.972-1.551-3.931-2.293-5.768l-.818-2.03a40.025 40.025 0 00-.943-.202c-.613-.126-1.151-.237-1.664-.418-.424-.148-.833-.343-1.242-.538-.52-.249-1.039-.497-1.587-.646-.882-.241-1.783-.427-2.684-.612-1.487-.306-2.972-.612-4.36-1.167-5.053-2.017-9.312-5.276-12.901-9.351-1.534-1.742-2.613-3.78-2.958-6.136-.193-1.313.62-2.43 1.929-2.538.531-.042 1.084.018 1.61.117 4.295.795 8.282 2.183 11.813 4.965 2.996 2.361 5.908 4.718 8.15 7.842.688.959 1.453 1.862 2.218 2.765.346.408.692.817 1.031 1.23-.177-1.293-.543-2.513-.976-3.707-.268-.736-.569-1.465-.869-2.193-.595-1.442-1.189-2.883-1.531-4.383-.336-1.477-.517-2.983-.698-4.492-.264-2.189-.527-4.382-1.266-6.492-.125-.354-.182-.731-.247-1.15a19.056 19.056 0 00-.106-.64l-.703.266c-.434.163-.821.309-1.203.465-1.873.77-3.812 1.263-5.811.714-3.826-1.053-7.002-3.187-9.607-6.162-.911-1.04-.753-2.243.435-2.976.556-.343 1.242-.552 1.895-.644 3.832-.542 7.163.954 10.428 2.662 1.042.544 2.073 1.11 3.224 1.743.535.294 1.095.602 1.695.928-.142-.664-.274-1.287-.399-1.88-.279-1.317-.527-2.49-.792-3.66-.493-2.184-1.866-3.059-4.022-2.64-.313.061-.629.134-.945.207-.909.21-1.825.42-2.716.353-2.592-.195-5.191-.536-7.731-1.078-1.37-.292-2.782-.917-3.894-1.76-1.575-1.198-1.349-2.85.436-3.565.976-.393 2.025-.603 3.075-.813.488-.098.976-.196 1.457-.312.311-.076.62-.165.964-.264.166-.048.341-.099.529-.151a17.748 17.748 0 01-.395-.62c-.218-.352-.391-.631-.615-.857l-.431-.435c-.772-.78-1.548-1.566-2.444-2.166-.231-.155-.679.023-1.136.203-.23.09-.462.182-.669.233-.107.026-.22.024-.333.022a1.276 1.276 0 00-.341.024c-.648.169-1.293.345-1.939.52-.646.176-1.291.352-1.938.52-.627.164-1.253.337-1.879.51-1.582.438-3.165.876-4.775 1.158-1.867.326-3.51-.79-4.109-2.39a7.249 7.249 0 01-.292-.975h2.088zm26.017 8.459c.443.203.886.405 1.332.599.077.033.124.136.2.302.046.103.104.23.187.38a20.77 20.77 0 00-1.101.311c-.749.226-1.461.441-2.173.451-3.182.04-6.268-.533-9.112-2.047-.218-.116-.388-.319-.557-.522-.078-.093-.155-.185-.237-.27.097-.084.191-.186.284-.289.207-.225.414-.45.651-.49.397-.066.806-.063 1.215-.06.441.003.882.006 1.307-.078 2.967-.591 5.485.56 8.004 1.713zm-6.996 7.883c1.351.152 2.699.36 4.029.636 2.981.614 5.4 2.294 7.922 4.236-.992 1.097-2.142 1.507-3.341 1.492-3.864-.049-6.762-2.128-9.343-4.74-.257-.26-.383-.85-.279-1.197.071-.231.675-.463 1.012-.427zm25.123 2.027c.237-.045.507-.096.811-.176-.587 4.795-2.269 9.048-3.964 13.331-.827 2.09-1.656 4.186-2.363 6.356-1.325-2.298-2-4.492-1.954-6.693.111-5.156 2.4-9.34 6.484-12.497.232-.18.556-.24.986-.321zm-28.25 12.592c3.312.542 6.492 1.592 9.187 3.599 4.383 3.26 8.517 6.81 11.154 12.214-2.481-.056-4.786-.368-6.923-1.116-4.639-1.628-8.652-4.346-11.903-8.044-1.228-1.396-2.268-3.024-3.082-4.697-.753-1.549-.129-2.235 1.567-1.956z" clip-rule="evenodd"/><path fill="#202020" d="M.657 33.982c2.916 2.212 5.747 4.36 6.454 8.43.069.391.18.779.293 1.17.287.998.582 2.024.189 3.216C4.876 44.886 1.978 41.453 0 38.123v3.113c.162.184.328.364.5.537.421.42.84.84 1.26 1.262 1.669 1.676 3.337 3.353 5.087 4.94.375.34.95.457 1.526.573.265.054.53.107.774.182.054-.254.13-.511.207-.768.166-.56.332-1.12.265-1.652-.4-3.18-1.425-6.213-2.904-9.037-.459-.877-1.315-1.573-2.138-2.242-.152-.123-.303-.246-.45-.369-.771-.643-1.569-1.257-2.366-1.87C1.17 32.338.58 31.884 0 31.418v2.063c.219.168.438.334.657.5z"/><path fill="#202020" fill-rule="evenodd" d="M0 19.474c.794.511 1.58 1.034 2.355 1.571.684.476 1.286 1.279 1.586 2.061.58 1.514 1.109 3.046 1.637 4.58a145.74 145.74 0 001.604 4.49l.323.85c.816 2.156 1.64 4.333 2.79 6.308 1.486 2.552 3.347 4.9 5.19 7.22.428.54 1.476.903 2.177.822 1.053-.12 1.35-1.266 1.317-2.139-.064-1.715-.234-3.453-.617-5.123-.075-.329-.148-.661-.221-.995-.406-1.854-.82-3.751-1.74-5.327-1.126-1.93-2.536-3.693-3.947-5.456-.599-.749-1.198-1.498-1.776-2.26a7.43 7.43 0 00-.203-.25 23.922 23.922 0 01-.153-.185c.078-.04.152-.088.22-.134.133-.087.245-.161.33-.137.538.152 1.095.274 1.652.396 1.329.29 2.66.582 3.734 1.274 3.372 2.164 6.053 5.14 8.437 8.392 1.395 1.904 2.876 3.744 4.358 5.585.74.919 1.48 1.838 2.21 2.765.304.387.617.769.931 1.15.817.992 1.634 1.985 2.29 3.074 2.067 3.43 1.417 7.105.557 10.709-1.523 6.385-.832 12.477 2.39 18.191 1.372 2.436 3.526 4.238 5.78 5.862.64.461 1.32.401 1.491-.535.094-.52.11-1.056.127-1.591.006-.2.012-.399.022-.597.226-4.427-.465-8.781-1.356-13.072-.357-1.725-.973-3.394-1.59-5.066-.371-1.01-.744-2.02-1.06-3.045-.47-1.517-.87-3.056-1.293-4.69-.195-.752-.395-1.524-.61-2.323.174.127.323.231.454.323.242.17.425.298.591.444.523.452 1.034.92 1.545 1.388 1.076.985 2.152 1.97 3.331 2.81 2.776 1.974 3.546 4.887 4.284 7.925 1.086 4.451 2.28 8.878 3.488 13.3.08.292.305.538.534.788.16.175.324.353.438.55.26.447.526.948.58 1.447.763 7.224 4.756 12.65 9.812 17.424 2.14 2.018 4.401 3.909 6.662 5.798.585.49 1.171.979 1.754 1.471.218.183.542.242.865.3.151.027.303.055.443.095.04-.142.099-.288.157-.435.127-.316.254-.631.183-.895-.092-.348-.183-.698-.273-1.048-.438-1.693-.879-3.394-1.556-4.992-2.47-5.822-5.957-10.949-10.856-15.045-1.737-1.453-3.473-2.916-5.116-4.475-.988-.938-1.496-2.193-1.367-3.782l1.17.852c.817.597 1.635 1.195 2.461 1.78 3.97 2.804 8.327 4.573 13.23 4.758.388.016.783-.168 1.178-.352.183-.086.367-.171.55-.237-.097-.16-.184-.333-.271-.505-.19-.379-.38-.757-.678-1.012l-.824-.718c-1.623-1.418-3.251-2.84-5.005-4.078-3.159-2.232-6.516-4.112-10.527-4.352-1.772-.108-3.2-.7-3.773-2.608a37.33 37.33 0 00-.78-2.249 52.244 52.244 0 01-.576-1.602c-.058-.175-.05-.374-.041-.642.005-.149.011-.32.008-.52.33.215.635.419.924.613.58.389 1.098.736 1.637 1.047 2.536 1.46 5.253 2.058 8.204 2.017 2.248-.03 4.521.225 6.747.577 2.042.324 4.077.697 6.112 1.07 2.608.478 5.216.956 7.838 1.33 2.247.32 3.251 1.607 4.003 3.487 2.624 6.55 6.417 12.092 12.673 15.841 4.17 2.497 8.415 4.756 12.928 6.527.651.255 1.335.498 2.022.576 1.165.13 1.638-.568 1.041-1.574-.173-.29-.344-.583-.515-.876-.789-1.353-1.583-2.714-2.588-3.886l-.786-.918c-2.898-3.387-5.807-6.786-9.023-9.855-1.458-1.39-3.33-2.366-5.184-3.333a78.555 78.555 0 01-1.627-.864c-1.458-.804-2.958-1.532-4.457-2.26-.766-.372-1.53-.743-2.29-1.125-.104-.052-.19-.142-.33-.292-.09-.093-.2-.21-.352-.356.421-.124.817-.258 1.196-.387.792-.268 1.514-.513 2.256-.596 3.01-.337 5.496-1.778 7.716-3.644 1.679-1.41 3.294-2.895 4.909-4.38 1.198-1.102 2.395-2.203 3.619-3.274 1.228-1.075 2.508-2.09 3.82-3.13.595-.472 1.198-.949 1.805-1.44.209.404.395.778.571 1.13.343.69.645 1.293.989 1.872a307.708 307.708 0 004.216 6.876c1.647 2.59 2.654 5.39 2.962 8.442.041.406.09.82.216 1.204.269.826.752 1.08 1.614.66 2.216-1.08 2.683-3.125 2.647-5.214-.069-3.93-1.397-7.535-3.529-10.818-.456-.702-.999-1.348-1.543-1.994-.303-.36-.606-.721-.895-1.092-.131-.167-.222-.365-.321-.58a8.013 8.013 0 00-.155-.323c.077-.04.151-.088.22-.134.137-.091.259-.171.359-.15.867.176 1.753.212 2.64.248 1.716.07 3.437.14 5.036 1.223 2.732 1.852 5.921 2.702 9.192 3.178.383.057.763.147 1.142.236.548.13 1.096.26 1.649.287 2.059.096 4.119.154 6.18.213 1.229.035 2.458.07 3.686.112.489.017.979.056 1.468.095.622.05 1.244.1 1.866.103 1.232.005 1.745-.742 1.12-1.815-.592-1.012-1.387-1.95-2.247-2.756-3.143-2.937-6.872-4.938-11.144-5.245-1.927-.14-3.899.245-5.859.626-.649.126-1.296.252-1.94.36-.549.09-1.083.278-1.616.466-.523.185-1.046.37-1.585.462l-.009.002c-1.973.342-3.967.688-5.962.75-1.664.05-3.334-.065-5.003-.18-.589-.041-1.178-.082-1.767-.115-.175-.01-.346-.085-.57-.184-.122-.053-.259-.113-.421-.174.145-.238.275-.477.403-.709.262-.48.511-.933.844-1.312 5.461-6.196 8.048-13.478 8.269-21.668l.035-1.192c.042-1.338.083-2.676.076-4.014-.003-.434-.162-1.06-.463-1.247-.296-.182-.928-.026-1.309.175-.13.07-.261.138-.392.207-1.217.638-2.444 1.282-3.539 2.095-.692.513-1.269 1.346-1.603 2.159-1.67 4.074-1.901 8.297-1.473 12.671.115 1.162-.086 2.349-.288 3.54-.159.942-.319 1.887-.324 2.826-.016 3.153-1.816 5.195-3.924 7.09-1.812 1.628-3.662 3.213-5.513 4.798-.622.533-1.244 1.065-1.864 1.6-.067.058-.158.088-.312.14-.092.03-.207.069-.354.125.073-.37.144-.72.213-1.057.143-.705.275-1.351.385-2 .077-.452.158-.903.239-1.354.503-2.783 1.003-5.554.334-8.449-.195-.847-.186-1.741-.177-2.635.008-.89.017-1.779-.175-2.622-.42-1.838-1.009-3.636-1.598-5.435-.286-.871-.572-1.743-.838-2.619-.172-.563-.328-1.13-.484-1.699-.215-.783-.429-1.565-.685-2.334-.101-.302-.323-.564-.546-.826-.101-.12-.202-.239-.292-.362-.116.085-.248.163-.38.24-.283.165-.566.331-.696.578-2.5 4.803-3.916 9.82-2.708 15.283.36 1.63.747 3.253 1.133 4.876l.497 2.1c.123.526.243 1.053.364 1.58.3 1.32.602 2.64.956 3.944.43 1.588.866 3.192 1.521 4.692.343.784.292 1.288-.312 1.703-.473.325-.943.655-1.413.984-1.558 1.094-3.119 2.19-4.78 3.096-4.296 2.347-8.815 2.674-13.574 1.355-1.798-.5-3.666-.749-5.533-.998-.89-.119-1.78-.238-2.663-.384-.582-.097-1.154-.251-1.717-.675.415-.116.832-.226 1.249-.335.937-.247 1.874-.494 2.79-.806.512-.174 1.03-.341 1.549-.509 2.796-.901 5.613-1.81 7.723-3.988 1.132-1.168 2.192-2.723 2.541-4.27.839-3.69 1.44-7.434 2.043-11.176.14-.87.28-1.74.422-2.608.052-.32-.289-.871-.596-1.031-.214-.114-.841.158-1.01.43-1.457 2.319-3.682 3.719-5.91 5.12l-.33.208c-1.015.64-2.038 1.268-3.062 1.895-2.326 1.424-4.652 2.849-6.868 4.428-2.944 2.099-4.393 5.265-5.35 8.712l-.127.462c-.665 2.428-.709 2.587-3.473 2.454-2.286-.11-4.612-.227-6.823-.752-2.36-.561-4.101-2.26-5.484-4.239-1.728-2.472-3.864-4.469-6.501-5.953-.469-.264-.867-.653-1.264-1.042a14.304 14.304 0 00-.551-.52l.193-.42c.443.111.885.23 1.326.35.958.26 1.917.52 2.892.688l2.092.367c4.104.722 8.21 1.444 12.341 1.962 1.37.172 2.95-.32 4.261-.898 1.547-.683 2.999-1.587 4.445-2.49l.942-.584c.368-.225.825-.77.772-1.093-.064-.39-.573-.788-.983-1.02l-.457-.261c-1.246-.714-2.498-1.43-3.812-1.99l-.004-.001c-2.581-1.1-5.175-2.204-7.847-3.043-3.432-1.077-6.885-.334-10.254.505-1.225.305-2.422.725-3.619 1.145-.795.279-1.59.558-2.395.804-2.398.734-4.58.343-6.609-1.227-4.487-3.473-7.632-8.048-10.75-12.675-.45-.665-1.086-1.202-1.723-1.739-.306-.258-.611-.515-.896-.787-.512-.488-1.02-.978-1.53-1.468-.917-.883-1.834-1.766-2.764-2.636-1.43-1.338-3.12-2.054-5.074-2.396-1.034-.183-2.03-.574-3.026-.966-.445-.175-.891-.35-1.34-.508l-.01-.23-.01-.226c.563-.359 1.123-.722 1.683-1.085a146.065 146.065 0 013.81-2.413c3.637-2.198 5.685-5.45 6.383-9.57.062-.368-.434-1.14-.78-1.217-3.292-.721-7.78.725-9.625 3.616-1.525 2.392-2.716 4.865-3.541 7.545-.35 1.14-1.012 1.618-2.127 1.031a58.493 58.493 0 01-2.222-1.255c-.54-.315-1.079-.63-1.626-.933L0 17.527v1.947zm55.391 53.492c1.876 3.731 11.128 8.586 14.588 7.718-4.14-4.05-8.344-7.57-14.588-7.718zM11.326 18.775c-.582.392-1.165.784-1.739 1.184-.197.136-.471.16-.757.187-.136.012-.274.025-.408.05a4.401 4.401 0 00-.04-.244c-.023-.118-.038-.194-.02-.262.799-3.166 2.095-6.114 4.433-8.425 1.374-1.356 3.188-2.035 5.196-1.904.804.052 1.331.483.93 1.292-.174.35-.339.713-.504 1.079-.543 1.195-1.094 2.41-1.99 3.23-1.557 1.427-3.33 2.62-5.101 3.813zm110.22 40.6c2.003 2.947 3.247 6.27 3.431 9.943.074 1.512-.504 2.564-1.488 3.811a78.259 78.259 0 01-.427-1.633c-.282-1.114-.544-2.147-.92-3.136a49.653 49.653 0 00-2.48-5.518c-.79-1.495-1.641-2.959-2.491-4.423a190.255 190.255 0 01-1.644-2.866c-.084-.151-.049-.368-.011-.601.018-.115.037-.233.043-.35 3.003.375 4.499 2.58 5.881 4.617l.106.157zm-2.817-19.825c-.45-3.508-.284-6.825.65-10.234.724-2.646 2.275-4.042 4.875-4.695 1.556 5.888-2.575 20.519-6.395 22.67.025-.173.051-.337.075-.496.041-.265.08-.514.111-.764.081-.664.202-1.334.323-2.003.273-1.512.547-3.024.361-4.477zM17.443 42.44c.26 1.074.512 2.287-.58 3.175C13.07 43.44 4.71 26.31 6.007 23.326c.058.032.12.058.182.085.128.055.255.11.34.202.348.383.703.762 1.058 1.14.934.996 1.87 1.993 2.688 3.075.304.401.612.801.92 1.202 1.506 1.957 3.022 3.927 4.116 6.1.88 1.745 1.32 3.722 1.76 5.684.12.545.242 1.088.372 1.624zm112.122 12.009c3.78-1.664 7.737-3.038 11.897-2.543 4.433.527 8.129 2.85 11.329 6.543-.254 0-.472.003-.667.006-.361.005-.641.009-.921-.01-.412-.028-.824-.068-1.236-.107-.733-.07-1.466-.14-2.2-.145a30.307 30.307 0 00-2.031.079c-1.089.066-2.175.133-3.242.01a79.911 79.911 0 01-8.841-1.512c-1.001-.23-1.945-.705-2.89-1.18a30.145 30.145 0 00-1.293-.624l.05-.274.045-.243zm-60.972 46.366c-4.464-3.886-8.724-7.97-11.319-13.429-.915-1.924-1.73-3.905-1.473-6.35 7.8 5.654 13.86 12.294 16.066 21.829-1.162-.6-2.314-1.215-3.274-2.05zm30.374-64.547c.312-1.438.623-2.872 1.531-4.147 5.212 8.803 5.308 17.94 2.921 27.313l-.279.052-.221.04a36.704 36.704 0 00-.291-.77c-.22-.568-.441-1.136-.595-1.72-.376-1.423-.732-2.85-1.088-4.278a344.05 344.05 0 00-1.006-3.964c-1.044-3.983-1.974-7.965-1.06-12.123.03-.134.06-.269.088-.403zM37.685 74.065c-1.027-2.581-1.49-5.453-1.788-8.242-.412-3.864.842-7.55 2.118-11.286.038.072.078.142.119.212.09.158.181.315.235.485.559 1.753 1.109 3.509 1.659 5.265l.34 1.089c.24.763.492 1.523.745 2.283.593 1.782 1.186 3.565 1.592 5.39.357 1.596.485 3.245.614 4.892.047.61.095 1.22.154 1.825.102 1.062.196 2.13.18 3.194-.018 1.163-.384 1.366-1.359.752-2.22-1.4-3.705-3.582-4.61-5.859zm62.257 5.823c2.824 2.752 5.58 5.582 8.213 8.514 1.171 1.302 2.218 2.716 3.263 4.129.467.63.934 1.26 1.411 1.88l-.206.254-.196.24c-3.532-1.087-6.745-2.898-9.924-4.75l-.024-.013c-3.225-1.878-6.47-3.768-8.842-6.77-2.247-2.844-4.406-5.742-5.666-9.476.893.401 1.76.787 2.608 1.165 2.095.932 4.073 1.812 6.024 2.748 1.18.565 2.422 1.183 3.34 2.079zM56.984 54.203c-3.638-.667-7.28-1.335-10.869-2.21-1.314-.32-2.568-.887-3.822-1.453a49.628 49.628 0 00-1.71-.747l.06-.272.031-.132c.275-.092.551-.18.828-.267a26.028 26.028 0 001.73-.593c3.265-1.3 6.574-2.504 10.093-2.81 5.761-.5 10.616 1.9 15.173 5.078.19.132.303.783.208.85-.316.224-.628.457-.94.69-1.728 1.29-3.462 2.586-5.863 2.384-.423-.035-.849-.06-1.275-.084-.928-.053-1.856-.105-2.763-.272l-.88-.162zm20.671-2.035c.676-.404 1.353-.807 2.023-1.221a2181.32 2181.32 0 006.429-3.99l2.063-1.282c.004.19.013.358.022.51.017.29.03.525-.006.75a92.68 92.68 0 00-.319 2.242c-.249 1.862-.499 3.726-1.024 5.508l-.046.158c-.668 2.266-1.394 4.73-3.807 5.905-2.37 1.156-4.772 2.315-7.27 3.13-1.563.51-3.205.776-4.846 1.042-.636.103-1.272.206-1.903.324-.656.123-.896-.21-.804-.868.582-4.159 2.351-7.628 5.916-9.998 1.166-.774 2.368-1.492 3.572-2.21z" clip-rule="evenodd"/><path fill="#202020" d="M0 4.092c1.888-.786 3.723-1.742 5.517-2.81.15-.09.307-.174.463-.256.285-.151.569-.302.822-.494.24-.184.433-.36.575-.532H4.51c-.08.119-.222.236-.433.352-.48.262-.958.54-1.436.82C1.771 1.679.9 2.188 0 2.606v1.486z"/><path fill="#202020" fill-rule="evenodd" d="M0 44.3v21.433c.634-2.686.983-5.428.945-8.247a7.907 7.907 0 01.438-2.696c.175.417.355.832.535 1.247.393.902.785 1.805 1.115 2.73.217.61.428 1.223.639 1.836.956 2.78 1.91 5.556 3.46 8.097 2.191 3.59 4.513 7.066 8.325 9.142 1.664.906 3.438 1.62 5.201 2.323 1.02.41 1.693-.239 1.321-1.276-.346-.965-.834-1.9-1.378-2.776-.421-.678-.837-1.361-1.252-2.044-2.267-3.726-4.538-7.457-7.723-10.501-1.593-1.524-3.366-2.866-5.131-4.202l-.71-.538c-1.522-1.156-2.436-2.686-2.952-4.447-.472-1.604-.904-3.22-1.336-4.837-.378-1.415-.756-2.83-1.16-4.236-.098-.34-.213-.676-.337-1.009zm5.24 16.306c1.69 8.294 9.683 16.992 14.411 17.158-3.8-6.675-7.5-13.114-14.41-17.158zM300 33.481c-.834-.638-1.662-1.294-2.437-2.013-.023 1.696.946 4.146 2.437 6.655v3.113a30.978 30.978 0 01-.449-.524c-.135-.158-.269-.316-.405-.472a20.203 20.203 0 00-.383.153c.034.164.062.33.09.497.059.357.119.713.236 1.05.161.466.345.925.529 1.384.13.325.26.649.382.976v21.432c-.46 1.95-1.07 3.87-1.791 5.768-.534 1.405-1.186 2.736-2.42 3.657-.291.216-.815.38-1.1.259-.259-.11-.434-.63-.472-.988-.031-.297 0-.598.031-.9.024-.235.048-.471.043-.706a608.86 608.86 0 00-.095-4.051c-.063-2.441-.126-4.883-.135-7.325-.009-2.576.702-5.008 1.413-7.44.413-1.409.825-2.818 1.097-4.256.464-2.457.79-4.978.807-7.473.019-2.288-.028-4.74-.821-6.828-.654-1.72-.978-3.485-1.302-5.244-.203-1.103-.406-2.204-.689-3.292-.673-2.584-1.411-5.184-2.468-7.625-1.012-2.343-2.38-4.592-4.795-5.836-5.121-2.634-9.82-5.91-14.416-9.348a73.889 73.889 0 00-2.215-1.572c-.35-.242-.699-.484-1.047-.728l-.303.182c.144.566.282 1.133.42 1.7.324 1.329.648 2.657 1.04 3.966l.044.147c.35 1.169.718 2.396 1.412 3.354.68.939 1.762 1.637 2.768 2.287l.029.019a78 78 0 001.209.759c1.809 1.12 3.6 2.23 4.991 3.991 3.868 4.896 5.664 10.501 6.178 16.603.056.664-.184 1.393-.435 2.033-.389.99-1.079 1.096-1.736.233-.379-.497-.765-.991-1.152-1.485-1.249-1.597-2.501-3.197-3.508-4.935-.537-.927-1.083-1.85-1.629-2.773-2.382-4.03-4.766-8.066-6.488-12.452-.101-.257-.366-.45-.63-.641-.122-.089-.244-.177-.35-.272-.032.14-.069.282-.106.423-.091.349-.183.698-.198 1.05-.006.13.09.259.187.39.088.12.178.241.197.367l.032.204c.072.446.152.936-.011 1.294-.891 1.944-.979 3.85-.173 5.848.441 1.097.742 2.259 1.013 3.412.086.367.112.75.139 1.132.031.442.062.883.184 1.3 1.064 3.637.958 7.31 0 10.885-1.36 5.062-2.869 10.084-4.378 15.105-.361 1.202-.722 2.404-1.081 3.606-.091.3-.342.554-.593.806-.117.118-.234.235-.335.358a45.465 45.465 0 00-.224-.37c-.198-.326-.397-.651-.565-.991-.051-.104-.043-.235-.034-.368a1.49 1.49 0 00.002-.24c-.097-.879-.19-1.758-.283-2.636-.232-2.183-.464-4.365-.753-6.54-.12-.9-.31-1.792-.5-2.684a39.834 39.834 0 01-.458-2.389c-.518-3.498.467-6.765 1.935-9.849 1.552-3.257 2.852-6.58 3.752-10.068.284-1.1.491-2.168-.219-3.312-.11.056-.219.109-.326.16-.235.113-.461.222-.668.357-.529.348-1.06.693-1.591 1.038-1.48.963-2.96 1.925-4.399 2.944-2.146 1.517-4.357 2.622-7.112 2.36-1.035-.098-2.083-.058-3.241-.015-.553.02-1.131.043-1.745.05.13-.295.233-.566.328-.814.181-.475.329-.864.573-1.179 2.312-2.974 5.201-5.282 8.548-6.984 2.353-1.196 4.74-1.858 7.524-1.225 2.463.561 2.9.323 2.787-2.465-.186-4.536-.992-8.983-1.835-13.427a88.071 88.071 0 01-.303-1.709l-.06-.344h3.597c1.699 1.479 3.771 2.505 5.925 3.406.841.354 1.32.075 1.796-.52l.983-1.229c.442-.553.884-1.106 1.328-1.657h1.828c-.258.335-.502.683-.746 1.032-.378.541-.756 1.082-1.187 1.57a13.39 13.39 0 00-.745.963c-.138.19-.289.397-.463.628.188.071.361.148.525.221.321.143.606.27.903.306 5.798.69 11.524.15 17.098-1.476.568-.166 1.12-.385 1.663-.638v1.486c-3.338 1.391-6.842 2.254-10.577 2.284-2.302.018-4.604-.158-6.907-.333-1.131-.086-2.262-.172-3.393-.235-.084-.005-.171.06-.276.138a2.135 2.135 0 01-.181.126c1.983 1.981 4.387 3.161 6.787 4.33.111.053.222.109.335.165.815.405 1.682.836 2.517.828 1.005-.01 1.745.226 2.493.793.657.497 1.324.997 2.04 1.4 1.557.872 3.123 1.728 4.689 2.584.825.45 1.65.902 2.473 1.355v1.947a123.221 123.221 0 00-4.211-2.584c-.663-.39-1.389-.672-2.114-.953-.332-.128-.664-.257-.989-.396l-.319.299c.054.168.106.338.158.508.116.38.232.76.374 1.13.28.72.604 1.436.927 2.15.708 1.566 1.416 3.131 1.671 4.768.401 2.57 1.518 4.464 3.341 6.052.38.331.769.653 1.162.97v2.063zm-46.871-7.619c2.44-2.688 5.376-4.672 8.722-6.042 1.85-.759 3.65-.467 5.622.432-.128.132-.228.245-.314.34-.149.167-.252.282-.377.364-.636.414-1.27.832-1.904 1.25-1.812 1.193-3.623 2.386-5.48 3.505-1.738 1.048-3.626.882-5.588.71-.319-.027-.639-.055-.961-.079.062-.107.106-.191.142-.258a.976.976 0 01.138-.222zm43.555 45.122l-.234.694c-.071.21-.294.372-.53.542-.114.083-.232.167-.337.261-.778-8.16-.534-16.041 2.843-23.561l.208.305c.747 3.435.923 6.924.676 10.41-.143 1.989-.511 3.98-.977 5.922-.439 1.835-1.045 3.633-1.649 5.427zm-22.781-55.716c.356 2.853 10.063 18.978 11.852 19.566.923-7.432-6.109-18.973-11.852-19.566zm-6.595 18.442c.535-1.075 1.071-2.15 1.501-3.266.28-.73.427-1.51.574-2.292.066-.351.132-.703.21-1.05l.335.08.315.074c.049.186.094.374.139.562.096.402.192.804.329 1.192 1.263 3.56 1.595 7.24.723 10.874-.825 3.447-1.825 6.853-2.825 10.258-.371 1.266-.743 2.533-1.106 3.802-.069.245-.201.472-.332.7-.061.106-.123.213-.178.321l-.318-.041a12.453 12.453 0 00-.067-.266c-.05-.197-.101-.395-.137-.596-.144-.808-.281-1.618-.405-2.429-.107-.705-.219-1.41-.33-2.114-.286-1.807-.571-3.613-.791-5.427-.392-3.233.373-6.272 1.769-9.176.194-.403.394-.805.594-1.206z" clip-rule="evenodd"/><path fill="#202020" d="M249.529 0l.133.834c.125.774.25 1.549.345 2.32.028.227.304.591.472.596.278.007.667-.152.827-.372.257-.359.463-.753.669-1.149.1-.192.201-.384.307-.572l.329-.585c.2-.359.401-.717.606-1.072h1.855c-.941 1.686-1.991 3.322-3.039 4.955l-.395.615c-.769 1.2-1.372 1.087-2.093-.14-1.015-1.73-1.546-3.56-1.768-5.43h1.752zM7.377 300c.56-.674.349-1.257-.696-1.784l-.323-.163c-1.627-.824-3.274-1.658-5.007-2.181l-.773-.236-.578-.177v1.801c1.36.439 2.684.99 3.943 1.737.532.317.798.663.567 1.003h2.867zM0 240.964c.713.415 1.427.829 2.142 1.241.361.209 1.137.257 1.352.031.295-.308.412-.998.3-1.45A28.331 28.331 0 000 232.074v2.42c.154.278.306.557.455.838.555 1.046.922 2.193 1.289 3.339.166.52.333 1.04.517 1.551a81.44 81.44 0 01-.137.102l-.277.205c-.336-.207-.67-.42-1.003-.633-.28-.18-.561-.359-.844-.535v1.603z"/><path fill="#202020" fill-rule="evenodd" d="M300 232.075a31.358 31.358 0 00-2.298-3.089c-2.555-3.033-5.693-5.166-9.479-6.244-1.364-.388-2.775-.614-4.188-.84a81.164 81.164 0 01-1.913-.322l-.425-.546c-.439-.565-.928-1.195-1.427-1.817-.218-.271-.431-.548-.644-.824-.57-.74-1.141-1.482-1.805-2.128-.9-.876-1.906-1.65-2.907-2.421l-.505-.39a192.19 192.19 0 00-3.153-2.373c-.504-.375-1.028-.764-1.578-1.175.244-.096.456-.184.649-.264.367-.153.664-.276.971-.365.84-.243 1.692-.459 2.543-.675 1.793-.454 3.585-.909 5.27-1.617 3.418-1.44 5.987-4.072 8.143-7.061.671-.932 1.258-1.926 1.845-2.919l.324-.548c.446-.747.32-1.231-.605-1.589-1.976-.77-3.955-1.148-6.064-.7-.727.155-1.463.271-2.198.387-.448.071-.896.142-1.342.221-5.116.914-9.907 6.382-10.241 11.713-.116 1.867-.875 2.335-2.606 1.684-2.148-.807-4.268-1.408-6.638-.973-.865.157-1.898-.263-2.787-.624l-.067-.027c-1.561-.63-3.082-1.369-4.6-2.106l-.353-.171c-.504-.244-1.001-.559-1.403-.947-.517-.5-.618-1.004.154-1.495.648-.412 1.302-.817 1.957-1.223 2.02-1.251 4.043-2.504 5.901-3.965 2.518-1.978 4.455-4.541 5.396-7.696.796-2.664-1.004-4.648-3.79-4.306-3.974.488-6.8 2.736-9.111 5.806-1.945 2.583-3.416 5.375-3.844 8.636-.024.177-.098.347-.185.545-.045.101-.092.21-.138.33-2.048-.983-3.288-2.535-4.414-4.391-1.371-2.258-1.003-4.463-.616-6.775l.04-.241.255-1.528c.635-3.811 1.272-7.624 1.725-11.458.238-2.012.296-4.044.355-6.077.027-.937.054-1.874.098-2.809.008-.188.038-.376.067-.562a6.41 6.41 0 01.009-.055c.266-1.68.276-1.68 1.825-1.59l.258.015c2.422.131 4.865.26 7.281.103 5.084-.329 10.048.348 14.993 1.384 1.052.221 2.119.391 3.187.513 1.235.144 1.903-.684 1.427-1.833-.296-.712-.722-1.42-1.251-1.976-.323-.34-.645-.683-.967-1.027-1.401-1.494-2.807-2.993-4.38-4.282-2.25-1.846-5.02-2.595-7.909-2.966-2.003-.257-3.855.225-5.729.713l-.363.094c-.267.069-.55.078-.88.089-.171.006-.356.012-.557.027 2.689-3.545 5.109-6.964 6.585-10.976 1.165-3.164 1.175-6.387.833-9.653a56.96 56.96 0 00-.359-2.664c-.075-.501-.15-1.002-.218-1.504-.171-1.264-1.195-1.87-2.175-1.108-.925.718-1.913 1.577-2.396 2.6-1.051 2.225-1.945 4.526-2.839 6.825-.2.515-.4 1.03-.602 1.544-1.024 2.602-2.032 5.21-3.04 7.817-.619 1.6-1.238 3.2-1.86 4.798-.1.255-.225.502-.349.748-.06.117-.119.235-.176.353l-.339-.06c-.067-.841-.131-1.683-.195-2.525-.163-2.147-.327-4.294-.545-6.435-.054-.528-.203-1.046-.353-1.564-.149-.514-.297-1.028-.352-1.552-.488-4.621-1.978-8.945-3.931-13.104-.74-1.575-1.102-2.707-1.451-3.795-.409-1.279-.799-2.498-1.761-4.305-.217-.408-.739-.705-1.184-.915-.132-.062-.711.364-.699.54.032.488.187 1.012.438 1.435.703 1.187.848 1.693 1.024 2.307.134.471.288 1.006.724 1.96 1.395 3.043 2.541 6.206 3.683 9.36l.242.666c.724 1.994.584 2.322-1.117 3.548a50.463 50.463 0 01-2.28 1.522c-1.323.849-2.643 1.696-3.796 2.734-3.368 3.03-4.943 7.011-4.66 11.526.103 1.636.532 3.257.958 4.872.137.518.274 1.036.4 1.553.247 1.017.892 1.155 1.576.449.263-.271.522-.546.782-.82.644-.684 1.289-1.368 1.993-1.984 3.168-2.769 5.352-6.257 7.38-9.873.227-.405.548-.76.963-1.065.89 3.884.872 7.737.853 11.582l-.004 1.108c-.765.861-.536 1.699-.297 2.571.084.306.168.616.212.933.16 1.171.035 2.379-.09 3.587-.051.491-.101.983-.133 1.471-.34 5.345-.812 10.676-1.931 15.928-.051.242-.039.498-.027.754.006.119.012.238.011.355l-.339.002-.339.002c-.099-.191-.201-.381-.302-.571a18.873 18.873 0 01-.649-1.286 90.984 90.984 0 01-.86-2.033c-.541-1.309-1.082-2.616-1.735-3.866-1.461-2.793-3.177-5.449-6.064-7.008-2.993-1.617-6.182-2.549-9.634-2.303-.383.027-.766.051-1.149.074-1.059.065-2.118.13-3.166.277-.884.125-1.796.369-2.588.772-1.131.575-1.1 1.551.052 2.132.588.296 1.203.541 1.817.785.657.261 1.313.522 1.936.846.685.355 1.373.706 2.062 1.057 2.49 1.27 4.982 2.54 7.33 4.035 3.052 1.943 5.95 4.135 8.84 6.323l.971.734c1.052.795 1.984 1.811 2.771 2.872.357.483.33 1.331.293 2.003-.042.745-.136 1.487-.229 2.229-.072.57-.143 1.141-.192 1.713-.128 1.503-.851 2.744-1.988 3.578-.343.252-.953.154-1.549.059a8.193 8.193 0 00-.662-.089c-.657-.051-1.316-.128-1.974-.204-1.389-.161-2.777-.322-4.153-.249-1.755.094-2.966 1.249-4.169 2.396-.372.354-.742.708-1.128 1.029-2.769 2.31-4.091 5.447-5.107 8.764-.297.97.127 1.391 1.126 1.314 4.017-.32 7.714-1.59 11.282-3.442 1.928-1 3.511-2.296 4.892-3.916.274-.321.623-.578 1.211-.734-.041.684-.064 1.372-.087 2.06-.055 1.662-.11 3.325-.421 4.938-.215 1.114-1.219 2.161-2.076 3.054l-.048.05c-3.452 3.603-6.272 7.642-8.403 12.128-1.244 2.622-1.509 5.495-1.27 8.378.169 2.042.432 4.08.748 6.105.07.457.49 1.148.832 1.2.385.06 1.006-.377 1.28-.769a627.01 627.01 0 004.748-6.92c.605-.89 1.209-1.779 1.816-2.668l.129-.189c.422-.618.846-1.239 1.308-1.827 2.013-2.559 2.833-5.444 2.505-8.684-.034-.336.059-.685.151-1.033.043-.159.085-.318.115-.475l.333-.058c.121.235.236.473.35.711.249.516.497 1.031.807 1.507a814.99 814.99 0 002.935 4.458 600.438 600.438 0 013.915 5.97c.5.776.862 1.668 1.141 2.553.877 2.791.992 5.656.885 8.569-.076 2.048-.045 4.102-.014 6.155.015 1.018.031 2.036.033 3.053 0 .248-.04.495-.089.807-.027.165-.056.348-.084.559l-.859-.679a89.551 89.551 0 01-1.631-1.304c-3.516-2.909-7.638-3.544-12.001-3.124-.923.087-1.861.455-2.697.881a226.882 226.882 0 00-7.884 4.232c-1.023.575-1.022 1.206-.016 1.703l.929.46c2.13 1.057 4.265 2.116 6.472 2.988 3.559 1.408 7.231 1.044 10.88.253.388-.084.781-.148 1.173-.213.189-.031.378-.062.566-.095l.237.327c-.207.331-.408.666-.609 1.001-.44.734-.881 1.468-1.379 2.16-2.252 3.124-3.131 6.67-2.988 10.426.077 2.015.318 4.025.558 6.035.116.973.232 1.945.33 2.918.02.194.014.392.008.589-.007.252-.015.504.032.746.061.324.229.776.471.874.246.1.776-.056.946-.28.267-.351.541-.698.817-1.046.883-1.116 1.77-2.237 2.398-3.486 1.633-3.248 3.076-6.6 4.46-9.964.457-1.11.726-2.3.994-3.486.08-.351.159-.702.243-1.05.068-.282.047-.586.026-.891a6.852 6.852 0 01-.02-.426l.236.033.46.063c.19.327.39.649.59.971.444.716.887 1.431 1.223 2.194.613 1.397 1.154 2.826 1.695 4.255.206.546.413 1.093.624 1.637.942 2.438-.19 4.331-1.383 6.327l-.131.219c-2.937 4.932-5.352 10.14-5.932 15.921-.168 1.681-.215 3.374-.018 5.035h1.752c-.249-1.595-.454-3.189-.355-4.763.318-5.071 2.527-9.505 4.819-14.105.568-1.14 1.141-2.291 1.692-3.464.113.22.212.395.296.541.142.25.238.419.281.601.1.417.176.842.253 1.267.141.786.283 1.572.57 2.3.576 1.468.712 2.911.433 4.424-.118.643-.243 1.284-.367 1.925-.134.687-.267 1.374-.393 2.062-.541 2.978-1.451 5.82-3.063 8.413-.164.263-.322.53-.478.799h1.855c1.489-2.667 2.708-5.462 3.223-8.579.071-.429.147-.859.222-1.289.319-1.812.639-3.633.63-5.447-.005-1.131-.246-2.26-.493-3.414-.163-.761-.328-1.532-.429-2.322.172.259.352.513.533.768.39.548.78 1.097 1.079 1.691.607 1.208 1.243 2.403 1.878 3.599 1.933 3.634 3.866 7.268 4.994 11.263.344 1.22.57 2.474.787 3.73h3.596a11.367 11.367 0 01-2.531-3.107c-.438-.793-.698-1.68-.96-2.569-.229-.782-.459-1.565-.81-2.286-1.898-3.9-3.872-7.763-5.847-11.626l-1.429-2.799c-.365-.717-.748-1.425-1.131-2.134-.573-1.061-1.146-2.123-1.662-3.213-.437-.922-.784-1.887-1.131-2.853-.152-.422-.304-.845-.464-1.264l.302-.239c.308.239.621.472.934.706.681.509 1.362 1.019 1.998 1.58 3.014 2.662 6.234 5.074 9.878 6.75 2.796 1.287 5.752 2.379 8.752 3.012 1.796.379 3.774.076 5.665-.213l.585-.089c1.476-.22 1.716-1.248.678-2.299l-1.074-1.089c-2.396-2.431-4.792-4.862-7.27-7.208-2.457-2.324-5.412-3.698-8.822-4.007-1.146-.104-2.29-.225-3.434-.347-2.339-.249-4.677-.497-7.022-.59-2.483-.098-3.702-.807-4.308-3.264-.041-.168-.085-.335-.129-.502-.322-1.232-.642-2.456.029-3.72.1-.188.081-.544-.036-.724-1.115-1.721-1.101-3.6-1.086-5.483.005-.679.01-1.358-.038-2.03-.103-1.452-.048-2.908.008-4.364.085-2.247.17-4.494-.326-6.724-.034-.151.027-.323.087-.495.028-.08.056-.16.075-.237.118.057.246.106.374.154.274.103.548.207.724.399a78 78 0 011.772 2.036c.566.664 1.132 1.329 1.718 1.975.422.465.838.938 1.254 1.412 1.215 1.386 2.433 2.774 3.83 3.947 3.493 2.936 7.125 5.72 10.813 8.413 2.721 1.985 5.887 2.988 9.048 3.99.943.298 1.885.597 2.815.921 1.596.556 3.262.932 4.921 1.278.496.106 1.304.01 1.545-.313.243-.323.107-1.12-.129-1.573a20.194 20.194 0 00-1.916-3.035c-.366-.476-.731-.955-1.095-1.433-1.509-1.983-3.02-3.968-4.7-5.798-2.389-2.604-5.65-3.808-8.966-4.801-2.524-.757-5.064-1.231-7.663-.385-.459.148-.901.356-1.341.562l-.254.119c-1.452.673-2.422.575-3.485-.557l-.458-.487c-2.758-2.933-5.518-5.867-8.175-8.895-.623-.711-1.027-1.625-1.425-2.525-.104-.235-.207-.47-.314-.699l-.038-.083c-.314-.679-.546-1.18-1.523-1.358-.774-.14-1.522-1.041-2.059-1.768-2.944-3.979-5.225-8.356-6.892-12.985-.492-1.367-.467-2.938-.441-4.48.007-.424.014-.847.01-1.262-.01-1.129.058-2.258.126-3.387.045-.758.091-1.515.113-2.273.032-1.073.249-1.981 1.147-2.724.437-.361.701-1.004.897-1.57.099-.287.082-.614.065-.941-.007-.146-.015-.292-.012-.434l.634.001c.191.177.374.371.558.566.403.428.806.856 1.3 1.101 2.238 1.109 2.486 2.889 2.458 5.172-.052 4.035.972 7.927 2.681 11.595.937 2.01 1.96 3.99 3.067 5.914 1.294 2.248 3.188 3.895 5.67 4.714 1.716.566 2.559-.252 2.338-2.088-.346-2.884-1.47-5.504-2.76-8.06-1.195-2.363-2.395-4.724-3.687-7.035-.433-.773-.964-1.491-1.495-2.21a41.794 41.794 0 01-.75-1.034 19.995 19.995 0 01-.441-.674c-.067-.104-.133-.209-.201-.313l.238-.316c.506.245 1.009.498 1.512.751 1.159.582 2.317 1.165 3.513 1.657.7.288 1.437.482 2.175.677.572.151 1.145.302 1.701.497.509.177 1.209.529 1.34.95.366 1.175.662 2.372.958 3.567.218.882.437 1.764.683 2.637l.141.501c1.466 5.212 2.933 10.426 6.118 14.942.178.252.343.515.507.778.185.295.37.59.574.87.44.605 1.059 1.111 1.779.647.528-.34 1.196-.988 1.212-1.516.018-.574.045-1.148.073-1.723.116-2.433.233-4.871-.388-7.276-1.096-4.244-2.965-8.063-6.162-11.136-.488-.468-1.013-.897-1.538-1.326a34.728 34.728 0 01-1.081-.905c-.151-.133-.261-.314-.371-.495-.05-.082-.1-.164-.154-.242l.208-.356c.426.156.87.287 1.313.418.967.285 1.934.571 2.721 1.115.788.546 1.589 1.079 2.39 1.612 3.688 2.455 7.392 4.919 9.893 8.727.754 1.149 1.233 2.484 1.71 3.814.168.468.336.936.515 1.394 1.224 3.125 2.724 6.011 5.79 7.784 2.286 1.324 4.563 2.662 6.841 4 1.851 1.087 3.702 2.175 5.558 3.255v-1.603a21.946 21.946 0 00-1.361-.788l-.266-.14c-3.538-1.856-7.053-3.7-10.326-6.065-2.748-1.988-4.06-4.675-5.226-7.59-.336-.841-.01-1.292.976-1.346 3.7-.211 6.829 1.346 9.714 3.33 2.853 1.96 4.833 4.752 6.489 7.732v-2.419zm-32.042-3.895c-2.12-4.086-3.484-8.456-4.573-12.91-.186-.762-.265-1.55-.343-2.339-.036-.363-.072-.726-.119-1.087l.428-.208c.357.345.724.683 1.09 1.021.8.739 1.601 1.478 2.313 2.295 3.112 3.573 4.296 7.909 4.648 12.516.075.992-.013 2.001-.101 3.003l-.047.551c-.016.196-.148.382-.279.567-.06.086-.12.171-.169.257-.079-.048-.167-.09-.255-.133-.191-.092-.383-.185-.489-.337a78.046 78.046 0 00-.417-.586c-.605-.846-1.212-1.695-1.687-2.61zm-18.289-11.958c-1.1-2.514-2.02-5.146-2.203-7.953a46.18 46.18 0 00-.217-2.192 84.242 84.242 0 01-.112-.996l.296-.106.297-.106c.461.62.947 1.227 1.432 1.834 1.075 1.343 2.149 2.686 2.959 4.173 1.588 2.915 2.957 5.951 4.324 8.984.311.69.622 1.38.936 2.068.352.769.541 1.661.589 2.506.057 1.031-.565 1.402-1.409.871a30.768 30.768 0 00-.656-.398c-.892-.532-1.81-1.079-2.352-1.866-1.48-2.149-2.842-4.432-3.884-6.819zm-23.636-13.476c2.922-2.686 7.148-3.066 10.469-.812-1.769 4.712-12.552 9.844-15.419 8.216.588-3.237 2.704-5.341 4.95-7.404zm5.101-28.249c2.927 2.78 5.068 6.12 5.923 10.195-6.459-4.9-13.247-9.116-20.647-12.359 4.471-1.737 11.685-.723 14.724 2.164zm20.881 24.486c-.378.237-.756.473-1.133.711-.408.258-.861.445-1.313.633-.208.086-.416.172-.62.265l-.32-.214c.104-.462.202-.925.3-1.388.218-1.026.435-2.052.722-3.058.69-2.404 2.182-4.379 3.82-6.178 1.787-1.965 3.876-3.581 6.722-3.774 1.994-.136 3.024 1.173 2.169 2.982-1.24 2.62-2.939 4.951-5.287 6.678-1.627 1.195-3.344 2.269-5.06 3.343zm-7.372 77.724c-.311.685-.622 1.371-.928 2.057-.26.581-.705 1.079-1.151 1.579-.205.229-.41.459-.597.697l-.528-.12c-.073-.825-.162-1.65-.252-2.475-.2-1.841-.399-3.683-.416-5.527-.033-3.881 1.067-7.472 3.408-10.653 1.356-1.848 2.808-3.525 5.135-4.436.044.181.102.356.158.524.115.348.221.669.181.971a81.55 81.55 0 00-.265 2.293c-.221 2.074-.441 4.151-1.07 6.096-.99 3.073-2.334 6.036-3.675 8.994zm-7.262-123.385a22.584 22.584 0 01-5.627 6.196c-.539.407-.992.686-1.591-.162a44.26 44.26 0 00-.156-1.655c-.129-1.205-.259-2.408-.168-3.595.326-4.294 2.138-7.804 5.987-10.062 1.4-.82 2.774-1.684 4.148-2.548l.361-.227c.61-.383 1.079-.143 1.052.457-.027.65.105 1.325.238 2.002.317 1.616.634 3.236-1.226 4.517-.089.06-.143.172-.197.281-.022.045-.044.09-.068.131-.296.503-.589 1.007-.882 1.511-.615 1.057-1.229 2.114-1.871 3.154zm19.584-11.488c-.968 4.126-3.339 7.542-5.78 10.902-1.482 2.037-3.151 3.89-5.555 5.418.072-.381.127-.736.179-1.072.104-.671.196-1.264.384-1.824a425.705 425.705 0 013.484-10.028c1.081-2.985 2.184-5.965 3.392-8.902.598-1.455 1.373-2.841 2.143-4.22l.223-.399c.106-.192.369-.297.632-.402.121-.048.241-.096.347-.153.05.094.109.186.167.279.129.202.258.405.296.624.06.343.086.693.113 1.043.032.43.064.859.159 1.274.578 2.51.39 5.006-.184 7.46zm-27.509 94.445l-.877 1.191c-.18.246-.405.46-.712.753-.171.163-.368.35-.597.582l-.2-1.285c-.122-.778-.227-1.455-.328-2.135-.427-2.879.079-5.608 1.196-8.281.9-2.151 2.235-4.023 3.568-5.892.467-.655.933-1.31 1.381-1.976.71-1.056 1.706-1.931 2.689-2.794a66.7 66.7 0 00.675-.598c.598-.539.962-.25.952.544-.002.307.011.615.025.924.021.472.042.945.005 1.413-.049.621-.072 1.252-.096 1.883-.061 1.642-.123 3.289-.631 4.78-.579 1.697-1.649 3.238-2.709 4.762-.282.407-.564.812-.835 1.219-1.116 1.672-2.311 3.291-3.506 4.91zm58.283-40.135c-5.764-2.308-16.904.938-17.457 11.317 6.961.421 15.531-5.348 17.457-11.317zm-39.75 59.317c-4.886-5.657-12.904-7.82-21.734-.744 2.695 4.208 18.467 4.705 21.734.744zm13.736-99.08c1.792.464 3.254 1.431 4.598 2.693.353.332.715.655 1.077.978 1.538 1.375 3.077 2.751 3.961 4.785-.581-.074-1.151-.126-1.71-.178-1.197-.111-2.345-.217-3.442-.513-3.54-.956-7.126-1.232-10.759-1.157-.667.014-1.334.053-2 .093-1.047.061-2.094.122-3.139.088-1.138-.037-2.27-.186-3.403-.336a78.22 78.22 0 00-1.514-.19 18.876 18.876 0 01-.031-.217l-.03-.217c.233-.291.46-.587.687-.883.496-.645.991-1.29 1.543-1.883 1.647-1.768 3.867-2.372 6.116-2.984l.012-.003c2.695-.733 5.346-.772 8.034-.076zm14.106 114.976c.487.478.974.956 1.442 1.452 1.01 1.07 2.004 2.154 3.083 3.332l1.353 1.475c-.077.091-.151.203-.224.313-.156.236-.309.466-.478.479-.313.023-.629.056-.947.089-1.097.112-2.211.227-3.223-.028-2.455-.621-4.862-1.505-7.203-2.484-4.747-1.983-8.783-4.991-12.124-8.907-.182-.213-.311-.471-.44-.729-.057-.114-.114-.229-.176-.339.132-.034.265-.079.399-.124.292-.099.585-.198.868-.177 1.155.082 2.308.192 3.461.302.936.089 1.873.179 2.811.253 3.801.297 7.425 1.025 10.226 3.924.384.396.778.782 1.172 1.169zm9.617-15.071c.427.613.854 1.225 1.287 1.832.152.213.226.483.325.843.055.201.118.429.206.692-.396-.119-.759-.224-1.099-.323a36.981 36.981 0 01-1.884-.581c-.738-.258-1.477-.514-2.215-.771-2.875-.998-5.752-1.996-8.595-3.078-1.171-.446-2.3-1.134-3.279-1.92-1.546-1.243-3.047-2.542-4.547-3.842a322.12 322.12 0 00-2.354-2.025c-.435-.369-.606-.689-.035-1.047 1.741-1.086 3.685-1.488 5.673-1.274a20.645 20.645 0 018.026 2.622c1.617.924 3.222 2.067 4.43 3.46 1.475 1.7 2.768 3.557 4.061 5.412z" clip-rule="evenodd"/><path fill="#202020" d="M300 295.459c-2.677-.814-5.398-1.559-8.25-1.117a22.383 22.383 0 00-8.327 3.067c-.418.257-.75.673-1.072 1.078l-.208.258c-.341.417-.681.835-1.019 1.255h1.828c.692-.897 1.486-1.693 2.659-2.115.384-.138.767-.28 1.15-.423 2.709-1.007 5.416-2.014 8.446-1.393 1.622.333 3.232.688 4.793 1.191v-1.801z"/><path fill="#202020" fill-rule="evenodd" d="M69.22 300c-4.815-3.991-9.133-8.522-13.306-13.195-1.511-1.693-2.769-3.618-4.022-5.537-.31-.476-.62-.951-.934-1.422-.26-.39-.356-.888-.457-1.412-.048-.25-.097-.505-.165-.758 6.843-3.302 9.244-9.261 10.034-16.09.206-1.792.178-3.61.15-5.429-.015-.928-.03-1.855-.012-2.78.002-.175-.004-.361-.01-.549-.02-.607-.041-1.239.24-1.644 2.394-3.436 1.166-6.661-.328-9.938-.6-1.318-1.681-1.918-2.899-1.555-.918.274-2.165 1.117-2.339 1.909-.673 3.063-.702 6.37 1.732 8.62 1.724 1.592 2.007 3.263 1.98 5.24l-.008.611c-.018 1.556-.036 3.131-.343 4.637-.566 2.777-1.17 5.597-2.217 8.214-.913 2.275-2.297 4.441-4.917 5.865-.026-.318-.063-.602-.097-.861-.065-.496-.118-.902-.059-1.292.78-5.104.023-10.04-1.491-14.916-.425-1.37-.826-2.749-1.227-4.127-.67-2.305-1.34-4.609-2.124-6.874-.48-1.385-.24-2.445.172-3.732.459-1.427.821-3.031.645-4.488-.503-4.148-2.417-7.738-5.253-10.771-.496-.53-1.197-.866-1.967-1.236-.376-.18-.767-.368-1.16-.59-2.827 6.89-1.042 14.165 3.97 18.597.933.823 1.611 2.057 2.1 3.23.882 2.123 1.603 4.319 2.267 6.524 1.778 5.905 3.295 11.86 2.162 18.108-.147.803-.409 1.584-.714 2.495-.155.463-.321.961-.49 1.511-.249-.306-.453-.537-.618-.724-.279-.315-.45-.508-.546-.733l-.55-1.26c-1.614-3.695-3.228-7.391-4.742-11.127-.291-.726-.284-1.801.037-2.509 2.004-4.415-.532-7.481-3.02-10.49l-.12-.145c-.475-.573-1.818-.843-2.577-.624-.545.156-1.15 1.382-1.109 2.095.227 3.947.608 7.855 4.087 10.63.718.572 1.144 1.58 1.534 2.503l.12.282c.684 1.606 1.29 3.246 1.895 4.886l.347.94c.414 1.113.813 2.232 1.276 3.531.229.642.473 1.328.743 2.079-.406-.185-.72-.314-.968-.417-.41-.169-.645-.266-.833-.42-7.948-6.504-13.386-14.696-16.373-24.511-.18-.59-.18-1.297-.056-1.909.865-4.31-1.594-7.137-4.494-9.574-1.825-1.531-3.716-.492-3.817 1.939-.123 2.928.894 5.527 3.425 7.069 2.547 1.55 3.957 3.805 4.768 6.46 2.342 7.676 6.66 14.013 12.6 19.328.665.595 1.266 1.263 2.011 2.093.393.437.826.919 1.33 1.459-.529-.098-.95-.167-1.3-.224-.604-.098-.998-.162-1.374-.282-3.06-.984-5.476-2.957-7.898-4.933-.381-.311-.762-.623-1.146-.93-1.362-1.089-2.184-2.389-2.487-4.103-.52-2.943-2.365-5.109-4.325-7.213-.93-.996-1.959-1.432-3.231-.9-1.417.593-1.798 1.792-1.702 3.235.234 3.529 3.708 7.891 7.125 9.126 1.31.474 2.648 1.093 3.72 1.96 3.62 2.932 7.49 5.288 12.03 6.553l.322.09c1.998.562 3.886 1.094 5.66-.278.87 1.14 1.704 2.276 2.526 3.397 1.787 2.438 3.521 4.803 5.476 6.968 3.334 3.694 6.916 7.102 10.67 10.318h2.67zm-29.022-43.672c-.585-2.211-1.169-4.059-3.231-5.205-.367 4.236.473 5.678 3.231 5.205zm17.194-9.225c-.989-1.558-1.372-3.331.1-5.112 1.996 1.203 2.223 3.071 2.502 5.376l.048.393c-.364-.081-.744-.125-1.1-.167-.716-.083-1.339-.156-1.55-.49zm-36.649-6.39c2.52 1.145 3.197 2.125 3.988 6.129-.344-.105-.68-.18-.999-.252-.658-.148-1.242-.28-1.664-.616-1.322-1.05-1.72-3.091-1.325-5.261zm.325 20.557c3.439 1.234 5.13 4.125 4.218 6.928-2.547-1.503-3.306-3.967-4.14-6.676l-.078-.252zm18.52-26.892c-.446-1.735-.822-3.595.53-5.375 3.091 3.292 5.3 6.677 4.81 11.45l-3.118.822c-.237-.723-.48-1.431-.722-2.131-.553-1.605-1.091-3.169-1.5-4.766z" clip-rule="evenodd"/><path fill="#202020" d="M74.738 4.157c1.63 1.107 3.208 2.298 4.755 3.517 7.939 6.244 17.289 9.43 26.754 12.34 1 .306 2.057.428 3.33.574.659.076 1.376.159 2.172.277a16.34 16.34 0 00-.978.77c-.487.407-.824.688-1.183.722-1.179.108-2.471.153-3.569-.214-9.272-3.088-18.444-6.284-26.545-12.102C75.024 6.846 70.682 3.54 66.55 0h2.67a71.558 71.558 0 005.518 4.157z"/></svg>
